<svg aria-hidden="true" style="position: absolute; width: 0; height: 0; overflow: hidden;" version="1.1" xmlns="http://www.w3.org/2000/svg" xmlns:xlink="http://www.w3.org/1999/xlink"><defs><symbol id="dds__brand-alienware" viewBox="0 0 32 32">
<title>dds__brand-alienware</title>
<path d="M27.1 12.6c-0.12-0.92-0.2-1.74-0.32-2.64s-0.42-1.74-0.62-2.56c-0.174-0.489-0.349-0.891-0.548-1.28l0.028 0.060c-0.2-0.42-0.4-0.82-0.62-1.24-0.262-0.425-0.525-0.79-0.813-1.136l0.013 0.016c-0.297-0.336-0.604-0.643-0.929-0.93l-0.011-0.010c-0.629-0.583-1.338-1.095-2.105-1.513l-0.055-0.027c-0.711-0.361-1.558-0.707-2.436-0.986l-0.124-0.034c-0.764-0.189-1.644-0.304-2.549-0.32l-0.011-0c-0.973 0.001-1.917 0.118-2.822 0.337l0.082-0.017c-0.924 0.22-1.737 0.543-2.488 0.965l0.048-0.025c-0.771 0.448-1.43 0.986-1.993 1.613l-0.007 0.007c-0.32 0.32-0.6 0.62-0.94 1.020s-0.52 0.62-0.8 1.020c-0.198 0.348-0.374 0.752-0.508 1.175l-0.012 0.045c-0.22 0.42-0.34 0.82-0.54 1.22-0.312 0.771-0.538 1.665-0.636 2.597l-0.004 0.043c-0.2 0.94-0.2 1.76-0.32 2.66-0.12 0.788-0.192 1.702-0.2 2.632l-0 0.008c0.017 0.955 0.089 1.876 0.214 2.78l-0.014-0.12c0.12 0.4 0.2 0.94 0.32 1.22 0.089 0.504 0.227 0.954 0.415 1.378l-0.015-0.038c0.706 1.756 1.566 3.273 2.598 4.653l-0.038-0.053c0.52 0.72 0.94 1.42 1.54 2.24 0.516 0.746 1.055 1.399 1.643 2.003l-0.003-0.003 0.94 0.94c0.32 0.32 0.72 0.52 1 0.8 0.357 0.247 0.767 0.457 1.204 0.609l0.036 0.011c0.169 0.114 0.375 0.187 0.597 0.2l0.003 0c0.2 0 0.52 0.12 0.62 0.12s0.52 0 0.6-0.12c0.232-0.033 0.441-0.103 0.63-0.205l-0.010 0.005 1.22-0.62c0.39-0.226 0.726-0.492 1.018-0.798l0.002-0.002 0.94-0.94c0.52-0.6 1.12-1.34 1.62-2s1.020-1.42 1.54-2.24c0.889-1.336 1.731-2.873 2.442-4.481l0.078-0.199c0.17-0.349 0.314-0.756 0.412-1.18l0.008-0.040c0.12-0.319 0.244-0.727 0.344-1.143l0.016-0.077c0.132-0.671 0.208-1.443 0.208-2.232 0-0.151-0.003-0.301-0.008-0.45l0.001 0.022c0.108-0.533 0.17-1.145 0.17-1.772 0-0.341-0.018-0.677-0.054-1.009l0.004 0.041zM6.42 16.16s4.92 1.14 8.1 7.84c0-0.16-8.52-0.28-8.1-7.84zM17.58 23.84c1.414-3.647 4.299-6.454 7.908-7.732l0.092-0.028c0.42 7.66-8 7.76-8 7.76z"/>
</symbol></defs></svg>