<svg aria-hidden="true" style="position: absolute; width: 0; height: 0; overflow: hidden;" version="1.1" xmlns="http://www.w3.org/2000/svg" xmlns:xlink="http://www.w3.org/1999/xlink"><defs><symbol id="dds__fan" viewBox="0 0 32 32">
<title>dds__fan</title>
<path d="M0 0v32h32v-32zM29.86 29.86h-27.72v-27.72h27.72zM16 28c0.018 0 0.039 0 0.060 0 6.462 0 11.7-5.238 11.7-11.7s-5.238-11.7-11.7-11.7c-6.434 0-11.654 5.193-11.7 11.616l-0 0.004c-0 0.024-0 0.052-0 0.080 0 6.441 5.204 11.666 11.637 11.7h0.003zM6.66 17.82c1.384-0.593 2.989-1.017 4.667-1.194l0.073-0.006c0.059 0.894 0.373 1.705 0.868 2.372l-0.008-0.012c-0.769 1.451-1.366 3.133-1.702 4.908l-0.018 0.112c-2.016-1.445-3.433-3.616-3.872-6.123l-0.008-0.057zM16 13.64c1.416 0.011 2.56 1.162 2.56 2.58 0 1.425-1.155 2.58-2.58 2.58s-2.58-1.155-2.58-2.58v0c0-0 0-0 0-0 0-1.425 1.155-2.58 2.58-2.58 0.007 0 0.014 0 0.021 0h-0.001zM12.52 25.1c0.274-1.757 0.791-3.338 1.522-4.793l-0.042 0.093c0.581 0.307 1.264 0.503 1.988 0.54l0.012 0c0.078 0.005 0.169 0.007 0.26 0.007s0.182-0.003 0.272-0.008l-0.012 0.001c1.010 1.531 2.18 2.848 3.513 3.978l0.027 0.022c-1.191 0.593-2.594 0.939-4.078 0.939-1.278 0-2.495-0.257-3.604-0.722l0.061 0.023zM22 23.64c-1.295-0.993-2.404-2.141-3.327-3.431l-0.033-0.049c0.721-0.508 1.293-1.183 1.667-1.969l0.013-0.031c1.893-0.105 3.666-0.463 5.337-1.041l-0.137 0.041c-0.274 2.632-1.58 4.914-3.502 6.466l-0.018 0.014zM25.48 14.92c-1.385 0.56-2.988 0.944-4.663 1.076l-0.057 0.004c-0.006-0.945-0.289-1.823-0.771-2.558l0.011 0.018c0.748-1.463 1.332-3.159 1.662-4.944l0.018-0.116c2.129 1.504 3.606 3.809 3.994 6.468l0.006 0.052zM19.48 7.34c-0.209 1.729-0.653 3.303-1.302 4.766l0.042-0.106c-0.621-0.316-1.354-0.501-2.13-0.501-0.032 0-0.063 0-0.095 0.001l0.005-0c-0.090-0.005-0.194-0.008-0.3-0.008s-0.21 0.003-0.314 0.009l0.014-0.001c-0.979-1.479-2.102-2.755-3.377-3.86l-0.023-0.020c1.166-0.587 2.537-0.945 3.989-0.98l0.011-0c0.014-0 0.031-0 0.048-0 1.274 0 2.488 0.257 3.593 0.723l-0.061-0.023zM10 8.84c1.31 0.999 2.432 2.153 3.367 3.452l0.033 0.048c-0.753 0.527-1.337 1.247-1.688 2.088l-0.012 0.032c-1.881 0.134-3.63 0.534-5.265 1.162l0.125-0.042c0.18-2.719 1.473-5.105 3.424-6.727l0.016-0.013z"/>
</symbol></defs></svg>