<svg aria-hidden="true" style="position: absolute; width: 0; height: 0; overflow: hidden;" version="1.1" xmlns="http://www.w3.org/2000/svg" xmlns:xlink="http://www.w3.org/1999/xlink"><defs><symbol id="dds__gaming-desktop" viewBox="0 0 32 32">
<title>dds__gaming-desktop</title>
<path d="M14 9.16v-9.16h-14v32h14v-3.88l-0.16 0.18c-0.49 0.513-1.102 0.906-1.789 1.131l-0.031 0.009h-0.020v0.56h-10v-28h10v8.26s1.84-1.060 2-1.1zM10 8h-6v-2h6zM24.58 12.82l2.1 1.18c0.296 0.174 0.534 0.418 0.695 0.71l0.005 0.010c1.324 2.469 2.251 5.351 2.609 8.406l0.011 0.114v0.1c0.010 0.072 0.016 0.155 0.016 0.24s-0.006 0.168-0.017 0.249l0.001-0.009c0 0.008 0 0.017 0 0.027 0 0.677-0.258 1.293-0.682 1.755l0.002-0.002-2.88-3.2c-0.692-0.775-1.693-1.26-2.808-1.26-0.004 0-0.008 0-0.012 0h-7.019c-0.003 0-0.006 0-0.009 0-1.109 0-2.105 0.486-2.787 1.256l-0.003 0.004-2.92 3.2c-0.434-0.475-0.7-1.109-0.7-1.806 0-0.005 0-0.010 0-0.015v0.001c-0.005-0.072-0.007-0.156-0.007-0.24s0.003-0.168 0.008-0.251l-0.001 0.011c0.314-3.167 1.211-6.062 2.582-8.669l-0.062 0.129c0.16-0.318 0.399-0.577 0.692-0.755l0.008-0.005 2.16-1.2c0.58 0.311 1.266 0.501 1.994 0.52l0.006 0h5c0.024 0.001 0.053 0.001 0.081 0.001 0.665 0 1.286-0.186 1.814-0.51l-0.015 0.009zM24.58 10.82v0c-0.003-0-0.006-0-0.010-0-0.36 0-0.695 0.104-0.977 0.284l0.007-0.004c-0.254 0.151-0.561 0.24-0.888 0.24-0.011 0-0.023-0-0.034-0l0.002 0h-5c-0.004 0-0.009 0-0.013 0-0.439 0-0.855-0.103-1.223-0.287l0.016 0.007c-0.258-0.151-0.568-0.24-0.898-0.24-0.008 0-0.015 0-0.023 0h0.001c-0.367 0.003-0.711 0.099-1.011 0.266l0.011-0.006-2.16 1.24c-0.642 0.354-1.15 0.882-1.471 1.52l-0.009 0.020c-1.38 2.642-2.326 5.727-2.651 8.994l-0.009 0.106c-0.010 0.114-0.016 0.246-0.016 0.38s0.006 0.266 0.017 0.397l-0.001-0.017c0 0.002 0 0.005 0 0.008 0 1.203 0.464 2.298 1.223 3.115l-0.003-0.003c0.362 0.4 0.881 0.653 1.459 0.66h0.001c0.587-0.001 1.114-0.255 1.478-0.658l0.002-0.002 2.94-3.18c0.321-0.38 0.798-0.62 1.332-0.62 0.003 0 0.006 0 0.009 0h6.94c0.53 0.008 1.005 0.237 1.339 0.599l0.001 0.001 2.88 3.2c0.366 0.405 0.893 0.659 1.48 0.66h0c0.587-0.001 1.114-0.255 1.478-0.658l0.002-0.002c0.741-0.802 1.196-1.878 1.2-3.059v-0.001c0.009-0.111 0.015-0.24 0.015-0.37s-0.005-0.259-0.016-0.387l0.001 0.017c-0.338-3.419-1.306-6.545-2.787-9.359l0.067 0.139c-0.352-0.673-0.879-1.212-1.521-1.57l-0.019-0.010-2.1-1.18c-0.282-0.163-0.62-0.259-0.98-0.26h-0z"/>
</symbol></defs></svg>