<svg aria-hidden="true" style="position: absolute; width: 0; height: 0; overflow: hidden;" version="1.1" xmlns="http://www.w3.org/2000/svg" xmlns:xlink="http://www.w3.org/1999/xlink"><defs><symbol id="dds__disc-secure" viewBox="0 0 32 32">
<title>dds__disc-secure</title>
<path d="M17.38 0c0 0 0 0 0 0-8.074 0-14.62 6.546-14.62 14.62 0 0.007 0 0.014 0 0.021v-0.001c0.634-0.316 1.37-0.542 2.147-0.637l0.033-0.003c0.402-6.567 5.826-11.74 12.458-11.74 6.893 0 12.48 5.588 12.48 12.48s-5.587 12.48-12.48 12.48c-0.006 0-0.013 0-0.019 0h0.001c-1.216-0.032-2.375-0.227-3.471-0.564l0.091 0.024v2.2c0.988 0.244 2.124 0.389 3.293 0.4l0.007 0c0.012 0 0.026 0 0.040 0 8.085 0 14.64-6.555 14.64-14.64 0-8.071-6.532-14.617-14.598-14.64h-0.002zM17.38 19.14c2.485 0 4.5-2.015 4.5-4.5s-2.015-4.5-4.5-4.5c-2.485 0-4.5 2.015-4.5 4.5v0c0 2.485 2.015 4.5 4.5 4.5v0zM17.38 12.26c0.006-0 0.013-0 0.020-0 1.314 0 2.38 1.066 2.38 2.38s-1.066 2.38-2.38 2.38c-1.314 0-2.38-1.066-2.38-2.38v0c0-0 0-0 0-0 0-1.307 1.054-2.369 2.359-2.38h0.001zM10.44 20.32c-0.045-2.395-1.997-4.32-4.399-4.32-0.014 0-0.029 0-0.043 0l0.002-0c-0.153-0.017-0.33-0.027-0.51-0.027s-0.357 0.010-0.532 0.029l0.022-0.002c-0.782 0.201-1.457 0.584-2.002 1.102l0.002-0.002c-0.815 0.796-1.32 1.906-1.32 3.134 0 0.002 0 0.004 0 0.006v-0 2.34h-1.66v9.42h12v-9.34h-1.56zM9.8 29.86h-7.66v-5.060h7.66zM5.16 22.66h-1.36v-2.34s0-0.12 0-0.18c0.062-0.944 0.7-1.725 1.564-1.996l0.016-0.004c0.182-0.073 0.393-0.123 0.613-0.14l0.007-0c1.237 0 2.24 1.003 2.24 2.24v2.34z"/>
</symbol></defs></svg>