<svg aria-hidden="true" style="position: absolute; width: 0; height: 0; overflow: hidden;" version="1.1" xmlns="http://www.w3.org/2000/svg" xmlns:xlink="http://www.w3.org/1999/xlink"><defs><symbol id="dds__doc-add" viewBox="0 0 32 32">
<title>dds__doc-add</title>
<path d="M11.62 29.86h-7.48v-20.48h8v-7.24h11.72v9.18c0.831 0.278 1.538 0.589 2.211 0.955l-0.071-0.035v-12.24h-16l-8 7.46v24.54h12c-0.874-0.621-1.631-1.327-2.284-2.12l-0.016-0.020zM10 2.82v4.44h-4.68zM30 21.24c-0.394-2.704-1.872-5.003-3.97-6.48l-0.030-0.020c-0.616-0.446-1.323-0.824-2.079-1.101l-0.061-0.019c-0.627-0.268-1.355-0.471-2.115-0.575l-0.045-0.005c-0.186-0.015-0.402-0.023-0.62-0.023s-0.434 0.008-0.648 0.025l0.028-0.002c-0.007-0-0.016-0-0.025-0-5.236 0-9.48 4.244-9.48 9.48 0 3.008 1.401 5.688 3.586 7.425l0.019 0.015c1.282 1.045 2.871 1.76 4.612 1.995l0.048 0.005c0.186 0.014 0.402 0.022 0.62 0.022s0.434-0.008 0.649-0.024l-0.029 0.002c0.029 0 0.062 0 0.096 0 5.258 0 9.52-4.262 9.52-9.52 0-0.423-0.028-0.84-0.081-1.249l0.005 0.048zM26 27.34v0c-0.603 0.656-1.31 1.204-2.098 1.62l-0.042 0.020c-0.985 0.532-2.154 0.849-3.397 0.86l-0.003 0h-0.96c-3.306-0.462-5.889-3.052-6.336-6.322l-0.004-0.038c-0.042-0.294-0.066-0.635-0.066-0.98 0-1.869 0.7-3.574 1.852-4.867l-0.006 0.007c1.357-1.53 3.325-2.492 5.519-2.5h0.001c0.147-0.014 0.317-0.022 0.49-0.022s0.343 0.008 0.512 0.024l-0.022-0.002c0.916 0.148 1.737 0.449 2.474 0.878l-0.034-0.018c0.819 0.437 1.519 0.977 2.116 1.615l0.004 0.005c1.146 1.286 1.846 2.991 1.846 4.86s-0.7 3.574-1.853 4.867l0.006-0.007zM21.68 21.26v-4.14h-2.4v4.14h-4.1v2.4h4.1v4.14h2.4v-4.14h4.18v-2.4h-4.18z"/>
</symbol></defs></svg>