<svg aria-hidden="true" style="position: absolute; width: 0; height: 0; overflow: hidden;" version="1.1" xmlns="http://www.w3.org/2000/svg" xmlns:xlink="http://www.w3.org/1999/xlink"><defs><symbol id="dds__windows-support" viewBox="0 0 32 32">
<title>dds__windows-support</title>
<path d="M29.68 21.080v2.92h-8.58l-2.12 2.14h12.82v-7.020c-0.613 0.764-1.311 1.424-2.088 1.979l-0.032 0.021zM2.12 9.46h12.66c0.285-0.811 0.63-1.511 1.045-2.162l-0.025 0.042h-13.68v-3.9h18.62c1.008-0.388 2.174-0.621 3.392-0.64l0.008-0c1.233 0.017 2.406 0.25 3.49 0.663l-0.070-0.023h2.12v1.040c0.809 0.576 1.507 1.236 2.104 1.98l0.016 0.020v-5.16h-31.8v24.82h4.24c0.125-0.805 0.399-1.526 0.794-2.165l-0.014 0.025h-2.9v-14.52zM29.7 18.38c1.425-1.42 2.307-3.384 2.307-5.555 0-1.092-0.223-2.132-0.627-3.077l0.019 0.051-0.62-1.46-3.58 3.66c-0.284 0.26-0.663 0.419-1.080 0.419s-0.796-0.159-1.081-0.421l0.001 0.001c-0.269-0.28-0.436-0.66-0.44-1.079v-0.001c-0-0.003-0-0.007-0-0.010 0-0.417 0.168-0.795 0.44-1.070l3.58-3.58-1.46-0.6c-0.892-0.384-1.931-0.608-3.022-0.608-4.319 0-7.82 3.501-7.82 7.82 0 0.816 0.125 1.603 0.357 2.343l-0.015-0.055-9.3 9.3c-0.667 0.657-1.081 1.57-1.081 2.58s0.413 1.923 1.080 2.58l0 0c0.658 0.656 1.567 1.062 2.57 1.062s1.912-0.406 2.57-1.062l9.3-9.3c0.688 0.218 1.48 0.344 2.3 0.344 2.191 0 4.173-0.897 5.599-2.343l0.001-0.001zM11 28.12c-0.284 0.26-0.663 0.419-1.080 0.419s-0.796-0.159-1.081-0.421l0.001 0.001c-0.269-0.28-0.436-0.66-0.44-1.079v-0.001c0.008-0.406 0.175-0.772 0.44-1.040l-0 0 10.28-10.32-0.26-0.66c-0.3-0.672-0.474-1.455-0.474-2.28 0-3.159 2.561-5.72 5.72-5.72 0.005 0 0.010 0 0.015 0h0.579l-1.16 1.14c-0.658 0.662-1.064 1.573-1.064 2.58s0.406 1.918 1.064 2.58l-0-0c0.674 0.63 1.582 1.017 2.58 1.017s1.906-0.387 2.582-1.019l-0.002 0.002 1.14-1.16c0.021 0.183 0.033 0.396 0.033 0.611 0 1.568-0.64 2.987-1.673 4.009l-0 0c-1.040 1.063-2.489 1.723-4.092 1.723-0.759 0-1.484-0.148-2.147-0.417l0.038 0.014-0.66-0.26-10.34 10.28z"/>
</symbol></defs></svg>