<svg aria-hidden="true" style="position: absolute; width: 0; height: 0; overflow: hidden;" version="1.1" xmlns="http://www.w3.org/2000/svg" xmlns:xlink="http://www.w3.org/1999/xlink"><defs><symbol id="dds__zoom-out" viewBox="0 0 32 32">
<title>dds__zoom-out</title>
<path d="M32 30.5l-10.54-10.5c1.712-2.059 2.751-4.731 2.751-7.646 0-6.627-5.373-12-12-12s-12 5.373-12 12c0 6.627 5.373 12 12 12 2.971 0 5.69-1.080 7.786-2.868l-0.017 0.014 10.52 10.5 1.5-1.5zM12.14 22.22c-5.523 0-10-4.477-10-10s4.477-10 10-10c5.523 0 10 4.477 10 10v0c0 5.523-4.477 10-10 10v0zM5.8 11.1h12.7v2.12h-12.7z"/>
</symbol></defs></svg>