<svg aria-hidden="true" style="position: absolute; width: 0; height: 0; overflow: hidden;" version="1.1" xmlns="http://www.w3.org/2000/svg" xmlns:xlink="http://www.w3.org/1999/xlink"><defs><symbol id="dds__printer" viewBox="0 0 32 32">
<title>dds__printer</title>
<path d="M24.24 6.78v-5.22h-16.48v5.22h-7.76v15.38h7.76v8.28h16.48v-8.28h7.76v-15.38zM10 3.68h12.2v3.1h-12.2zM22.2 28.32h-12.2v-12.78h12.2v12.78zM29.86 20h-5.62v-4.46h0.7v-2.14h-17.88v2.14h0.7v4.46h-5.62v-11.080h27.72zM11.68 20v1.040h8.64v-2.12h-8.64zM11.68 23.28h8.64v2.12h-8.64zM28.66 11c0.002 0.024 0.003 0.052 0.003 0.080 0 0.596-0.484 1.080-1.080 1.080s-1.080-0.484-1.080-1.080c0-0.595 0.482-1.078 1.077-1.080h0c0.001 0 0.002 0 0.003 0 0.568 0 1.034 0.439 1.077 0.996l0 0.004z"/>
</symbol></defs></svg>