<svg aria-hidden="true" style="position: absolute; width: 0; height: 0; overflow: hidden;" version="1.1" xmlns="http://www.w3.org/2000/svg" xmlns:xlink="http://www.w3.org/1999/xlink"><defs><symbol id="dds__hd-generic" viewBox="0 0 32 32">
<title>dds__hd-generic</title>
<path d="M0 0v32h32v-32zM29.86 29.86h-27.72v-27.72h27.72zM7.62 16.6h5.58v5.4h1.86v-12h-1.86v5.020h-5.58v-5.020h-1.86v12h1.86zM20.86 22c0.008 0 0.018 0 0.027 0 1.029 0 1.998-0.259 2.844-0.716l-0.032 0.016c0.811-0.473 1.454-1.155 1.868-1.973l0.012-0.027c0.417-0.822 0.662-1.792 0.662-2.82 0-0.049-0.001-0.099-0.002-0.148l0 0.007v-0.74c0-0.017 0-0.037 0-0.056 0-1.042-0.244-2.027-0.677-2.902l0.017 0.038c-0.426-0.845-1.069-1.527-1.858-1.988l-0.022-0.012c-0.767-0.429-1.682-0.681-2.657-0.681-0.043 0-0.087 0.001-0.13 0.002l0.006-0h-3.44v12zM19.34 20.42v-8.84h1.62c0.034-0.001 0.074-0.002 0.115-0.002 0.958 0 1.82 0.408 2.423 1.060l0.002 0.002c0.567 0.747 0.909 1.693 0.909 2.718 0 0.099-0.003 0.197-0.009 0.295l0.001-0.013v0.68c0.006 0.089 0.010 0.193 0.010 0.298 0 1.043-0.366 2-0.977 2.75l0.006-0.008c-0.618 0.656-1.492 1.065-2.462 1.065-0.062 0-0.125-0.002-0.186-0.005l0.009 0z"/>
</symbol></defs></svg>