<svg aria-hidden="true" style="position: absolute; width: 0; height: 0; overflow: hidden;" version="1.1" xmlns="http://www.w3.org/2000/svg" xmlns:xlink="http://www.w3.org/1999/xlink"><defs><symbol id="dds__thumb-up" viewBox="0 0 32 32">
<title>dds__thumb-up</title>
<path d="M0 30.4h7.82v-15.040l-7.82 0.080zM2.14 17.58h3.54v10.62h-3.54zM28 12.28h-5c0.48-0.84 2.42-4.46 2-7.020-0.194-1.542-1.131-2.829-2.435-3.508l-0.025-0.012c-0.442-0.15-0.95-0.238-1.479-0.24h-0.001c-0.029-0.001-0.064-0.002-0.098-0.002-0.465 0-0.901 0.127-1.274 0.348l0.012-0.006c-0.44 0.29-0.745 0.753-0.819 1.29l-0.001 0.010c-0.12 0.94-0.28 2-0.4 2.5-0.74 0.74-3.46 3.48-5.060 4.94l-0.18 0.24-3.4 5.66v12.6h1.5c2 0 3.22 0 3.5 0h0.12c1.332 0.662 2.881 1.129 4.516 1.314l0.064 0.006c1.46 0 5.6 0 5.78 0 0.027 0 0.059 0.001 0.092 0.001 1.506 0 2.878-0.57 3.914-1.505l-0.005 0.005c0.436-0.51 0.701-1.177 0.701-1.906 0-0.125-0.008-0.248-0.023-0.369l0.001 0.014c0-0.32 0-0.5 0-0.56l0.32-0.32c0.603-0.648 0.973-1.519 0.973-2.478 0-0.461-0.086-0.902-0.242-1.307l0.008 0.025c-0.022-0.041-0.035-0.089-0.035-0.14s0.013-0.099 0.035-0.142l-0.001 0.002c0.48-0.557 0.773-1.287 0.773-2.086 0-0.62-0.176-1.198-0.481-1.688l0.008 0.014c0.372-0.572 0.594-1.271 0.594-2.022 0-0.826-0.268-1.589-0.721-2.208l0.007 0.011c-0.823-0.859-1.963-1.409-3.231-1.46l-0.009-0zM29.48 16.88c-0.185 0.298-0.295 0.659-0.295 1.046 0 0.45 0.148 0.865 0.399 1.199l-0.004-0.005c0.095 0.14 0.152 0.314 0.152 0.5s-0.057 0.36-0.154 0.503l0.002-0.003c-0.443 0.407-0.72 0.99-0.72 1.637 0 0.35 0.081 0.682 0.226 0.977l-0.006-0.013c0.039 0.13 0.062 0.28 0.062 0.435 0 0.403-0.153 0.77-0.403 1.046l0.001-0.001c-0.614 0.445-1.009 1.159-1.009 1.966 0 0.204 0.025 0.402 0.073 0.591l-0.004-0.017c0 0.52 0 0.7-0.16 0.84-0.618 0.475-1.403 0.761-2.254 0.761-0.030 0-0.060-0-0.090-0.001l0.004 0s-4.28 0-5.68 0c-1.415-0.194-2.696-0.594-3.874-1.173l0.074 0.033-0.28-0.14c-0.705-0.137-1.515-0.216-2.344-0.216-0.421 0-0.837 0.020-1.248 0.060l0.052-0.004v-9.82l3-5.080c1.9-1.76 5.060-4.96 5.2-5.1l0.24-0.36c0.24-0.847 0.431-1.853 0.534-2.885l0.006-0.075c0.020-0.001 0.045-0.001 0.069-0.001 0.276 0 0.541 0.044 0.789 0.126l-0.018-0.005c0.86 0.34 1.080 1.8 1.080 1.82-0.060 2.104-0.685 4.050-1.728 5.707l0.028-0.047c-0.301 0.348-0.485 0.805-0.485 1.305 0 0.249 0.046 0.488 0.129 0.709l-0.005-0.014c0.293 0.574 0.84 0.982 1.489 1.079l0.011 0.001h5.66c1.22 0.12 1.18 0.24 1.62 0.6s0.38 1-0.060 2.020z"/>
</symbol></defs></svg>