<svg aria-hidden="true" style="position: absolute; width: 0; height: 0; overflow: hidden;" version="1.1" xmlns="http://www.w3.org/2000/svg" xmlns:xlink="http://www.w3.org/1999/xlink"><defs><symbol id="dds__calendar" viewBox="0 0 32 32">
<title>dds__calendar</title>
<path d="M10.74 13.24h4v2.12h-4zM17.3 13.24h4v2.12h-4zM23.84 13.24h4v2.12h-4zM4.2 18.92h4v2.12h-4zM10.74 18.92h4v2.12h-4zM17.3 18.92h4v2.12h-4zM23.84 18.92h4v2.12h-4zM4.2 24.58h4v2.14h-4zM10.74 24.58h4v2.14h-4zM22.96 2.42v-2.42h-2.14v2.42h-9.76v-2.42h-2.12v2.42h-8.94v29.58h32v-29.58zM8.96 4.54v1.88h2.1v-1.88h9.76v1.88h2.14v-1.88h6.9v3.46h-27.72v-3.46zM2.14 29.86v-19.76h27.72v19.76z"/>
</symbol></defs></svg>