<svg aria-hidden="true" style="position: absolute; width: 0; height: 0; overflow: hidden;" version="1.1" xmlns="http://www.w3.org/2000/svg" xmlns:xlink="http://www.w3.org/1999/xlink"><defs><symbol id="dds__zoom-in" viewBox="0 0 32 32">
<title>dds__zoom-in</title>
<path d="M32 30.5l-10.52-10.5c1.768-2.1 2.842-4.835 2.842-7.82 0-6.727-5.453-12.18-12.18-12.18-0.001 0-0.001 0-0.002 0h0c-0.009-0-0.019-0-0.029-0-6.727 0-12.18 5.453-12.18 12.18s5.453 12.18 12.18 12.18c3.017 0 5.778-1.097 7.906-2.914l-0.017 0.014 10.5 10.54 1.5-1.5zM12.14 22.22c-5.523 0-10-4.477-10-10s4.477-10 10-10c5.523 0 10 4.477 10 10v0c0 5.523-4.477 10-10 10v0zM13.18 5.86h-2.12v5.3h-5.28v2.12h5.28v5.3h2.12v-5.3h5.3v-2.12h-5.3z"/>
</symbol></defs></svg>