<svg aria-hidden="true" style="position: absolute; width: 0; height: 0; overflow: hidden;" version="1.1" xmlns="http://www.w3.org/2000/svg" xmlns:xlink="http://www.w3.org/1999/xlink"><defs><symbol id="dds__view-table" viewBox="0 0 32 32">
<title>dds__view-table</title>
<path d="M0 2v28h32v-28zM29.86 10.7h-5.1v-6.56h5.1zM9.38 12.84h5.56v6.32h-5.56zM7.24 19.16h-5.1v-6.32h5.1v6.32zM14.94 10.7h-5.56v-6.56h5.56zM17.060 4.14h5.56v6.56h-5.56zM14.94 21.3v6.56h-5.56v-6.56zM17.060 21.3h5.56v6.56h-5.56zM17.060 19.16v-6.32h5.56v6.32zM24.76 12.84h5.1v6.32h-5.1zM7.24 4.14v6.56h-5.1v-6.56zM2.14 21.3h5.1v6.56h-5.1zM24.76 27.86v-6.56h5.1v6.56z"/>
</symbol></defs></svg>