<svg aria-hidden="true" style="position: absolute; width: 0; height: 0; overflow: hidden;" version="1.1" xmlns="http://www.w3.org/2000/svg" xmlns:xlink="http://www.w3.org/1999/xlink"><defs><symbol id="dds__disc-check" viewBox="0 0 32 32">
<title>dds__disc-check</title>
<path d="M2.14 14.66c0-0 0-0.001 0-0.002 0-6.893 5.588-12.48 12.48-12.48s12.48 5.588 12.48 12.48c0 2.114-0.525 4.104-1.453 5.849l0.033-0.067 3.34-3.32c0.127-0.731 0.207-1.581 0.22-2.447l0-0.013c-0.014-8.064-6.554-14.596-14.62-14.596-8.074 0-14.62 6.546-14.62 14.62 0 7.955 6.353 14.426 14.262 14.616l0.018 0-2.52-2.48c-5.556-1.349-9.618-6.28-9.62-12.16v-0zM10.12 14.66c0.011 2.477 2.022 4.48 4.5 4.48 2.485 0 4.5-2.015 4.5-4.5s-2.015-4.5-4.5-4.5v0c0 0-0 0-0 0-2.485 0-4.5 2.015-4.5 4.5 0 0.007 0 0.014 0 0.021v-0.001zM16.98 14.66c-0 1.314-1.066 2.38-2.38 2.38s-2.38-1.066-2.38-2.38c0-1.314 1.066-2.38 2.38-2.38 0.007 0 0.014 0 0.021 0h-0.001c0 0 0 0 0 0 1.303 0 2.36 1.057 2.36 2.36 0 0.007-0 0.014-0 0.021v-0.001zM30.5 18.64l-10.4 10.36-0.56-0.56-4.46-4.34-1.5 1.54 6.54 6.36 11.88-11.84z"/>
</symbol></defs></svg>