<svg aria-hidden="true" style="position: absolute; width: 0; height: 0; overflow: hidden;" version="1.1" xmlns="http://www.w3.org/2000/svg" xmlns:xlink="http://www.w3.org/1999/xlink"><defs><symbol id="dds__inbox-arrow-down" viewBox="0 0 32 32">
<title>dds__inbox-arrow-down</title>
<path d="M32 19.86l-5.24-6.4h-4.14l-2.14 2.14h5.26l1.76 2.12h-5.72l-1.68 2.28h-8.1l-1.78-2.28h-5.72l1.76-2.12h5.26l-2.14-2.14h-4.14l-5.24 6.4 1.34 8h29.32l1.34-8zM29.78 20.16v0l-0.94 5.6h-25.68l-0.94-5.66v-0.26h6.94l1.66 2.24h10.36l1.66-2.24h6.98zM14.54 15.6l1.46 1.46 6.62-6.62-1.38-1.38-4.3 4.3v-9.36h-2v9.3l-4.18-4.24-1.38 1.38 3.020 3.020z"/>
</symbol></defs></svg>