<svg aria-hidden="true" style="position: absolute; width: 0; height: 0; overflow: hidden;" version="1.1" xmlns="http://www.w3.org/2000/svg" xmlns:xlink="http://www.w3.org/1999/xlink"><defs><symbol id="dds__help-sqr" viewBox="0 0 32 32">
<title>dds__help-sqr</title>
<path d="M0 0v32h32v-32zM29.86 29.86h-27.72v-27.72h27.72zM12.68 12.36h0.26c-0.009-0.104-0.014-0.226-0.014-0.349 0-0.871 0.251-1.684 0.684-2.37l-0.011 0.018c0.514-0.565 1.253-0.919 2.074-0.919 0.115 0 0.228 0.007 0.339 0.020l-0.013-0.001c0.029-0.001 0.062-0.001 0.096-0.001 0.488 0 0.957 0.081 1.395 0.23l-0.030-0.009c0.372 0.135 0.692 0.332 0.962 0.582l-0.002-0.002c0.225 0.223 0.397 0.498 0.496 0.806l0.004 0.014c0.099 0.28 0.157 0.603 0.16 0.939v0.001c0.001 0.028 0.001 0.061 0.001 0.094 0 0.398-0.074 0.778-0.209 1.128l0.007-0.021c-0.13 0.353-0.306 0.657-0.525 0.926l0.005-0.006c-0.251 0.306-0.513 0.58-0.793 0.834l-0.007 0.006-1.040 0.88c-0.356 0.295-0.677 0.602-0.973 0.932l-0.007 0.008c-0.235 0.273-0.442 0.582-0.608 0.914l-0.012 0.026c-0.156 0.319-0.274 0.689-0.337 1.077l-0.003 0.023c-0.021 0.246-0.033 0.531-0.033 0.82s0.012 0.574 0.035 0.857l-0.002-0.037h2.44c-0-0.019-0-0.042-0-0.065 0-0.416 0.044-0.822 0.127-1.213l-0.007 0.038c0.068-0.296 0.186-0.557 0.345-0.788l-0.005 0.008c0.184-0.271 0.388-0.508 0.617-0.717l0.003-0.003c0.26-0.24 0.58-0.52 0.98-0.84s0.72-0.64 1.040-0.96c0.305-0.291 0.57-0.619 0.788-0.979l0.012-0.021c0.215-0.357 0.393-0.769 0.512-1.206l0.008-0.034c0.128-0.457 0.202-0.983 0.202-1.525 0-0.054-0.001-0.108-0.002-0.162l0 0.008c0-0.003 0-0.007 0-0.011 0-0.72-0.155-1.404-0.433-2.020l0.012 0.031c-0.277-0.636-0.693-1.167-1.211-1.573l-0.009-0.007c-0.506-0.401-1.098-0.721-1.74-0.929l-0.040-0.011c-0.663-0.213-1.427-0.337-2.218-0.34h-0.002c-0.042-0.001-0.091-0.002-0.141-0.002-0.84 0-1.644 0.155-2.385 0.437l0.046-0.015c-0.691 0.245-1.28 0.628-1.759 1.119l-0.001 0.001c-0.449 0.498-0.804 1.091-1.029 1.744l-0.011 0.036c-0.222 0.654-0.35 1.408-0.35 2.191 0 0.13 0.004 0.259 0.010 0.387l-0.001-0.018zM14.48 22.98h2.56v2.56h-2.56z"/>
</symbol></defs></svg>