<svg aria-hidden="true" style="position: absolute; width: 0; height: 0; overflow: hidden;" version="1.1" xmlns="http://www.w3.org/2000/svg" xmlns:xlink="http://www.w3.org/1999/xlink"><defs><symbol id="dds__disc-arrow-up" viewBox="0 0 32 32">
<title>dds__disc-arrow-up</title>
<path d="M26.88 15.060c0.138 0.698 0.218 1.5 0.218 2.32 0 6.893-5.588 12.48-12.48 12.48s-12.48-5.587-12.48-12.48c0-6.893 5.588-12.48 12.48-12.48 0.001 0 0.002 0 0.003 0h-0c0.929 0.002 1.833 0.104 2.704 0.295l-0.084-0.016 1.74-1.76c-1.284-0.419-2.761-0.66-4.295-0.66-0.023 0-0.046 0-0.069 0h0.004c-8.074 0-14.62 6.546-14.62 14.62s6.546 14.62 14.62 14.62c8.074 0 14.62-6.546 14.62-14.62v0c-0.006-0.831-0.078-1.64-0.212-2.428l0.012 0.088h-2.16zM10.12 17.38c0 2.485 2.015 4.5 4.5 4.5s4.5-2.015 4.5-4.5c0-2.485-2.015-4.5-4.5-4.5v0c-2.485 0-4.5 2.015-4.5 4.5v0zM16.98 17.38c0 0.006 0 0.013 0 0.020 0 1.314-1.066 2.38-2.38 2.38s-2.38-1.066-2.38-2.38c0-1.314 1.066-2.38 2.38-2.38 0.007 0 0.014 0 0.021 0h-0.001c1.303 0 2.36 1.057 2.36 2.36v0zM25.42 0l-6.58 6.58 1.36 1.42 4.28-4.28v9.2h2v-9.18l4.14 4.26 1.38-1.42z"/>
</symbol></defs></svg>