<svg aria-hidden="true" style="position: absolute; width: 0; height: 0; overflow: hidden;" version="1.1" xmlns="http://www.w3.org/2000/svg" xmlns:xlink="http://www.w3.org/1999/xlink"><defs><symbol id="dds__charge-back-folder" viewBox="0 0 32 32">
<title>dds__charge-back-folder</title>
<path d="M32 20.58c-0.020-0.652-0.085-1.272-0.191-1.878l0.011 0.078c-0.939-5.373-5.568-9.406-11.14-9.406-6.004 0-10.914 4.682-11.278 10.594l-0.002 0.032c0 0.2 0 0.4 0 0.6s0 0.18 0 0.26c0.052 1.925 0.58 3.717 1.469 5.275l-0.029-0.055c0.443 0.806 0.947 1.502 1.526 2.127l-0.006-0.007c2.071 2.275 5.045 3.698 8.352 3.698 5.672 0 10.366-4.186 11.161-9.637l0.007-0.061c0-0.5 0.14-0.98 0.16-1.48v-0.18zM29.86 20.76c-0.026 2.036-0.722 3.904-1.876 5.401l0.016-0.021c-0.605 0.832-1.327 1.535-2.15 2.101l-0.030 0.019c-1.439 1.002-3.223 1.6-5.148 1.6-0.011 0-0.023-0-0.034-0h0.002c-0.015 0-0.032 0-0.050 0-1.912 0-3.684-0.599-5.139-1.619l0.029 0.019c-2.452-1.678-4.040-4.462-4.040-7.617 0-5.081 4.119-9.2 9.2-9.2 5.059 0 9.164 4.083 9.2 9.133l0 0.003v0.18zM2.14 26.12v-24h8.74l2.96 4.28h16v4.44c0.816 0.749 1.529 1.589 2.129 2.51l0.031 0.050v-9.14h-17.040l-2.96-4.26h-12v28.26h9.56c-0.436-0.617-0.831-1.321-1.151-2.064l-0.029-0.076zM22.42 20.3c-0.407-0.207-0.896-0.41-1.402-0.578l-0.078-0.022c-0.481-0.146-0.899-0.329-1.289-0.555l0.029 0.015c-0.186-0.105-0.34-0.246-0.457-0.415l-0.003-0.005c-0.023-0.099-0.036-0.213-0.036-0.33s0.013-0.231 0.038-0.34l-0.002 0.010c-0.001-0.015-0.001-0.034-0.001-0.052 0-0.347 0.155-0.658 0.4-0.867l0.002-0.001c0.33-0.25 0.747-0.4 1.2-0.4s0.87 0.15 1.205 0.404l-0.005-0.004c0.276 0.315 0.444 0.729 0.444 1.183 0 0.041-0.001 0.082-0.004 0.122l0-0.005v0.74h1.84v-0.68c0-0.012 0-0.026 0-0.040 0-0.953-0.357-1.823-0.944-2.483l0.003 0.004c-0.437-0.472-1.011-0.811-1.659-0.956l-0.021-0.004v-1.34h-1.86v1.32c-0.625 0.112-1.171 0.396-1.602 0.801l0.002-0.001c-0.592 0.54-0.962 1.314-0.962 2.175 0 0.037 0.001 0.074 0.002 0.11l-0-0.005c-0 0.010-0 0.021-0 0.033 0 0.518 0.118 1.009 0.329 1.447l-0.009-0.020c0.245 0.442 0.583 0.805 0.989 1.073l0.011 0.007c0.5 0.332 1.078 0.604 1.694 0.788l0.046 0.012c0.566 0.192 1.048 0.409 1.506 0.664l-0.046-0.024c0.204 0.113 0.372 0.269 0.497 0.455l0.003 0.005c0.089 0.167 0.141 0.364 0.141 0.574 0 0.016-0 0.032-0.001 0.048l0-0.002c-0.016 0.339-0.176 0.637-0.418 0.838l-0.002 0.002c-0.302 0.251-0.693 0.403-1.121 0.403-0.035 0-0.070-0.001-0.104-0.003l0.005 0c-0.071 0.008-0.153 0.013-0.236 0.013-0.475 0-0.915-0.155-1.27-0.417l0.006 0.004c-0.299-0.3-0.484-0.714-0.484-1.171 0-0.038 0.001-0.076 0.004-0.114l-0 0.005v-0.72h-1.84v0.74c-0.001 0.031-0.002 0.066-0.002 0.102 0 0.964 0.399 1.835 1.041 2.457l0.001 0.001c0.531 0.501 1.219 0.84 1.982 0.938l0.018 0.002v1.32h1.86v-1.34c0.628-0.127 1.173-0.424 1.601-0.841l-0.001 0.001c0.568-0.534 0.922-1.29 0.922-2.13 0-0.039-0.001-0.078-0.002-0.116l0 0.006c-0.058-0.426-0.192-0.811-0.388-1.156l0.008 0.016c-0.152-0.368-0.369-0.681-0.639-0.939l-0.001-0.001c-0.26-0.308-0.571-0.562-0.923-0.752l-0.017-0.008z"/>
</symbol></defs></svg>