<svg aria-hidden="true" style="position: absolute; width: 0; height: 0; overflow: hidden;" version="1.1" xmlns="http://www.w3.org/2000/svg" xmlns:xlink="http://www.w3.org/1999/xlink"><defs><symbol id="dds__thumb-down" viewBox="0 0 32 32">
<title>dds__thumb-down</title>
<path d="M0 16.56h7.82v-14.88l-7.82-0.080zM2.14 3.78h3.54v10.68h-3.54zM31.38 14.14c0.299-0.48 0.477-1.062 0.477-1.686 0-0.792-0.286-1.518-0.761-2.079l0.004 0.005c-0.028-0.039-0.045-0.087-0.045-0.14s0.017-0.101 0.046-0.141l-0 0.001c0.134-0.369 0.211-0.795 0.211-1.24 0-1.021-0.409-1.946-1.072-2.621l0.001 0.001c-0.137-0.068-0.256-0.148-0.362-0.242l0.002 0.002s0-0.24 0-0.56c0.018-0.121 0.028-0.261 0.028-0.404 0-0.743-0.276-1.422-0.731-1.94l0.003 0.003c-1.052-0.931-2.444-1.5-3.969-1.5-0.011 0-0.022 0-0.033 0h0.002c-0.18 0-4.32 0-5.78 0-1.699 0.191-3.248 0.658-4.662 1.357l0.082-0.037h-0.12c-0.28 0-1.46 0-3.5 0h-1.36v12.6l3.4 5.66 0.18 0.24c1.6 1.46 4.32 4.2 5.060 4.94 0.12 0.46 0.28 1.56 0.4 2.5 0.069 0.543 0.377 1.002 0.813 1.276l0.007 0.004c0.362 0.227 0.802 0.362 1.274 0.362 0.037 0 0.075-0.001 0.111-0.003l-0.005 0c0.526-0.015 1.026-0.102 1.499-0.251l-0.039 0.011c1.329-0.691 2.273-1.965 2.497-3.474l0.003-0.026c0.46-2.56-1.48-6.18-2-7.040h4.96c0.029 0.001 0.062 0.001 0.096 0.001 1.226 0 2.33-0.523 3.101-1.358l0.003-0.003c0.446-0.608 0.714-1.372 0.714-2.198 0-0.751-0.221-1.451-0.603-2.037l0.009 0.014zM29.64 17c-0.456 0.351-1.031 0.568-1.657 0.58l-0.003 0h-5.64c-0.656 0.094-1.202 0.494-1.495 1.049l-0.005 0.011c-0.096 0.226-0.152 0.488-0.152 0.764 0 0.514 0.194 0.983 0.513 1.338l-0.002-0.002c1.015 1.61 1.64 3.556 1.7 5.644l0 0.016s-0.22 1.48-1.080 1.82c-0.233 0.077-0.5 0.121-0.779 0.121-0.029 0-0.057-0-0.085-0.001l0.004 0c-0.097-1.097-0.288-2.104-0.568-3.073l0.028 0.113-0.22-0.36c-0.2-0.12-3.3-3.32-5.2-5.020l-3-5.060v-9.84c0.376 0.043 0.811 0.068 1.252 0.068 0.81 0 1.6-0.083 2.363-0.241l-0.075 0.013 0.3-0.12c1.104-0.549 2.385-0.949 3.736-1.133l0.064-0.007c1.4 0 5.64 0 5.68 0 0.018-0 0.038-0 0.059-0 0.86 0 1.653 0.286 2.29 0.767l-0.010-0.007c0 0.12 0.22 0.3 0.14 0.82-0.039 0.165-0.061 0.355-0.061 0.55 0 0.818 0.39 1.546 0.994 2.006l0.006 0.005c0.258 0.278 0.417 0.651 0.417 1.062 0 0.149-0.021 0.293-0.060 0.429l0.003-0.011c-0.137 0.279-0.218 0.607-0.218 0.954 0 0.643 0.276 1.222 0.716 1.624l0.002 0.002c0.090 0.142 0.144 0.315 0.144 0.5s-0.054 0.358-0.146 0.504l0.002-0.004c-0.279 0.341-0.448 0.782-0.448 1.262 0 0.409 0.123 0.789 0.333 1.105l-0.005-0.007c0.14 0.24 0.54 1.26 0.1 1.76z"/>
</symbol></defs></svg>