<svg aria-hidden="true" style="position: absolute; width: 0; height: 0; overflow: hidden;" version="1.1" xmlns="http://www.w3.org/2000/svg" xmlns:xlink="http://www.w3.org/1999/xlink"><defs><symbol id="dds__snowflake" viewBox="0 0 32 32">
<title>dds__snowflake</title>
<path d="M30.14 17.66l-6.14 1.68-5.86-3.34 5.86-3.34 6.2 1.68 0.56-2-4.14-1.12 3.84-2.2-1.060-1.86-4 2.28 1.12-4.12-2-0.56-1.66 6.18-5.8 3.22v-6.72l4.54-4.52-1.5-1.52-3.040 3.020v-4.42h-2.12v4.58l-2.94-3.020-1.5 1.5 4.44 4.54v6.56l-5.7-3.28-1.66-6.18-2 0.56 1.12 4.12-4-2.28-1.1 1.86 3.84 2.2-4.14 1.12 0.56 2 6.14-1.62 5.86 3.34-5.86 3.34-6.14-1.68-0.56 2 4.14 1.12-3.84 2.26 1.060 1.86 4-2.28-1.12 4.12 2 0.56 1.66-6.18 5.74-3.28v6.72l-4.54 4.52 1.6 1.52 3.040-3.020v4.42h2.020v-4.58l3.040 3.020 1.5-1.5-4.54-4.54v-6.56l5.7 3.28 1.66 6.18 2-0.56-1.12-4.12 4 2.28 1.060-1.86-3.84-2.2 4.14-1.12z"/>
</symbol></defs></svg>