<svg aria-hidden="true" style="position: absolute; width: 0; height: 0; overflow: hidden;" version="1.1" xmlns="http://www.w3.org/2000/svg" xmlns:xlink="http://www.w3.org/1999/xlink"><defs><symbol id="dds__infrastructure" viewBox="0 0 32 32">
<title>dds__infrastructure</title>
<path d="M28 10l4-4-6-6-4 4-4-4v14h14l-4-4zM20.2 12v-6.8l0.24 0.24 1.52 1.54 4-4 3.060 3.060-4 4 1.86 2zM6.1 0l-6 6 3.9 4-4 4h14v-14l-4 4-4-4zM11.54 5.44l0.24-0.24v6.8h-6.66l1.86-2-4-4 3.12-2.96 4 4 1.52-1.52zM18 18v14l4-4 4 4 6-6-4-4 4-4zM28.88 26l-2.88 2.96-4-4-1.76 1.78v-6.74h6.66l-1.86 1.88 4 4zM4 22l-4 4 6 6 4-4 4 4v-14h-14l4 4zM11.8 20v6.8l-0.24-0.24-1.56-1.54-4 4-2.96-3.020 4-4-1.86-2z"/>
</symbol></defs></svg>