<svg aria-hidden="true" style="position: absolute; width: 0; height: 0; overflow: hidden;" version="1.1" xmlns="http://www.w3.org/2000/svg" xmlns:xlink="http://www.w3.org/1999/xlink"><defs><symbol id="dds__brand-skype" viewBox="0 0 32 32">
<title>dds__brand-skype</title>
<path d="M30.48 19.3c0.218-0.945 0.348-2.034 0.36-3.152l0-0.008v-0.14c-0.045-8.106-6.627-14.66-14.74-14.66-0 0-0 0-0 0h-0.1c-0.015-0-0.032-0-0.049-0-1.131 0-2.232 0.131-3.288 0.379l0.097-0.019c-1.3-1.026-2.953-1.66-4.751-1.7l-0.009-0c-0.011-0-0.024-0-0.038-0-0.697 0-1.373 0.088-2.019 0.252l0.056-0.012c-2.831 0.744-5.016 2.929-5.747 5.704l-0.013 0.056c-0.153 0.588-0.24 1.264-0.24 1.96 0 0.014 0 0.028 0 0.042v-0.002c0.006 1.848 0.637 3.547 1.693 4.898l-0.013-0.018c-0.231 0.964-0.369 2.073-0.38 3.213l-0 0.008c0 0 0 0 0 0 0 8.127 6.577 14.717 14.698 14.74h0.002c1.18-0.008 2.325-0.139 3.429-0.38l-0.109 0.020c1.318 0.994 2.984 1.591 4.789 1.591 4.418 0 8-3.582 8-8 0-1.815-0.604-3.489-1.623-4.831l0.014 0.020zM16.48 25.72c-4.68 0-8.48-2.14-8.48-4.64v-0.14c0-1.105 0.895-2 2-2v0h0.14c2.14 0 2.44 3.22 6.32 3.22 1.84 0 3.040-0.82 3.040-1.88s-1.16-1.56-3.020-2c-4.62-1.12-8.62-1.6-8.62-6.28 0-4.28 4.3-5.82 7.86-5.82 4 0 8 1.56 8 4 0.005 0.021 0.008 0.045 0.008 0.070s-0.003 0.049-0.009 0.072l0-0.002c0 0 0 0 0 0 0 1.182-0.958 2.14-2.14 2.14-0.007 0-0.014-0-0.021-0h0.001c-2.14-0.020-2.26-2.46-5.56-2.46-1.86 0-3 0.48-3 1.6 0 1.44 1.48 1.56 4.94 2.38 2.98 0.66 6.44 2 6.44 5.58 0 4.28-4.12 6.2-8 6.2z"/>
</symbol></defs></svg>