<svg aria-hidden="true" style="position: absolute; width: 0; height: 0; overflow: hidden;" version="1.1" xmlns="http://www.w3.org/2000/svg" xmlns:xlink="http://www.w3.org/1999/xlink"><defs><symbol id="dds__user-remove" viewBox="0 0 32 32">
<title>dds__user-remove</title>
<path d="M12 13.46c3.714-0.011 6.72-3.025 6.72-6.74 0-3.722-3.018-6.74-6.74-6.74s-6.74 3.018-6.74 6.74v0c0 0 0 0 0 0 0 3.722 3.018 6.74 6.74 6.74 0.007 0 0.014 0 0.021-0h-0.001zM12 2.14c2.523 0.023 4.56 2.073 4.56 4.6 0 2.54-2.059 4.6-4.6 4.6s-4.6-2.059-4.6-4.6c0-0.007 0-0.014 0-0.021v0.001c0.011-2.532 2.066-4.58 4.6-4.58 0.014 0 0.028 0 0.042 0h-0.002zM6.22 14.94c1.613 1.111 3.61 1.774 5.761 1.774 1.583 0 3.082-0.359 4.421-1.001l-0.062 0.027c0.905-0.827 1.965-1.502 3.13-1.975l0.070-0.025c-0.372-0.344-0.776-0.666-1.204-0.957l-0.036-0.023-0.66-0.42-0.6 0.5c-1.374 1.102-3.139 1.769-5.060 1.769s-3.686-0.667-5.076-1.782l0.016 0.012-0.6-0.5-0.66 0.42c-2.985 2.235-5.033 5.579-5.532 9.409l-0.008 0.071-0.12 1.18h12.92c0-0.006-0-0.012-0-0.018 0-0.745 0.087-1.47 0.253-2.165l-0.013 0.063h-10.7c0.56-2.556 1.897-4.739 3.746-6.348l0.014-0.012zM23.52 15.040c-4.683 0-8.48 3.797-8.48 8.48s3.797 8.48 8.48 8.48c4.683 0 8.48-3.797 8.48-8.48v0c0-4.683-3.797-8.48-8.48-8.48v0zM23.52 29.86c-0.006 0-0.013 0-0.020 0-3.513 0-6.36-2.847-6.36-6.36s2.847-6.36 6.36-6.36c3.513 0 6.36 2.847 6.36 6.36 0 0.007 0 0.014-0 0.021v-0.001c0 3.502-2.838 6.34-6.34 6.34v0zM26.14 19.38l-2.62 2.62-2.62-2.6-1.52 1.5 2.62 2.62-2.6 2.6 1.52 1.52 2.6-2.6 2.6 2.62 1.52-1.52-2.62-2.62 2.64-2.64z"/>
</symbol></defs></svg>