<svg aria-hidden="true" style="position: absolute; width: 0; height: 0; overflow: hidden;" version="1.1" xmlns="http://www.w3.org/2000/svg" xmlns:xlink="http://www.w3.org/1999/xlink"><defs><symbol id="dds__power-supply-double" viewBox="0 0 32 32">
<title>dds__power-supply-double</title>
<path d="M30.3 17.46c-0.832-0.77-1.948-1.242-3.176-1.242-0.051 0-0.101 0.001-0.152 0.002l0.007-0c-3.58 0-4.74 2.98-5.68 5.36s-1.74 4.14-4 4.14h-0.5c-2.054-0.022-3.716-1.67-3.76-3.716l-0-0.004v-3.22c1.46-0.415 2.513-1.734 2.52-3.299v-7.201h-2.52v-4.14h-2.14v4.14h-2.4v7.2c-0 0.007-0 0.016-0 0.025 0 1.517 1 2.801 2.376 3.228l0.024 0.006v3.26c0.008 1.459 0.536 2.794 1.407 3.829l-0.007-0.009h-4c-2.084-0.034-3.76-1.731-3.76-3.82 0-0 0-0 0-0v0-3.22c1.46-0.415 2.513-1.734 2.52-3.299v-7.201h-2.52v-4.14h-2.14v4.14h-2.4v7.2c0 0.003-0 0.007-0 0.010 0 1.521 0.999 2.809 2.376 3.243l0.024 0.007v3.26c0 3.314 2.686 6 6 6v0h8.98c3.76 0 4.96-3.040 6-5.5s1.68-4 3.76-4c0.012-0 0.025-0 0.039-0 0.679 0 1.298 0.258 1.763 0.682l-0.002-0.002c0.633 0.731 1.019 1.692 1.019 2.742 0 0.14-0.007 0.278-0.020 0.415l0.001-0.017v5.1h2.060v-5.24c0.010-0.134 0.016-0.289 0.016-0.446 0-1.659-0.654-3.166-1.718-4.276l0.002 0.002zM10.64 10.42h2.78v5.060c0 0.006 0 0.013 0 0.020 0 0.7-0.562 1.269-1.259 1.28h-0.281c-0.69-0.022-1.24-0.586-1.24-1.279 0-0.007 0-0.014 0-0.022v0.001zM2.14 10.42h2.78v5.060c0 0.006 0 0.013 0 0.020 0 0.7-0.562 1.269-1.259 1.28h-0.261c-0.698-0.011-1.26-0.58-1.26-1.28 0-0.007 0-0.014 0-0.021v0.001z"/>
</symbol></defs></svg>