<svg aria-hidden="true" style="position: absolute; width: 0; height: 0; overflow: hidden;" version="1.1" xmlns="http://www.w3.org/2000/svg" xmlns:xlink="http://www.w3.org/1999/xlink"><defs><symbol id="dds__server-rack-search" viewBox="0 0 32 32">
<title>dds__server-rack-search</title>
<path d="M24.4 0h-24.4v9.38h24.4zM22.26 7.24h-20.12v-5.1h20.12v5.1zM16 3.62h4.78v2.14h-4.78zM10 19.84c-0.015-0.192-0.023-0.415-0.023-0.64s0.008-0.448 0.025-0.67l-0.002 0.030h-8v-5.1h10.2c0.773-0.843 1.67-1.555 2.666-2.112l0.054-0.028h-14.92v9.36h10c0-0.28 0-0.54 0-0.84zM22.26 29.34v0.52h-20.12v-5.1h9.18c-0.374-0.615-0.688-1.326-0.905-2.077l-0.015-0.063h-10.4v9.38h24.38v-3.040l-0.38-0.3c-0.52 0.271-1.126 0.504-1.76 0.667l-0.060 0.013zM26 24.44c0.947-1.263 1.517-2.856 1.517-4.582 0-4.242-3.438-7.68-7.68-7.68s-7.68 3.438-7.68 7.68c0 4.242 3.438 7.68 7.68 7.68 1.762 0 3.385-0.593 4.681-1.591l-0.018 0.013 6 6 1.5-1.52zM19.86 25.42c-0.006 0-0.013 0-0.020 0-3.082 0-5.58-2.498-5.58-5.58s2.498-5.58 5.58-5.58c3.082 0 5.58 2.498 5.58 5.58v0c0 0 0 0 0 0 0 3.082-2.498 5.58-5.58 5.58-0.007 0-0.014 0-0.021-0h0.001z"/>
</symbol></defs></svg>