<svg aria-hidden="true" style="position: absolute; width: 0; height: 0; overflow: hidden;" version="1.1" xmlns="http://www.w3.org/2000/svg" xmlns:xlink="http://www.w3.org/1999/xlink"><defs><symbol id="dds__clipboard-remove" viewBox="0 0 32 32">
<title>dds__clipboard-remove</title>
<path d="M12.52 29.86h-8.52v-23.86h1.68v-2.22h-3.8v28.22h13c-0.904-0.611-1.681-1.318-2.345-2.122l-0.015-0.018zM24.48 12.24c0.819 0.271 1.526 0.602 2.185 1.006l-0.045-0.026v-9.44h-3.84v2.22h1.7v6.24zM20.76 2.58h-3.020c-0.483-1.495-1.862-2.558-3.49-2.558s-3.007 1.062-3.483 2.532l-0.007 0.026h-3.040v6.6h13.040zM18.62 7.040h-8.76v-2.32h2.88v-1.080c0-0.828 0.672-1.5 1.5-1.5v0c0 0 0 0 0 0 0.832 0 1.509 0.669 1.52 1.499v1.081h2.86v2.32zM25.64 19.66l-1.52-1.5-3.1 3.1-3.020-3.1-1.5 1.5 3.1 3.12-3.2 3.1 1.6 1.52 3.12-3.12 3.1 3.12 1.52-1.52-3.12-3.1 2-2zM26.62 15.64c-0.617-0.501-1.322-0.931-2.082-1.258l-0.058-0.022c-1.006-0.418-2.175-0.661-3.4-0.661-5.015 0-9.080 4.065-9.080 9.080 0 0 0 0 0 0.001v-0c0.004 2.867 1.349 5.42 3.441 7.065l0.019 0.015c1.517 1.245 3.477 2 5.614 2 0.016 0 0.032-0 0.048-0h-0.002c0.005 0 0.010 0 0.016 0 5.015 0 9.080-4.065 9.080-9.080 0-2.9-1.36-5.483-3.476-7.145l-0.020-0.015zM26.62 26.9c-1.282 1.719-3.31 2.82-5.595 2.82-3.844 0-6.96-3.116-6.96-6.96 0-3.842 3.113-6.957 6.955-6.96h0c1.278 0.005 2.471 0.361 3.49 0.977l-0.030-0.017c2.107 1.213 3.502 3.452 3.502 6.017 0 1.553-0.512 2.986-1.375 4.141l0.013-0.018z"/>
</symbol></defs></svg>