<svg aria-hidden="true" style="position: absolute; width: 0; height: 0; overflow: hidden;" version="1.1" xmlns="http://www.w3.org/2000/svg" xmlns:xlink="http://www.w3.org/1999/xlink"><defs><symbol id="dds__recycle-bin" viewBox="0 0 32 32">
<title>dds__recycle-bin</title>
<path d="M15.74 12.18v0c0.395-0.64 0.928-1.16 1.559-1.529l0.021-0.011h-3.48c-0.122 0.053-0.219 0.143-0.279 0.257l-0.001 0.003-2 3.36 2.16 1.36 2-3.42zM16.76 12.14l-0.38 0.54s1.48 2.78 1.48 2.78l-1.24 0.88 3.6 0.1 1.3-3.56-1.28 0.9-1.080-1.9c-0.194-0.344-0.522-0.593-0.911-0.678l-0.009-0.002c-0.622 0.092-1.147 0.441-1.475 0.932l-0.005 0.008zM9.22 19.1c-0.13 0.199-0.208 0.443-0.208 0.705 0 0.148 0.025 0.291 0.071 0.424l-0.003-0.009c0.353 0.48 0.907 0.795 1.536 0.82l0.004 0h0.68l1.64-2.68 1.4 0.64-1.84-3.16-3.6 0.7 1.42 0.66zM21.66 16.68l-2.26 1.18 0.5 0.86 1.22 2.12 0.26 0.46c0.103 0.174 0.204 0.378 0.289 0.59l0.011 0.030c0.153 0.327 0.242 0.71 0.242 1.114 0 0.122-0.008 0.242-0.024 0.36l0.002-0.014 1.74-3.020c0.011-0.048 0.018-0.103 0.018-0.16s-0.007-0.112-0.019-0.165l0.001 0.005zM20.64 21.76h-3.020l-0.14-1.52-1.86 3.12 2.38 2.84-0.14-1.54h2.14c0.017 0.001 0.036 0.001 0.056 0.001 0.395 0 0.747-0.179 0.982-0.459l0.002-0.002c0.118-0.256 0.187-0.555 0.187-0.87s-0.069-0.614-0.192-0.883l0.005 0.013c-0.141-0.279-0.274-0.509-0.418-0.73l0.018 0.030zM10.14 21.7c-0.519-0.035-0.987-0.225-1.365-0.524l0.005 0.004 1.74 3.020c0.085 0.055 0.188 0.092 0.298 0.1l0.002 0h4v-2.54h-3.4c-0.54-0.020-1.040-0.020-1.28-0.060zM30 3.76c0-3.58-11.68-3.76-14-3.76s-13.9 0.18-13.9 3.76c-0.005 0.036-0.007 0.078-0.007 0.12s0.003 0.084 0.008 0.125l-0.001-0.005 6.2 28h15.4zM16 2.12c6.56 0 10.5 1 11.58 1.64-1.080 0.66-5.020 1.66-11.58 1.66s-10.5-1-11.58-1.66c1.080-0.64 5.020-1.64 11.58-1.64zM22 29.88h-12l-5.22-23.68c3.164 0.855 6.798 1.345 10.545 1.345 0.237 0 0.474-0.002 0.71-0.006l-0.036 0c0.201 0.003 0.437 0.005 0.675 0.005 3.748 0 7.381-0.491 10.839-1.412l-0.293 0.066-5.22 23.68z"/>
</symbol></defs></svg>