<svg aria-hidden="true" style="position: absolute; width: 0; height: 0; overflow: hidden;" version="1.1" xmlns="http://www.w3.org/2000/svg" xmlns:xlink="http://www.w3.org/1999/xlink"><defs><symbol id="dds__speaker-double" viewBox="0 0 32 32">
<title>dds__speaker-double</title>
<path d="M0 32h15.020v-32h-15.020zM2.14 2.14h10.76v27.72h-10.76zM16.98 0v32h15.020v-32zM29.86 29.86h-10.76v-27.72h10.76zM24.48 20.34c-0.917 0-1.66 0.743-1.66 1.66s0.743 1.66 1.66 1.66 1.66-0.743 1.66-1.66c0-0.007-0-0.014-0-0.021v0.001c0-0 0-0 0-0 0-0.906-0.734-1.64-1.64-1.64-0.007 0-0.014 0-0.021 0h0.001zM24.48 14.76c2.32 0 4.2-1.88 4.2-4.2s-1.88-4.2-4.2-4.2c-2.32 0-4.2 1.88-4.2 4.2v0c0.011 2.315 1.885 4.189 4.199 4.2h0.001zM24.48 8.48c1.105 0 2 0.895 2 2s-0.895 2-2 2c-1.105 0-2-0.895-2-2v0c0-1.105 0.895-2 2-2v0zM7.52 20.34c-0.006-0-0.013-0-0.020-0-0.917 0-1.66 0.743-1.66 1.66s0.743 1.66 1.66 1.66c0.917 0 1.66-0.743 1.66-1.66 0-0.007-0-0.014-0-0.021v0.001c-0.011-0.901-0.739-1.629-1.639-1.64h-0.001zM7.52 6.36c-2.32 0-4.2 1.88-4.2 4.2s1.88 4.2 4.2 4.2c2.32 0 4.2-1.88 4.2-4.2v0c-0.011-2.315-1.885-4.189-4.199-4.2h-0.001zM7.52 12.64c-1.105 0-2-0.895-2-2s0.895-2 2-2c1.105 0 2 0.895 2 2v0c0 1.105-0.895 2-2 2v0z"/>
</symbol></defs></svg>