<svg aria-hidden="true" style="position: absolute; width: 0; height: 0; overflow: hidden;" version="1.1" xmlns="http://www.w3.org/2000/svg" xmlns:xlink="http://www.w3.org/1999/xlink"><defs><symbol id="dds__brand-dellemc" viewBox="0 0 32 32">
<title>dds__brand-dellemc</title>
<path d="M30.093 18.54c0.053 0.006 0.114 0.009 0.176 0.009 0.898 0 1.638-0.681 1.73-1.555l0.001-0.008-0.073-0.067h-0.28l-0.073 0.067c-0.066 0.681-0.635 1.209-1.328 1.209-0.054 0-0.107-0.003-0.159-0.009l0.006 0.001c-1.060 0-1.833-0.773-1.833-2.187s0.773-2.187 1.833-2.187c0.048-0.006 0.104-0.010 0.161-0.010 0.667 0 1.219 0.49 1.318 1.129l0.001 0.007 0.073 0.073h0.28l0.073-0.073c-0.127-0.847-0.849-1.49-1.722-1.49-0.065 0-0.129 0.004-0.193 0.011l0.008-0.001c-1.2 0-2.26 0.847-2.26 2.54s1.060 2.54 2.26 2.54zM26.987 18.4v-4.8l-0.073-0.073h-0.493l-0.073 0.073-1.833 4.307h-0.073l-1.833-4.307-0.073-0.073h-0.493l-0.067 0.073v4.8l0.067 0.073h0.287l0.067-0.073v-4.093h0.073l1.767 4.093 0.067 0.073h0.367l0.073-0.073 1.767-4.093h0.067v4.093l0.073 0.073h0.28zM21.053 18.4v-0.213l-0.073-0.067h-2.613l-0.067-0.073v-1.833l0.067-0.073h2.473l0.073-0.067v-0.213l-0.073-0.073h-2.473l-0.067-0.067v-1.767l0.067-0.073h2.613l0.073-0.067v-0.213l-0.073-0.073h-3.033l-0.073 0.073v4.8l0.073 0.073h3.033z"/>
<path d="M16.753 17.487v0.987h-3.193v-4.947h1.107v3.96zM13.56 13.527h1.107zM2 18.473c0 0 0 0 0 0 1.147 0 2.112-0.779 2.396-1.836l0.004-0.017 2.793 2.187 2.807-2.18v1.847h3.193v-0.987h-2.067v-3.96h-1.127v1.847l-2.667 2.1-0.6-0.473 1.267-1 1.4-1.093-0.8-0.62-2.667 2.093-0.6-0.467 2.667-2.1-0.8-0.62-2.8 2.187c-0.288-1.075-1.253-1.853-2.4-1.853-0 0-0 0-0.001 0h-2v4.947zM1.12 17.487v-2.973h0.88c0.762 0.074 1.352 0.712 1.352 1.487s-0.591 1.412-1.346 1.486l-0.006 0z"/>
</symbol></defs></svg>