<svg aria-hidden="true" style="position: absolute; width: 0; height: 0; overflow: hidden;" version="1.1" xmlns="http://www.w3.org/2000/svg" xmlns:xlink="http://www.w3.org/1999/xlink"><defs><symbol id="dds__device-lock-screen" viewBox="0 0 32 32">
<title>dds__device-lock-screen</title>
<path d="M29.78 19.84v-16.6h-27.68v8.76c0.611-0.46 1.322-0.828 2.091-1.067l0.049-0.013v-5.56h23.42v14.48h-13.66v2.16h15.48l-0.2 1.34h-15.28v2.14h17.1l0.9-5.64zM10.42 17.12c0-0 0-0 0-0 0-2.419-1.961-4.38-4.38-4.38-0.014 0-0.028 0-0.042 0l0.002-0c-0.656 0.004-1.274 0.159-1.824 0.431l0.024-0.011c-0.934 0.404-1.677 1.103-2.129 1.976l-0.011 0.024c-0.267 0.543-0.429 1.182-0.44 1.856l-0 0.004v2.44h-1.62v9.3h12v-9.3h-1.58v-2.34zM3.8 17.12c0.012-0.477 0.176-0.913 0.444-1.265l-0.004 0.005c0.385-0.578 1.026-0.959 1.757-0.98l0.003-0c0.012-0 0.026-0 0.040-0 1.237 0 2.24 1.003 2.24 2.24 0 0 0 0 0 0v-0 2.34h-4.48zM9.8 23.32v3.32h-7.68v-5.060h7.68v1.74z"/>
</symbol></defs></svg>