<svg aria-hidden="true" style="position: absolute; width: 0; height: 0; overflow: hidden;" version="1.1" xmlns="http://www.w3.org/2000/svg" xmlns:xlink="http://www.w3.org/1999/xlink"><defs><symbol id="dds__user-disable" viewBox="0 0 32 32">
<title>dds__user-disable</title>
<path d="M13.4 16.96l2.4-1.62c-3.218-0.122-5.78-2.76-5.78-5.996 0-3.314 2.686-6 6-6 3.312 0 5.998 2.684 6 5.996v0c-0.008 0.721-0.147 1.407-0.394 2.039l0.014-0.039 2.36-1.56c0.005-0.063 0.007-0.136 0.007-0.21s-0.003-0.147-0.008-0.22l0.001 0.010c-0.020-4.404-3.594-7.966-8-7.966-4.418 0-8 3.582-8 8 0 3.487 2.231 6.453 5.344 7.548l0.056 0.017zM8.84 19.2c0.191 0.141 0.407 0.274 0.634 0.388l0.026 0.012 2-1.28c-0.717-0.341-1.334-0.735-1.897-1.193l0.017 0.013-0.58-0.48-0.64 0.4c-2.505 1.743-4.429 4.164-5.525 6.997l-0.035 0.103 3.72-2.5c0.652-0.942 1.405-1.752 2.258-2.443l0.022-0.017zM22.96 18.94c2.602 2.238 4.466 5.269 5.221 8.714l0.019 0.106h-18.2l-3.060 2h23.62l-0.12-1.14c-0.553-4.369-2.661-8.165-5.741-10.884l-0.019-0.016zM30.84 8.16l-30.84 20.84 1.16 1.7 30.84-20.84z"/>
</symbol></defs></svg>