<svg aria-hidden="true" style="position: absolute; width: 0; height: 0; overflow: hidden;" version="1.1" xmlns="http://www.w3.org/2000/svg" xmlns:xlink="http://www.w3.org/1999/xlink"><defs><symbol id="dds__paper-clip" viewBox="0 0 32 32">
<title>dds__paper-clip</title>
<path d="M30.14 4l-0.76-0.76c-1.111-1.113-2.647-1.801-4.344-1.801-0.034 0-0.067 0-0.101 0.001l0.005-0c-1.728 0.019-3.288 0.726-4.42 1.86l-0 0-11.66 11.76c-0.841 0.849-1.36 2.017-1.36 3.307 0 0.005 0 0.009 0 0.014v-0.001c0.023 2.561 2.098 4.629 4.659 4.64h0.241c1.211-0.059 2.291-0.576 3.079-1.379l0.001-0.001 8.66-8.72-1.5-1.5-8.64 8.72c-0.458 0.466-1.095 0.757-1.799 0.76h-0.201c-0.665-0.032-1.259-0.308-1.7-0.74l0 0c-0.462-0.46-0.748-1.097-0.748-1.8s0.286-1.34 0.748-1.8l0-0 11.7-11.76c0.747-0.753 1.782-1.22 2.927-1.22 0.005 0 0.009 0 0.014 0h-0.001c1.143 0.011 2.178 0.466 2.941 1.201l-0.001-0.001 0.76 0.74c0.753 0.747 1.22 1.782 1.22 2.927 0 0.005 0 0.009-0 0.014v-0.001c0 0.003 0 0.006 0 0.009 0 1.142-0.458 2.177-1.201 2.932l0.001-0.001-15.040 15.18c-1.139 1.131-2.708 1.831-4.44 1.831s-3.301-0.699-4.44-1.831l0 0-0.74-0.72c-1.148-1.123-1.86-2.688-1.86-4.419 0-0.007 0-0.015 0-0.022v0.001c0.005-1.743 0.715-3.32 1.86-4.46l0-0 12-12.14-1.5-1.5-12 12.14c-1.521 1.523-2.462 3.627-2.462 5.95s0.941 4.427 2.462 5.95l0.76 0.76c1.526 1.556 3.65 2.521 6 2.521s4.474-0.965 5.999-2.52l0.001-0.001 15.040-15.18c1.055-1.112 1.704-2.619 1.704-4.277 0-0.078-0.001-0.156-0.004-0.234l0 0.011c0-0.011 0-0.024 0-0.037 0-1.726-0.712-3.286-1.859-4.401l-0.001-0.001z"/>
</symbol></defs></svg>