<svg aria-hidden="true" style="position: absolute; width: 0; height: 0; overflow: hidden;" version="1.1" xmlns="http://www.w3.org/2000/svg" xmlns:xlink="http://www.w3.org/1999/xlink"><defs><symbol id="dds__wifi-simple" viewBox="0 0 32 32">
<title>dds__wifi-simple</title>
<path d="M31.24 10.44c-3.903-3.894-9.29-6.301-15.24-6.301s-11.337 2.408-15.24 6.302l-0.76 0.76 1.5 1.5 0.76-0.7c3.515-3.519 8.373-5.696 13.74-5.696s10.225 2.177 13.74 5.696l0 0 0.76 0.74 1.5-1.54-0.76-0.76zM16 12.14c-3.56 0.026-6.77 1.498-9.078 3.858l-0.002 0.002-0.76 0.76 1.5 1.5 0.76-0.74c1.935-1.95 4.617-3.156 7.58-3.156s5.645 1.207 7.579 3.156l0.001 0.001 0.76 0.74 1.5-1.5-0.76-0.76c-2.307-2.366-5.52-3.839-9.076-3.86l-0.004-0zM16 19.88c-2.209 0-4 1.791-4 4s1.791 4 4 4c2.209 0 4-1.791 4-4v0c0-2.209-1.791-4-4-4v0zM16 25.74c-0.006 0-0.013 0-0.020 0-1.038 0-1.88-0.842-1.88-1.88s0.842-1.88 1.88-1.88c1.038 0 1.88 0.842 1.88 1.88v0c0 0 0 0 0 0 0 1.031-0.83 1.869-1.859 1.88h-0.001z"/>
</symbol></defs></svg>