<svg aria-hidden="true" style="position: absolute; width: 0; height: 0; overflow: hidden;" version="1.1" xmlns="http://www.w3.org/2000/svg" xmlns:xlink="http://www.w3.org/1999/xlink"><defs><symbol id="dds__undo-move" viewBox="0 0 32 32">
<title>dds__undo-move</title>
<path d="M16 4.22c-4.977 0.021-9.339 2.636-11.806 6.562l-0.034 0.058v-10.84h-2.16v14.7h14.76v-2.14h-11.080c2.020-3.752 5.921-6.26 10.406-6.26 6.506 0 11.78 5.274 11.78 11.78s-5.274 11.78-11.78 11.78c-0.030 0-0.061-0-0.091-0l0.005 0v2.14c0.157 0.006 0.342 0.010 0.527 0.010 7.677 0 13.9-6.223 13.9-13.9s-6.223-13.9-13.9-13.9c-0.185 0-0.37 0.004-0.554 0.011l0.026-0.001z"/>
</symbol></defs></svg>