<svg aria-hidden="true" style="position: absolute; width: 0; height: 0; overflow: hidden;" version="1.1" xmlns="http://www.w3.org/2000/svg" xmlns:xlink="http://www.w3.org/1999/xlink"><defs><symbol id="dds__hinge" viewBox="0 0 32 32">
<title>dds__hinge</title>
<path d="M16.38 27.36h2.82c-1.752 1.453-4.023 2.336-6.499 2.34h-0.001c-0.003 0-0.007 0-0.010 0-5.755 0-10.42-4.665-10.42-10.42 0-2.984 1.255-5.676 3.265-7.575l0.005-0.005-0.94-2.24c-2.819 2.353-4.6 5.869-4.6 9.8 0 7.022 5.681 12.717 12.697 12.74h0.002c0.007 0 0.016 0 0.024 0 3.036 0 5.821-1.072 7.998-2.858l-0.022 0.018v2.42h2.28v-6.52h-6.6v2.3zM25.36 18.56h-12l-7.66-18.56-2.12 0.86 8.14 20h20.28v-2.3zM12 9.42l2.2 2.96 1.8-1.38-1.48-2c3.835 0.758 6.872 3.541 7.981 7.166l0.019 0.074h2.4c-1.217-4.911-5.177-8.643-10.124-9.509l-0.076-0.011 2.18-1.64-1.38-1.84-5.2 4 1.68 2.18z"/>
</symbol></defs></svg>