<svg aria-hidden="true" style="position: absolute; width: 0; height: 0; overflow: hidden;" version="1.1" xmlns="http://www.w3.org/2000/svg" xmlns:xlink="http://www.w3.org/1999/xlink"><defs><symbol id="dds__brand-ms-teams" viewBox="0 0 32 32">
<title>dds__brand-ms-teams</title>
<path d="M30.86 7.42c0-0.006 0-0.013 0-0.020 0-1.9-1.54-3.44-3.44-3.44s-3.44 1.54-3.44 3.44c0 1.9 1.54 3.44 3.44 3.44 0.007 0 0.014-0 0.021-0h-0.001c1.884-0.011 3.409-1.536 3.42-3.419v-0.001z"/>
<path d="M14.54 5.88c0.006-0 0.013-0 0.020-0 1.893 0 3.429 1.529 3.44 3.419v1.121c2.059-0.513 3.56-2.345 3.56-4.528 0-2.574-2.086-4.66-4.66-4.66-2.57 0-4.653 2.080-4.66 4.648v0.001h2.3z"/>
<path d="M16 22.42v-13.12c-0.011-0.78-0.64-1.409-1.419-1.42h-13.161c-0.784 0-1.42 0.636-1.42 1.42v0 13.12c0 0.784 0.636 1.42 1.42 1.42v0h13.12c0.012 0 0.026 0.001 0.040 0.001 0.784 0 1.42-0.636 1.42-1.42 0-0 0-0 0-0.001v0zM12 12.82h-3.020v8h-2v-8h-2.98v-2h8z"/>
<path d="M30.3 11.88h-3.64c0.152 0.34 0.24 0.738 0.24 1.155 0 0.009-0 0.017-0 0.026v-0.001 9.74c-0.020 1.042-0.194 2.037-0.5 2.972l0.020-0.072h0.5c0 0 0 0 0 0 2.792 0 5.057-2.252 5.080-5.038v-7.082c0-0.939-0.761-1.7-1.7-1.7v0z"/>
<path d="M23.72 11.88h-5.72v10.54c-0.011 1.884-1.536 3.409-3.419 3.42h-5.061c1.24 2.91 4.076 4.912 7.38 4.912 4.402 0 7.973-3.555 8-7.95v-9.743c0-0.006 0-0.013 0-0.020 0-0.641-0.519-1.16-1.16-1.16-0.007 0-0.014 0-0.021 0h0.001z"/>
</symbol></defs></svg>