<svg aria-hidden="true" style="position: absolute; width: 0; height: 0; overflow: hidden;" version="1.1" xmlns="http://www.w3.org/2000/svg" xmlns:xlink="http://www.w3.org/1999/xlink"><defs><symbol id="dds__tag-deal" viewBox="0 0 32 32">
<title>dds__tag-deal</title>
<path d="M8.1 4.66l-8 8v6.58l8.1 8.1h23.8v-22.68zM29.8 25.14h-20.8l-6.8-6.8v-4.68l6.8-6.8h20.8v18.28zM8 16c0 0.983-0.797 1.78-1.78 1.78s-1.78-0.797-1.78-1.78c0-0.983 0.797-1.78 1.78-1.78v0c0.983 0 1.78 0.797 1.78 1.78v0zM27.66 20h-2.2v0.94h-1.78v2.2h4zM25.46 12.1h2.2v-3.2h-4v2.2h1.78zM11.1 14.46h2.2v3.12h-2.2zM15 20.9h-1.7v-0.9h-2.2v3.14h4zM17.36 8.9h4v2.2h-4zM13.3 11.1h1.7v-2.2h-3.9v3.2h2.2zM25.46 14.46h2.2v3.12h-2.2zM17.36 20.9h4v2.2h-4z"/>
</symbol></defs></svg>