<svg aria-hidden="true" style="position: absolute; width: 0; height: 0; overflow: hidden;" version="1.1" xmlns="http://www.w3.org/2000/svg" xmlns:xlink="http://www.w3.org/1999/xlink"><defs><symbol id="dds__doc-settings" viewBox="0 0 32 32">
<title>dds__doc-settings</title>
<path d="M4.14 29.86v-20.48h8v-7.26h11.72v8.72l2.14-1.060v-9.78h-16.12l-7.88 7.46v24.54h9.88l-2.16-2.14zM10 2.8v4.46h-4.68zM30 22.98v-3.7l-2.78-0.94-0.24-0.64 1.3-2.76-2.62-2.6-2.74 1.34-0.62-0.22-1.040-2.94h-3.76l-0.94 2.94-0.56 0.24-3-1.46-2.66 2.62 1.5 2.84-0.32 0.62-3.020 1.060v3.74l3.080 0.88 0.26 0.6-1.4 2.9 2.66 2.7 2.9-1.46 0.64 0.28 0.28 0.84 0.68 2.14h3.82l0.94-2.98 0.64-0.28 2.74 1.26 0.26-0.26 2.38-2.36-1.38-2.74 0.2-0.6 2.8-1.040zM26 22.18l-0.54 0.2-0.74 2.42 1.060 2.12-0.48 0.5-2.28-1.020-2.4 1.020-0.76 2.44h-0.74l-0.82-2.4-2.42-1.1-2.38 1.24-0.48-0.46 1.18-2.4-1.060-2.42-2.5-0.78v-0.64l2.4-0.9 1.2-2.38-1.28-2.4 0.46-0.44 2.44 1.22 2.44-0.96 0.76-2.42h0.7l0.88 2.52 2.44 0.86 2.16-1.060 0.48 0.48-1.060 2.22 0.94 2.36 2.26 0.78v0.7zM19.24 17.1c-2.278 0.011-4.12 1.861-4.12 4.14 0 2.286 1.854 4.14 4.14 4.14s4.14-1.854 4.14-4.14v0c-0.011-2.289-1.869-4.14-4.16-4.14-0 0-0 0-0 0v0zM19.24 23.26c-1.105 0-2-0.895-2-2s0.895-2 2-2c1.105 0 2 0.895 2 2v0c0 1.105-0.895 2-2 2v0z"/>
</symbol></defs></svg>