<svg aria-hidden="true" style="position: absolute; width: 0; height: 0; overflow: hidden;" version="1.1" xmlns="http://www.w3.org/2000/svg" xmlns:xlink="http://www.w3.org/1999/xlink"><defs><symbol id="dds__disc-recovery" viewBox="0 0 32 32">
<title>dds__disc-recovery</title>
<path d="M16 0c-5.475 0.025-10.298 2.795-13.164 7.005l-0.036 0.056-0.8-3.76-2 0.4 1.46 7.32 7.3-1.46-0.42-2-3.74 0.66c2.529-3.681 6.716-6.065 11.46-6.065 7.655 0 13.86 6.205 13.86 13.86s-6.205 13.86-13.86 13.86c-7.655 0-13.86-6.205-13.86-13.86 0-0.005 0-0.011 0-0.016v0.001h-2.2c0 8.837 7.163 16 16 16s16-7.163 16-16c0-8.837-7.163-16-16-16v0zM21.68 16c-0-3.126-2.534-5.66-5.66-5.66s-5.66 2.534-5.66 5.66c0 3.119 2.523 5.649 5.639 5.66h0.001c0.006 0 0.013 0 0.020 0 3.126 0 5.66-2.534 5.66-5.66 0 0 0-0 0-0v0zM12.52 16c0-1.944 1.576-3.52 3.52-3.52s3.52 1.576 3.52 3.52-1.576 3.52-3.52 3.52c-0.014 0-0.028-0-0.042-0l0.002 0c-1.922-0.034-3.469-1.594-3.48-3.519v-0.001z"/>
</symbol></defs></svg>