<svg aria-hidden="true" style="position: absolute; width: 0; height: 0; overflow: hidden;" version="1.1" xmlns="http://www.w3.org/2000/svg" xmlns:xlink="http://www.w3.org/1999/xlink"><defs><symbol id="dds__mouse-cord" viewBox="0 0 32 32">
<title>dds__mouse-cord</title>
<path d="M14.94 9.3h2.12v5.16h-2.12zM17.16 4.94h-0.1v-4.94h-2.12v4.94c-0.024-0-0.052-0-0.080-0-3.528 0-6.389 2.854-6.4 6.379v14.281c0 0 0 0 0 0 0 3.528 2.854 6.389 6.379 6.4h2.321c3.526-0.011 6.38-2.872 6.38-6.4 0 0 0-0 0-0v0-14.28c-0.011-3.519-2.861-6.369-6.379-6.38h-0.001zM21.42 25.6c0 2.353-1.907 4.26-4.26 4.26v0h-2.32c-2.353 0-4.26-1.907-4.26-4.26v0-14.28c0.011-2.344 1.914-4.24 4.26-4.24 0 0 0 0 0 0h2.32c0 0 0 0 0 0 2.346 0 4.249 1.896 4.26 4.239v0.001z"/>
</symbol></defs></svg>