<svg aria-hidden="true" style="position: absolute; width: 0; height: 0; overflow: hidden;" version="1.1" xmlns="http://www.w3.org/2000/svg" xmlns:xlink="http://www.w3.org/1999/xlink"><defs><symbol id="dds__brand-delltechnologies" viewBox="0 0 32 32">
<title>dds__brand-delltechnologies</title>
<path d="M32 16.593c0-0.383-0.213-0.557-0.643-0.64s-0.667-0.13-0.667-0.43c0-0.213 0.17-0.333 0.47-0.333 0.387 0 0.513 0.173 0.513 0.387l0.043 0.043h0.17l0.043-0.043c0-0.43-0.333-0.6-0.77-0.6s-0.727 0.257-0.727 0.557 0.257 0.513 0.667 0.6 0.643 0.127 0.643 0.47c0 0.217-0.13 0.387-0.557 0.387s-0.557-0.213-0.557-0.47l-0.043-0.043h-0.17l-0.043 0.043c0 0.383 0.3 0.667 0.813 0.667s0.813-0.25 0.813-0.593zM30.157 16.167l0.043-0.043v-0.123c0.008-0.048 0.013-0.102 0.013-0.158 0-0.523-0.424-0.947-0.947-0.947s-0.947 0.424-0.947 0.947c0 0.056 0.005 0.111 0.014 0.164l-0.001-0.006v0.087c0 0.6 0.3 1.113 1 1.113 0.026 0.003 0.055 0.005 0.085 0.005 0.385 0 0.705-0.277 0.771-0.643l0.001-0.005-0.040-0.040h-0.173l-0.043 0.040c-0.063 0.25-0.285 0.432-0.55 0.432-0.017 0-0.035-0.001-0.052-0.002l0.002 0c-0.404-0.009-0.727-0.338-0.727-0.743 0-0.009 0-0.019 0.001-0.028l-0 0.001 0.043-0.043zM29.9 15.953h-1.283l-0.043-0.043c-0.001-0.014-0.002-0.031-0.002-0.048 0-0.379 0.307-0.687 0.687-0.687s0.687 0.307 0.687 0.687c0 0.017-0.001 0.034-0.002 0.050l0-0.002zM28.017 17.107v-2.053l-0.043-0.053h-0.17l-0.043 0.043v2.053l0.043 0.043h0.17zM28.017 14.623v-0.257l-0.043-0.033h-0.17l-0.043 0.043v0.257l0.043 0.043h0.17zM26.39 16.98c-0.43 0-0.687-0.3-0.687-0.9s0.257-0.9 0.687-0.9 0.667 0.3 0.667 0.9-0.257 0.9-0.667 0.9zM27.057 16.85c0 0.557-0.127 1-0.64 1-0.387 0-0.517-0.17-0.56-0.387l-0.040-0.043h-0.15l-0.043 0.043c0.043 0.333 0.3 0.6 0.817 0.6s0.897-0.333 0.897-1.2v-1.81l-0.047-0.053h-0.13l-0.043 0.043-0.043 0.257h-0.043c-0.127-0.203-0.349-0.336-0.602-0.336-0.023 0-0.045 0.001-0.068 0.003l0.003-0c-0.6 0-0.9 0.47-0.9 1.113s0.3 1.113 0.9 1.113c0.019 0.002 0.042 0.003 0.065 0.003 0.253 0 0.475-0.133 0.6-0.333l0.002-0.003zM24.273 15.183c0.43 0 0.727 0.333 0.727 0.9s-0.297 0.9-0.727 0.9-0.727-0.333-0.727-0.9 0.3-0.9 0.727-0.9zM24.273 17.183c0.557 0 1-0.383 1-1.113s-0.43-1.113-1-1.113-1 0.387-1 1.113 0.427 1.113 1 1.113zM23 17.107v-2.91l-0.043-0.043h-0.173l-0.043 0.043v2.91l0.043 0.043h0.173zM21.457 15.18c0.43 0 0.727 0.333 0.727 0.9s-0.297 0.9-0.727 0.9-0.727-0.333-0.727-0.9 0.3-0.9 0.727-0.9zM21.457 17.18c0.557 0 1-0.383 1-1.113s-0.43-1.113-1-1.113-1 0.387-1 1.113 0.43 1.113 1 1.113zM20.213 17.093v-1.27c0-0.557-0.297-0.857-0.77-0.857-0.014-0.001-0.030-0.001-0.046-0.001-0.263 0-0.496 0.131-0.635 0.332l-0.002 0.003h-0.043l-0.050-0.247-0.030-0.053h-0.13l-0.040 0.043v2.053l0.040 0.043h0.16l0.043-0.043v-1.143c0-0.473 0.213-0.773 0.667-0.773 0.333 0 0.557 0.213 0.557 0.643v1.283l0.043 0.043h0.173zM18.030 17.093v-1.27c0-0.557-0.3-0.857-0.77-0.857-0.013-0.001-0.029-0.001-0.045-0.001-0.265 0-0.499 0.131-0.64 0.332l-0.002 0.002h-0.043v-1.103l-0.040-0.043h-0.157l-0.043 0.043v2.91l0.043 0.043h0.173l0.040-0.043v-1.153c0-0.473 0.217-0.773 0.687-0.773 0.333 0 0.557 0.213 0.557 0.643v1.283l0.043 0.043h0.167zM14.363 16.067c0-0.6 0.3-0.9 0.727-0.9 0.018-0.002 0.039-0.003 0.061-0.003 0.299 0 0.546 0.224 0.582 0.514l0 0.003 0.043 0.043h0.17l0.043-0.043c-0.048-0.413-0.396-0.731-0.818-0.731-0.029 0-0.057 0.001-0.085 0.004l0.004-0c-0.557 0-1 0.333-1 1.113s0.427 1.113 1 1.113c0.025 0.003 0.053 0.004 0.082 0.004 0.422 0 0.77-0.318 0.818-0.727l0-0.004-0.043-0.043h-0.18l-0.043 0.043c-0.036 0.292-0.283 0.517-0.582 0.517-0.021 0-0.043-0.001-0.063-0.003l0.003 0c-0.427 0-0.727-0.3-0.727-0.9zM13.883 16.153l0.043-0.043v-0.11c0.002-0.024 0.003-0.051 0.003-0.079 0-0.523-0.424-0.947-0.947-0.947s-0.947 0.424-0.947 0.947c0 0.028 0.001 0.056 0.004 0.083l-0-0.004v0.087c0 0.6 0.3 1.113 1 1.113 0.025 0.003 0.053 0.004 0.082 0.004 0.385 0 0.706-0.277 0.774-0.643l0.001-0.005-0.043-0.040h-0.187l-0.040 0.040c-0.064 0.25-0.287 0.432-0.553 0.432-0.017 0-0.033-0.001-0.049-0.002l0.002 0c-0.405-0.009-0.73-0.34-0.73-0.747 0-0.008 0-0.017 0-0.025l-0 0.001 0.037-0.050zM13.627 15.94h-1.293l-0.043-0.043c-0.001-0.014-0.002-0.031-0.002-0.048 0-0.379 0.307-0.687 0.687-0.687s0.687 0.307 0.687 0.687c0 0.017-0.001 0.034-0.002 0.050l0-0.002zM12.47 14.333v-0.127l-0.040-0.043h-2.23l-0.043 0.043v0.127l0.043 0.043h0.943l0.043 0.043v2.697l0.043 0.043h0.17l0.043-0.043v-2.707l0.043-0.043h0.943z"/>
<path d="M10.157 16.557v0.593h-1.933v-3h0.667v2.403zM1.217 17.15c0.693-0 1.276-0.471 1.448-1.11l0.002-0.011 1.697 1.333 1.693-1.333v1.12h1.943v-0.593h-1.26v-2.403h-0.667v1.12l-1.64 1.27-0.367-0.283 0.78-0.593 0.847-0.667-0.483-0.377-1.627 1.27-0.363-0.287 1.627-1.273-0.483-0.377-1.697 1.317c-0.174-0.649-0.757-1.12-1.45-1.12h-1.217v3zM0.667 16.557v-1.807h0.55c0.466 0.041 0.829 0.43 0.829 0.903s-0.363 0.862-0.826 0.903l-0.003 0z"/>
</symbol></defs></svg>