<svg aria-hidden="true" style="position: absolute; width: 0; height: 0; overflow: hidden;" version="1.1" xmlns="http://www.w3.org/2000/svg" xmlns:xlink="http://www.w3.org/1999/xlink"><defs><symbol id="dds__video-card" viewBox="0 0 32 32">
<title>dds__video-card</title>
<path d="M10.92 16.54c0 3.999 3.241 7.24 7.24 7.24v0c1.21-0.008 2.345-0.318 3.337-0.858l-0.037 0.018c2.188-1.181 3.681-3.401 3.819-5.982l0.001-0.018c0-0.12 0-0.24 0-0.36-0.015-2.508-1.314-4.71-3.272-5.983l-0.028-0.017c-1.090-0.727-2.43-1.16-3.871-1.16-0.010 0-0.020 0-0.030 0h0.002c-0.048-0.001-0.104-0.002-0.161-0.002-3.866 0-7 3.134-7 7 0 0.043 0 0.086 0.001 0.128l-0-0.006zM14.6 20.18c-0.694-0.662-1.194-1.521-1.414-2.487l-0.006-0.033c0.626-0.227 1.352-0.389 2.106-0.458l0.034-0.002c0.073 0.251 0.148 0.457 0.234 0.657l-0.014-0.037c-0.364 0.673-0.684 1.456-0.919 2.275l-0.021 0.085zM21.7 12.86c0.734 0.713 1.254 1.644 1.455 2.688l0.005 0.032c-0.63 0.208-1.359 0.351-2.114 0.399l-0.026 0.001c-0.063-0.281-0.152-0.527-0.269-0.759l0.009 0.019c0.371-0.681 0.692-1.472 0.921-2.3l0.019-0.080zM20.58 18.16c0.901-0.028 1.758-0.158 2.579-0.378l-0.079 0.018c-0.266 1.008-0.806 1.866-1.535 2.516l-0.005 0.004c-0.535-0.481-1.009-1.012-1.42-1.59l-0.020-0.029c0.179-0.16 0.337-0.337 0.473-0.53l0.007-0.010zM18.16 11.42c0.584 0.007 1.139 0.117 1.653 0.311l-0.033-0.011c-0.174 0.763-0.408 1.43-0.706 2.061l0.026-0.061c-0.251-0.079-0.544-0.136-0.846-0.159l-0.014-0.001c-0.449-0.762-0.966-1.419-1.558-1.998l-0.002-0.002c0.348-0.096 0.747-0.151 1.16-0.151 0.113 0 0.224 0.004 0.335 0.012l-0.015-0.001zM18.94 16.54c-0.063 0.384-0.393 0.674-0.79 0.674s-0.727-0.29-0.789-0.669l-0.001-0.005c-0.006-0.038-0.010-0.082-0.010-0.126 0-0.442 0.358-0.8 0.8-0.8s0.8 0.358 0.8 0.8c0 0.045-0.004 0.088-0.011 0.131l0.001-0.005zM17.22 19.28c0.234 0.081 0.507 0.137 0.789 0.159l0.011 0.001c0.463 0.758 0.986 1.414 1.579 1.999l0.001 0.001c-0.428 0.128-0.922 0.207-1.433 0.22l-0.007 0c-0.597-0.007-1.167-0.117-1.695-0.311l0.035 0.011c0.183-0.761 0.43-1.428 0.745-2.054l-0.025 0.054zM14.74 12.76c0.534 0.488 1.008 1.025 1.419 1.609l0.021 0.031c-0.197 0.181-0.369 0.384-0.513 0.608l-0.007 0.012c-0.902 0.048-1.749 0.198-2.557 0.44l0.077-0.020c0.232-1.074 0.786-1.993 1.555-2.676l0.005-0.004zM6.44 5.4v-4.14h-6.44v2.12h4.3v6h-2v5.56h2v3.18h-2v5.62h2v7h2.14v-3.080h25.56v-22.26zM29.86 25.52h-23.42v-18h23.42z"/>
</symbol></defs></svg>