<svg aria-hidden="true" style="position: absolute; width: 0; height: 0; overflow: hidden;" version="1.1" xmlns="http://www.w3.org/2000/svg" xmlns:xlink="http://www.w3.org/1999/xlink"><defs><symbol id="dds__dimensions-weight" viewBox="0 0 32 32">
<title>dds__dimensions-weight</title>
<path d="M23.16 3.86v8.3l2.14 4v-10.16h4.56v2.56h-1.7v2.14h1.7v1.56h-1.7v2.14h1.7v1.6h-1.7v2.1h1.7v1.56h-1.7v2.14h1.7v4.2h-0.96v2.12h3.1v-24.28zM16.88 8v-1.68c0-0.006 0-0.013 0-0.020 0-1.341-1.081-2.429-2.419-2.44h-2.001c-1.359 0-2.46 1.101-2.46 2.46v1.68h-1.74l-8.26 15.82v4.34h26.98v-4.36l-8.24-15.8zM12.22 6.32c0.009-0.166 0.136-0.3 0.298-0.32l0.002-0h2c0.159 0.020 0.281 0.155 0.281 0.318 0 0.008-0 0.016-0.001 0.023l0-0.001v1.66h-2.58zM24.84 26h-22.7v-1.68l7.4-14.18h8l7.4 14.16z"/>
</symbol></defs></svg>