<svg aria-hidden="true" style="position: absolute; width: 0; height: 0; overflow: hidden;" version="1.1" xmlns="http://www.w3.org/2000/svg" xmlns:xlink="http://www.w3.org/1999/xlink"><defs><symbol id="dds__ear" viewBox="0 0 32 32">
<title>dds__ear</title>
<path d="M16 0c-6.104 0.23-10.965 5.233-10.965 11.372 0 0.122 0.002 0.244 0.006 0.365l-0-0.018h2.14c-0.004-0.104-0.007-0.226-0.007-0.349 0-4.958 3.905-9.003 8.806-9.23l0.020-0.001c4.919 0.217 8.825 4.258 8.825 9.212 0 0.108-0.002 0.216-0.006 0.324l0-0.016c-0.364 2.733-1.329 5.186-2.758 7.3l0.038-0.060c-2.58 3.88-4.22 6.4-4.22 6.4-1.66 2.36-3.5 4.56-5.66 4.56-2.209 0-4-1.791-4-4v0h-2.080c0 3.314 2.686 6 6 6v0c3.14 0 5.42-2.62 7.44-5.5 0 0 1.64-2.52 4.24-6.42 1.606-2.367 2.698-5.208 3.052-8.273l0.008-0.087c0.001-0.063 0.002-0.137 0.002-0.211 0-6.11-4.815-11.095-10.857-11.368l-0.025-0.001zM16 6.92c2.297 0 4.16 1.863 4.16 4.16h2.14c0-3.479-2.821-6.3-6.3-6.3s-6.3 2.821-6.3 6.3v0c-0 0.017-0 0.037-0 0.057 0 2.153 1.104 4.047 2.777 5.149l0.023 0.014 0.96 0.82-2.88 4.52 1.8 1.16 4-6.1-2.62-2.12c-1.157-0.752-1.912-2.038-1.912-3.5 0-2.295 1.858-4.155 4.151-4.16h0z"/>
</symbol></defs></svg>