<svg aria-hidden="true" style="position: absolute; width: 0; height: 0; overflow: hidden;" version="1.1" xmlns="http://www.w3.org/2000/svg" xmlns:xlink="http://www.w3.org/1999/xlink"><defs><symbol id="dds__column-add" viewBox="0 0 32 32">
<title>dds__column-add</title>
<path d="M10.38 29.86h-3.84v-27.72h9.78v10.72c0.625-0.16 1.351-0.267 2.098-0.299l0.022-0.001v-12.56h-14v32h8.1c-0.828-0.614-1.54-1.32-2.141-2.114l-0.019-0.026zM20 14.74c-0.168-0.014-0.363-0.022-0.56-0.022s-0.392 0.008-0.585 0.023l0.025-0.002c-0.019-0-0.042-0-0.064-0-4.783 0-8.66 3.877-8.66 8.66 0 4.425 3.319 8.075 7.603 8.596l0.042 0.004c0.171 0.014 0.369 0.022 0.57 0.022s0.399-0.008 0.596-0.024l-0.026 0.002c0.013 0 0.028 0 0.043 0 4.783 0 8.66-3.877 8.66-8.66 0-4.424-3.318-8.074-7.602-8.596l-0.042-0.004zM23.78 27.66c-1.207 1.352-2.954 2.2-4.9 2.2h-0.86c-3.412-0.248-6.086-3.076-6.086-6.53 0-3.615 2.931-6.546 6.546-6.546 0.162 0 0.322 0.006 0.481 0.017l-0.021-0.001h0.86c3.201 0.461 5.633 3.185 5.633 6.477 0 1.661-0.619 3.177-1.639 4.33l0.006-0.007zM23.4 22.26h-3.4v-3.4h-2.16v3.4h-3.38v2.14h3.38v3.4h2.16v-3.4h3.4z"/>
</symbol></defs></svg>