<svg aria-hidden="true" style="position: absolute; width: 0; height: 0; overflow: hidden;" version="1.1" xmlns="http://www.w3.org/2000/svg" xmlns:xlink="http://www.w3.org/1999/xlink"><defs><symbol id="dds__power-supply-cord" viewBox="0 0 32 32">
<title>dds__power-supply-cord</title>
<path d="M25.3 18h-0.68c-3.58 0-5.22 3.16-6.62 6s-2.78 5.32-5.74 5.32h-0.7c-2.539-0.045-4.58-2.114-4.58-4.659 0-0.021 0-0.043 0-0.064l-0 0.003v-6.6c2.85-0.398 5.020-2.819 5.020-5.747 0-0.018-0-0.037-0-0.055l0 0.003v-6.42h-1.74v-5.24h-2.14v5.24h-4.3v-5.24h-2.12v5.24h-1.7v6.42c-0.001 0.029-0.001 0.063-0.001 0.097 0 2.861 2.078 5.236 4.807 5.698l0.034 0.005v6.6c-0 0.012-0 0.026-0 0.040 0 3.712 2.993 6.726 6.697 6.76l0.003 0h0.68c4.26 0 6-3.44 7.64-6.48s2.62-4.76 4.76-4.76h0.68c2.528 0.045 4.561 2.105 4.561 4.639 0 0.028-0 0.057-0.001 0.085l0-0.004v6.58h2.14v-6.58c0.001-0.036 0.001-0.078 0.001-0.12 0-3.713-2.993-6.726-6.698-6.76l-0.003-0zM2.14 12.2v-4.2h7.68v4.2c0.002 0.049 0.004 0.105 0.004 0.163 0 1.962-1.553 3.562-3.497 3.637l-0.007 0h-0.68c-1.951-0.075-3.504-1.675-3.504-3.637 0-0.057 0.001-0.114 0.004-0.171l-0 0.008z"/>
</symbol></defs></svg>