<svg aria-hidden="true" style="position: absolute; width: 0; height: 0; overflow: hidden;" version="1.1" xmlns="http://www.w3.org/2000/svg" xmlns:xlink="http://www.w3.org/1999/xlink"><defs><symbol id="dds__usb" viewBox="0 0 32 32">
<title>dds__usb</title>
<path d="M23.58 6.54v-6.54h-15.16v6.54h-3.64v7.040c-0 0.010-0 0.023-0 0.035 0 2.445 1.714 4.49 4.006 4.998l0.034 0.006v5.82h6v7.56h2.24v-7.56h6v-5.82c2.375-0.476 4.14-2.544 4.14-5.025 0-0.005 0-0.010-0-0.015v0.001-7.040h-3.62zM10.56 2.14h10.9v4.4h-10.9zM25.080 13.58c0 0.005 0 0.011 0 0.017 0 1.452-1.031 2.663-2.401 2.94l-0.019 0.003-1.72 0.34v5.42h-10v-5.42l-1.7-0.34c-1.379-0.289-2.4-1.495-2.4-2.939 0-0 0-0 0-0.001v0-4.92h18.24v4.9z"/>
</symbol></defs></svg>