<svg aria-hidden="true" style="position: absolute; width: 0; height: 0; overflow: hidden;" version="1.1" xmlns="http://www.w3.org/2000/svg" xmlns:xlink="http://www.w3.org/1999/xlink"><defs><symbol id="dds__audio-speaker-on" viewBox="0 0 32 32">
<title>dds__audio-speaker-on</title>
<path d="M6 11h-5.36v10h5.36l6.5 7.2 4.32 0.82v-26l-4.32 0.78-6.5 7.2zM14.68 5.56v20.9l-1.080-0.22-6.64-7.3h-4.2v-5.82h4.2l6.64-7.36zM22.48 0.9l-1.020 1.78c4.652 2.693 7.731 7.647 7.731 13.32s-3.079 10.627-7.658 13.281l-0.074 0.039 1.020 1.78c5.279-3.050 8.774-8.667 8.774-15.1s-3.495-12.050-8.691-15.055l-0.084-0.045zM25 16c0-0.031 0-0.067 0-0.104 0-3.775-1.922-7.1-4.841-9.052l-0.040-0.025-1.080 1.74c2.423 1.589 4 4.293 4 7.365 0 0.026-0 0.053-0 0.079l0-0.004c0 0.035 0.001 0.077 0.001 0.118 0 3.010-1.518 5.666-3.831 7.242l-0.030 0.020 1.1 1.72c2.867-1.98 4.721-5.247 4.721-8.948 0-0.053-0-0.107-0.001-0.16l0 0.008z"/>
</symbol></defs></svg>