<svg aria-hidden="true" style="position: absolute; width: 0; height: 0; overflow: hidden;" version="1.1" xmlns="http://www.w3.org/2000/svg" xmlns:xlink="http://www.w3.org/1999/xlink"><defs><symbol id="dds__gift-card" viewBox="0 0 32 32">
<title>dds__gift-card</title>
<path d="M6.68 8.92c-1 0.12-1.7 0.94-2 2.46-0.135 0.411-0.213 0.885-0.213 1.377 0 1.044 0.351 2.006 0.941 2.774l-0.008-0.011c1.058 1.027 2.503 1.661 4.096 1.661 0.037 0 0.073-0 0.11-0.001l-0.005 0-2.84 4.26 1.78 1.18 3.16-4.74 3.16 4.74 1.78-1.18-2.84-4.26c0.043 0.001 0.094 0.002 0.144 0.002 1.581 0 3.013-0.634 4.056-1.662l-0.001 0.001c0.611-0.764 0.98-1.744 0.98-2.81 0-0.474-0.073-0.932-0.209-1.362l0.009 0.032q-0.54-2.28-2-2.46c-1.78-0.22-3.66 2.34-5.020 4.72-1.46-2.38-3.38-4.94-5.080-4.72zM7.020 14.12c-0.28-0.4-0.447-0.897-0.447-1.433 0-0.304 0.054-0.595 0.152-0.865l-0.006 0.018c0.12-0.5 0.24-0.72 0.24-0.78 1.273 1.098 2.3 2.444 3.010 3.967l0.030 0.072c-0.102 0.009-0.221 0.015-0.34 0.015-1.014 0-1.939-0.377-2.644-0.998l0.004 0.004zM16.34 10.98c0.167 0.244 0.286 0.535 0.338 0.847l0.002 0.013c0.089 0.25 0.14 0.538 0.14 0.839 0 0.538-0.164 1.037-0.446 1.45l0.006-0.009c-0.702 0.622-1.63 1.001-2.647 1.001-0.145 0-0.289-0.008-0.43-0.023l0.018 0.002c0.777-1.604 1.79-2.968 3.012-4.113l0.008-0.007zM13.5 4h-13.5v24h32v-24zM29.86 14.94h-9.14c-0.252 0.772-0.635 1.438-1.126 2.007l0.006-0.007c-0.048 0.052-0.1 0.098-0.157 0.138l-0.003 0.002h10.42v8.8h-17.1v-2.56l-1.060-1.6-1.060 1.6v2.54h-8.5v-8.8h1.86c-0.060-0.042-0.112-0.088-0.159-0.139l-0.001-0.001c-0.485-0.562-0.868-1.228-1.108-1.959l-0.012-0.041h-0.58v-8.78h8.52v2.48c0.365 0.358 0.705 0.736 1.021 1.135l0.019 0.025c0.36-0.44 0.7-0.82 1.040-1.16v-2.48h17.12v8.8z"/>
</symbol></defs></svg>