<svg aria-hidden="true" style="position: absolute; width: 0; height: 0; overflow: hidden;" version="1.1" xmlns="http://www.w3.org/2000/svg" xmlns:xlink="http://www.w3.org/1999/xlink"><defs><symbol id="dds__chevron-cir-left" viewBox="0 0 32 32">
<title>dds__chevron-cir-left</title>
<path d="M16 0c-8.837 0-16 7.163-16 16s7.163 16 16 16c8.837 0 16-7.163 16-16v0c0-8.837-7.163-16-16-16v0zM16 29.86c-7.655 0-13.86-6.205-13.86-13.86s6.205-13.86 13.86-13.86c7.655 0 13.86 6.205 13.86 13.86v0c-0.011 7.65-6.21 13.849-13.859 13.86h-0.001zM19.64 6.48l-9.54 9.52 9.54 9.54 1.5-1.52-8-8 8-8z"/>
</symbol></defs></svg>