<svg aria-hidden="true" style="position: absolute; width: 0; height: 0; overflow: hidden;" version="1.1" xmlns="http://www.w3.org/2000/svg" xmlns:xlink="http://www.w3.org/1999/xlink"><defs><symbol id="dds__chip-set" viewBox="0 0 32 32">
<title>dds__chip-set</title>
<path d="M11.86 20.14h8.28v-8.28h-8.28zM14 14h4v4h-4zM5.24 18h2.76v2.8h-2.76zM5.18 24.54h2.82v2.8h-2.82zM11.46 24.54h2.8v2.8h-2.8zM17.74 24.54h2.8v2.8h-2.8zM24 24.54h2.8v2.8h-2.8zM24 18h2.8v2.8h-2.8zM5.18 11.34h2.82v2.8h-2.82zM5.18 4.74h2.82v2.8h-2.82zM11.46 4.74h2.8v2.8h-2.8zM0 0v32h32v-15l-17-17zM29.86 29.86h-27.72v-27.72h12l15.72 15.86v12zM17.62 0l14.38 14.38v-14.38zM29.86 9.22l-7.080-7.080h7.080z"/>
</symbol></defs></svg>