<svg aria-hidden="true" style="position: absolute; width: 0; height: 0; overflow: hidden;" version="1.1" xmlns="http://www.w3.org/2000/svg" xmlns:xlink="http://www.w3.org/1999/xlink"><defs><symbol id="dds__puzzle" viewBox="0 0 32 32">
<title>dds__puzzle</title>
<path d="M28 16.5s0-0.12 0-0.2c0.1-0.311 0.159-0.668 0.16-1.039v-0.001c0-0.005 0-0.012 0-0.018 0-0.938-0.349-1.794-0.924-2.446l0.003 0.004c-0.697-0.851-1.744-1.392-2.919-1.4h-0.001c-0.036-0.001-0.078-0.002-0.12-0.002-2.137 0-3.87 1.727-3.88 3.861v0.001c0 0 0 0.001 0 0.001 0 0.445 0.081 0.871 0.228 1.264l-0.008-0.025h-3.080v2.1h6v-1.78c-0.6-0.277-1.010-0.87-1.020-1.559v-0.001c0.011-0.974 0.804-1.76 1.78-1.76 0 0 0 0 0 0v0c0.002 0 0.003 0 0.005 0 0.542 0 1.025 0.257 1.332 0.656l0.003 0.004c0.246 0.29 0.396 0.667 0.4 1.079v0.001c0 0.12 0 0.2 0 0.3-0.064 0.37-0.235 0.691-0.48 0.94l0-0c-0.135 0.132-0.294 0.24-0.47 0.316l-0.010 0.004v1.8h4.84v11.4h-12.38v2h14.54v-15.5zM15.74 28h0.26c0.33 0.102 0.709 0.161 1.102 0.161 0.946 0 1.813-0.34 2.484-0.905l-0.006 0.005c0.856-0.684 1.4-1.727 1.4-2.898 0-0.001 0-0.001 0-0.002v0c-0.022-2.126-1.751-3.841-3.88-3.841-0.035 0-0.070 0-0.105 0.001l0.005-0c-0.455 0.009-0.887 0.096-1.286 0.249l0.026-0.009v-3.080h-2.14v6h1.82c0.279-0.595 0.873-1 1.562-1 0.006 0 0.013 0 0.019 0h-0.001c0.006-0 0.013-0 0.020-0 0.965 0 1.749 0.777 1.76 1.739v0.001c-0.005 0.537-0.261 1.013-0.656 1.317l-0.004 0.003c-0.304 0.245-0.694 0.396-1.119 0.4h-0.301c-0.368-0.057-0.69-0.222-0.941-0.461l0.001 0.001c-0.133-0.138-0.246-0.296-0.335-0.469l-0.005-0.011h-1.82v4.8h-11.46v-12.32h-2.14v14.32h15.74v-4zM4 15.56s0 0.12 0 0.18c-0.091 0.312-0.143 0.67-0.143 1.040 0 2.119 1.707 3.839 3.821 3.86h0.002c0.042 0.002 0.091 0.003 0.14 0.003 2.126 0 3.85-1.718 3.86-3.842v-0.001c0-0 0-0.001 0-0.001 0-0.445-0.081-0.871-0.228-1.264l0.008 0.025h3.080v-2h-6v1.78c0.603 0.273 1.015 0.868 1.020 1.559v0.001c-0.011 0.963-0.795 1.74-1.76 1.74-0.007 0-0.014-0-0.021-0h0.001c-0.002 0-0.003 0-0.005 0-0.542 0-1.025-0.257-1.332-0.656l-0.003-0.004c-0.273-0.309-0.44-0.717-0.44-1.165 0-0.012 0-0.025 0-0.037l-0 0.002c0-0.1 0-0.18 0-0.28 0.064-0.37 0.235-0.691 0.48-0.94l-0 0c0.135-0.132 0.294-0.24 0.47-0.316l0.010-0.004v-1.8h-4.82v-11.28h12.4v-2.16h-14.54v15.56zM16.26 4h-0.26c-0.33-0.102-0.709-0.161-1.102-0.161-0.946 0-1.813 0.34-2.484 0.905l0.006-0.005c-0.856 0.684-1.4 1.727-1.4 2.898 0 0.001 0 0.001 0 0.002v-0c0.010 2.135 1.743 3.862 3.88 3.862 0.042 0 0.084-0.001 0.126-0.002l-0.006 0c0.455-0.009 0.887-0.096 1.286-0.249l-0.026 0.009v3.060h2.12v-6h-1.8c-0.296 0.597-0.901 1-1.6 1v0c-0.006 0-0.013 0-0.020 0-0.965 0-1.749-0.777-1.76-1.739v-0.001c0.041-0.548 0.339-1.019 0.773-1.296l0.007-0.004c0.304-0.245 0.694-0.396 1.119-0.4h0.001c0.045-0.005 0.097-0.007 0.15-0.007s0.105 0.003 0.157 0.008l-0.007-0c0.368 0.057 0.69 0.222 0.941 0.461l-0.001-0.001c0.133 0.138 0.246 0.296 0.335 0.469l0.005 0.011h1.8v-4.72h11.46v12.22h2.040v-14.32h-15.74z"/>
</symbol></defs></svg>