<svg aria-hidden="true" style="position: absolute; width: 0; height: 0; overflow: hidden;" version="1.1" xmlns="http://www.w3.org/2000/svg" xmlns:xlink="http://www.w3.org/1999/xlink"><defs><symbol id="dds__management-software" viewBox="0 0 32 32">
<title>dds__management-software</title>
<path d="M12.52 29.46l-6.4 0.3v-26.72l17.18-0.8v7.76c0.798 0.096 1.516 0.25 2.208 0.463l-0.088-0.023v-10.44l-21.42 1.020-4 0.38v28.48l4 1.66 1.060 0.4 9.5-0.44c-0.748-0.595-1.405-1.252-1.981-1.975l-0.019-0.025zM4 29.12l-1.78-0.7v-25.080l1.78-0.18zM22 19.32c-1.485 0.023-2.68 1.232-2.68 2.72 0 1.502 1.218 2.72 2.72 2.72s2.72-1.218 2.72-2.72c0-0.014-0-0.028-0-0.042l0 0.002c-0.022-1.485-1.231-2.68-2.72-2.68-0.014 0-0.028 0-0.042 0l0.002-0zM22 22.64c-0.281-0.053-0.491-0.297-0.491-0.59s0.21-0.537 0.487-0.589l0.004-0.001c0.033-0.006 0.071-0.010 0.109-0.010 0.331 0 0.6 0.269 0.6 0.6s-0.269 0.6-0.6 0.6c-0.039 0-0.076-0.004-0.113-0.011l0.004 0.001zM22 12.1c-5.523 0-10 4.477-10 10s4.477 10 10 10c5.523 0 10-4.477 10-10v0c0-5.523-4.477-10-10-10v0zM22 29.88c-4.313-0.023-7.8-3.524-7.8-7.84 0-4.33 3.51-7.84 7.84-7.84 4.316 0 7.817 3.487 7.84 7.798v0.002c0 0.012 0 0.026 0 0.040 0 4.33-3.51 7.84-7.84 7.84-0.014 0-0.028-0-0.042-0h0.002z"/>
</symbol></defs></svg>