<svg aria-hidden="true" style="position: absolute; width: 0; height: 0; overflow: hidden;" version="1.1" xmlns="http://www.w3.org/2000/svg" xmlns:xlink="http://www.w3.org/1999/xlink"><defs><symbol id="dds__airplane" viewBox="0 0 32 32">
<title>dds__airplane</title>
<path d="M32 3.6c0-0.017 0-0.037 0-0.058 0-0.964-0.381-1.84-1.002-2.484l0.001 0.001c-0.665-0.659-1.58-1.066-2.59-1.066s-1.925 0.407-2.59 1.066l-6.22 6.22-15.72-3.56-3.88 3.88 12.68 6.64-5.22 5.18-4.26-0.58-3.2 3.16 6.4 3.58 3.6 6.42 3.16-3.2-0.6-4.26 5.24-5.24 6.64 12.7 3.88-3.88-3.6-15.72 6.22-6.24c0.653-0.656 1.058-1.561 1.060-2.56v-0zM29.44 4.66l-7.060 7.060 3.62 15.72-1 1-6.64-12.7-8 8 0.54 4.26-0.44 0.44-2.46-4.44-4.48-2.46 0.48-0.44 4.24 0.58 8-8-12.68-6.62 1-1 15.72 3.54 7.040-7.040c0.283-0.27 0.667-0.436 1.090-0.436s0.807 0.166 1.091 0.437l-0.001-0.001c0.236 0.258 0.38 0.604 0.38 0.983 0 0.013-0 0.026-0 0.039l0-0.002c-0.016 0.418-0.18 0.794-0.441 1.081l0.001-0.001z"/>
</symbol></defs></svg>