<svg aria-hidden="true" style="position: absolute; width: 0; height: 0; overflow: hidden;" version="1.1" xmlns="http://www.w3.org/2000/svg" xmlns:xlink="http://www.w3.org/1999/xlink"><defs><symbol id="dds__rss" viewBox="0 0 32 32">
<title>dds__rss</title>
<path d="M3.84 26.5c0.919 0.011 1.66 0.759 1.66 1.68 0 0.928-0.752 1.68-1.68 1.68s-1.68-0.752-1.68-1.68v0c0.011-0.93 0.768-1.68 1.7-1.68 0 0 0 0 0 0v0zM3.84 24.36c-2.101 0.011-3.8 1.717-3.8 3.82 0 2.11 1.71 3.82 3.82 3.82s3.82-1.71 3.82-3.82v0c-0.011-2.112-1.726-3.82-3.84-3.82-0 0-0 0-0 0v0zM32 29.86h-2.14c-0.057-15.322-12.49-27.72-27.82-27.72-0.014 0-0.028 0-0.042 0h0.002v-2.14c0 0 0 0 0 0 16.519 0 29.92 13.352 30 29.852l0 0.008zM23.68 29.86h-2.14c-0.034-10.744-8.751-19.44-19.5-19.44-0.014 0-0.028 0-0.042 0h0.002v-2.14c0.006 0 0.013 0 0.020 0 11.934 0 21.614 9.652 21.66 21.576v0.004zM15.62 29.86h-2.14c-0.023-6.312-5.145-11.42-11.46-11.42-0.007 0-0.014 0-0.021 0h0.001v-2.14c0.006 0 0.013 0 0.020 0 7.497 0 13.577 6.066 13.6 13.558v0.002z"/>
</symbol></defs></svg>