<svg aria-hidden="true" style="position: absolute; width: 0; height: 0; overflow: hidden;" version="1.1" xmlns="http://www.w3.org/2000/svg" xmlns:xlink="http://www.w3.org/1999/xlink"><defs><symbol id="dds__web-camera-hd" viewBox="0 0 32 32">
<title>dds__web-camera-hd</title>
<path d="M17.060 4.26h-1.060c-0.006-0-0.013-0-0.020-0-2.607 0-4.72 2.113-4.72 4.72s2.113 4.72 4.72 4.72c2.607 0 4.72-2.113 4.72-4.72 0-0.007 0-0.014-0-0.021v0.001-0.96h-3.64v-3.74zM18.34 10c-0.42 0.889-1.309 1.493-2.34 1.493-1.423 0-2.576-1.151-2.58-2.573v-0c0.010-1.034 0.623-1.923 1.504-2.333l0.016-0.007v3.42zM24.98 8.96c-0.034-4.934-4.041-8.92-8.98-8.92-4.96 0-8.98 4.020-8.98 8.98s4.020 8.98 8.98 8.98v0c0 0 0 0 0 0 4.96 0 8.98-4.020 8.98-8.98 0-0.021-0-0.042-0-0.063l0 0.003zM16 15.8c-3.778 0-6.84-3.062-6.84-6.84s3.062-6.84 6.84-6.84c3.778 0 6.84 3.062 6.84 6.84v0c0 3.778-3.062 6.84-6.84 6.84v0zM12.98 20.26v5.020h-5.88v-5.020h-1.68v11.74h1.68v-5.2h5.88v5.2h1.68v-11.74h-1.68zM26.3 23.72c-0.189-0.713-0.506-1.336-0.928-1.871l0.008 0.011c-0.46-0.517-1.037-0.921-1.69-1.17l-0.030-0.010c-0.719-0.268-1.55-0.423-2.417-0.423-0.071 0-0.142 0.001-0.213 0.003l0.010-0h-3.7v11.74h3.7c0.060 0.002 0.131 0.003 0.203 0.003 0.867 0 1.698-0.155 2.467-0.439l-0.049 0.016c0.687-0.259 1.265-0.67 1.715-1.194l0.005-0.006c0.419-0.516 0.737-1.133 0.913-1.806l0.007-0.034c0.178-0.724 0.28-1.555 0.28-2.41s-0.102-1.686-0.294-2.482l0.015 0.072zM24.7 28c-0.102 0.522-0.319 0.981-0.625 1.367l0.005-0.007c-0.327 0.376-0.745 0.665-1.22 0.834l-0.020 0.006c-0.549 0.179-1.181 0.282-1.837 0.282-0.057 0-0.115-0.001-0.172-0.002l0.008 0h-1.82v-8.72h1.84c0.049-0.001 0.106-0.002 0.163-0.002 0.656 0 1.288 0.103 1.88 0.294l-0.043-0.012c0.498 0.167 0.918 0.458 1.237 0.836l0.003 0.004c0.301 0.379 0.518 0.838 0.617 1.34l0.003 0.020c0.128 0.523 0.201 1.124 0.201 1.742 0 0.049-0 0.097-0.001 0.145l0-0.007c0.001 0.045 0.001 0.097 0.001 0.15 0 0.621-0.073 1.224-0.212 1.802l0.011-0.052z"/>
</symbol></defs></svg>