<svg aria-hidden="true" style="position: absolute; width: 0; height: 0; overflow: hidden;" version="1.1" xmlns="http://www.w3.org/2000/svg" xmlns:xlink="http://www.w3.org/1999/xlink"><defs><symbol id="dds__currency-coins-rupees" viewBox="0 0 32 32">
<title>dds__currency-coins-rupees</title>
<path d="M13.8 6.54c6.44 0 11.66 5.22 11.66 11.66s-5.22 11.66-11.66 11.66c-6.44 0-11.66-5.22-11.66-11.66v0c0-6.44 5.22-11.66 11.66-11.66v0zM13.8 4.4c-7.622 0-13.8 6.178-13.8 13.8s6.178 13.8 13.8 13.8c7.622 0 13.8-6.178 13.8-13.8v0c0-7.622-6.178-13.8-13.8-13.8v0zM18.16 0c-3.115 0.018-5.988 1.035-8.319 2.748l0.040-0.028c1.081-0.294 2.323-0.462 3.604-0.462 0.090 0 0.18 0.001 0.269 0.002l-0.013-0c0.126-0.006 0.274-0.009 0.422-0.009 0.557 0 1.104 0.047 1.635 0.137l-0.057-0.008c0.615-0.16 1.32-0.252 2.048-0.252 0.159 0 0.317 0.004 0.474 0.013l-0.022-0.001c6.414 0.034 11.6 5.241 11.6 11.66 0 0 0 0 0 0v0c-0.015 0.888-0.094 1.745-0.234 2.581l0.014-0.101c0.081 0.485 0.127 1.045 0.127 1.615 0 0.135-0.003 0.27-0.008 0.404l0.001-0.019c-0.049 1.346-0.214 2.624-0.486 3.862l0.026-0.142c1.698-2.242 2.72-5.079 2.72-8.153 0-0.016-0-0.033-0-0.049v0.003c0-0.024 0-0.052 0-0.081 0-7.577-6.143-13.72-13.72-13.72-0.042 0-0.084 0-0.127 0.001l0.006-0zM14.86 24h-2.16l-2.7-4.78h-2.28v4.78h-2.16v-12.36h4.2c0.088-0.005 0.192-0.008 0.296-0.008 1.116 0 2.15 0.347 3.001 0.94l-0.017-0.011c0.774 0.639 1.263 1.599 1.263 2.673 0 0.052-0.001 0.103-0.003 0.154l0-0.007c0 0.010 0 0.022 0 0.034 0 0.745-0.256 1.43-0.685 1.972l0.005-0.007c-0.417 0.489-0.906 0.901-1.453 1.225l-0.027 0.015 2.62 4.78zM7.72 17.42h2c0.643-0.002 1.235-0.219 1.706-0.585l-0.006 0.005c0.413-0.289 0.681-0.763 0.681-1.299 0-0.014-0-0.029-0.001-0.043l0 0.002c-0.006-0.568-0.201-1.089-0.524-1.506l0.004 0.006c-0.462-0.35-1.047-0.56-1.68-0.56-0.007 0-0.014 0-0.021 0h-2.159zM18.96 24c-0.075 0.005-0.162 0.007-0.25 0.007-0.696 0-1.353-0.165-1.934-0.459l0.025 0.011c-0.572-0.308-1.061-0.688-1.477-1.136l-0.003-0.004-0.12-0.22c-0.251-0.425-0.411-0.931-0.44-1.472l-0-0.008v-0.34h2.14v0.34c0.023 0.461 0.243 0.867 0.577 1.138l0.003 0.002c0.354 0.275 0.805 0.441 1.294 0.441 0.023 0 0.046-0 0.069-0.001l-0.003 0c0.031 0.001 0.067 0.001 0.104 0.001 0.527 0 1.035-0.081 1.512-0.231l-0.036 0.010 0.12-0.12c0.22-0.22 0.46-0.32 0.46-0.78v0c0.012-0.050 0.019-0.107 0.019-0.166 0-0.268-0.142-0.503-0.356-0.632l-0.003-0.002c-0.287-0.202-0.634-0.339-1.010-0.379l-0.010-0.001c-0.24 0-0.46 0-0.58-0.22-0.75-0.133-1.422-0.369-2.037-0.698l0.037 0.018c-0.478-0.218-0.867-0.562-1.134-0.989l-0.006-0.011c-0.275-0.363-0.44-0.823-0.44-1.32 0-0.014 0-0.028 0-0.042l-0 0.002c-0.001-0.023-0.001-0.051-0.001-0.079 0-0.874 0.395-1.657 1.017-2.178l0.004-0.004c0.719-0.574 1.642-0.921 2.645-0.921 0.026 0 0.053 0 0.079 0.001l-0.004-0c0.088-0.007 0.191-0.012 0.295-0.012 0.953 0 1.824 0.353 2.489 0.935l-0.004-0.004c0.628 0.535 1.024 1.327 1.024 2.211 0 0.052-0.001 0.104-0.004 0.156l0-0.007v0.24h-2.26v-0.24c0-0.007 0-0.016 0-0.025 0-0.388-0.17-0.736-0.439-0.974l-0.001-0.001c-0.339-0.283-0.779-0.456-1.259-0.46h-0.001c-0.006-0-0.013-0-0.020-0-0.391 0-0.753 0.128-1.045 0.344l0.005-0.003c-0.267 0.212-0.437 0.536-0.44 0.9v0c-0.001 0.014-0.001 0.030-0.001 0.046 0 0.264 0.134 0.496 0.339 0.633l0.003 0.002c0.429 0.21 0.926 0.371 1.449 0.456l0.031 0.004c0.75 0.133 1.422 0.369 2.037 0.698l-0.037-0.018c0.56 0.34 1.020 0.56 1.24 1 0.223 0.342 0.356 0.762 0.356 1.212 0 0.095-0.006 0.188-0.017 0.279l0.001-0.011c0 0.005 0 0.010 0 0.015 0 0.919-0.446 1.733-1.132 2.239l-0.008 0.005c-0.657 0.527-1.5 0.845-2.418 0.845-0.156 0-0.31-0.009-0.461-0.027l0.018 0.002z"/>
</symbol></defs></svg>