<svg aria-hidden="true" style="position: absolute; width: 0; height: 0; overflow: hidden;" version="1.1" xmlns="http://www.w3.org/2000/svg" xmlns:xlink="http://www.w3.org/1999/xlink"><defs><symbol id="dds__office" viewBox="0 0 32 32">
<title>dds__office</title>
<path d="M9.020 8.38h2.14v2.14h-2.14zM9.020 12.66h2.14v2.14h-2.14zM9.020 16.94h2.14v2.12h-2.14zM13.22 8.38h2.14v2.14h-2.14zM13.22 12.66h2.14v2.14h-2.14zM13.22 16.94h2.14v2.12h-2.14zM21.68 16.98h2.14v2.14h-2.14zM21.68 21.26h2.14v2.14h-2.14zM21.68 25.54h2.14v2.14h-2.14zM20 12.66v-8.84h-3.1v-3.82h-9.54v3.82h-3.020v28.18h23.32v-19.34zM9.5 2.14h5.26v1.62h-5.26zM11.060 29.8v-4.8h2.14v4.8zM17.78 29.8h-2.46v-7h-6.4v7h-2.46v-23.8h11.32v24zM25.52 29.8h-5.52v-15h5.56z"/>
</symbol></defs></svg>