<svg aria-hidden="true" style="position: absolute; width: 0; height: 0; overflow: hidden;" version="1.1" xmlns="http://www.w3.org/2000/svg" xmlns:xlink="http://www.w3.org/1999/xlink"><defs><symbol id="dds__microphone-off" viewBox="0 0 32 32">
<title>dds__microphone-off</title>
<path d="M12.26 19.76l19.74-13.32-1.16-1.7-30.84 20.82 1.16 1.7 9.72-6.56zM10 16.38v-3.040h-2v3.5c-0.010 0.132-0.015 0.285-0.015 0.44s0.006 0.308 0.017 0.46l-0.001-0.020 2-1.34zM24.14 14.24l-2 1.38c0.16 4.76-1.88 7.34-6 7.78-0.031 0.001-0.068 0.001-0.106 0.001-1.346 0-2.589-0.443-3.59-1.192l0.016 0.011-1.74 1.16c1.166 1.091 2.685 1.819 4.367 1.997l0.033 0.003v4h-4.88v2h11.52v-2h-4.74v-4c5.86-1.14 7.88-5.12 7.12-11.14zM13.64 5.24c0-1.74 0.8-2.6 2.36-2.6 2 0 2.36 1.4 2.36 2.58v5.46l2-1.38v-4c0.016-0.139 0.025-0.299 0.025-0.462 0-2.353-1.907-4.26-4.26-4.26-0.044 0-0.088 0.001-0.132 0.002l0.006-0c-0.060-0.003-0.129-0.005-0.199-0.005-2.342 0-4.24 1.898-4.24 4.24 0 0.143 0.007 0.283 0.021 0.422l-0.001-0.018v10l2-1.38zM16 19.68l-2.3 1.56c0.633 0.316 1.38 0.502 2.169 0.502 0.046 0 0.092-0.001 0.138-0.002l-0.007 0c0.048 0.002 0.105 0.003 0.163 0.003 2.375 0 4.3-1.925 4.3-4.3 0-0.213-0.015-0.422-0.045-0.626l0.003 0.023v-0.1l-2.28 1.54c-0.259 0.825-1.017 1.413-1.912 1.413-0.080 0-0.16-0.005-0.238-0.014l0.009 0.001z"/>
</symbol></defs></svg>