<svg aria-hidden="true" style="position: absolute; width: 0; height: 0; overflow: hidden;" version="1.1" xmlns="http://www.w3.org/2000/svg" xmlns:xlink="http://www.w3.org/1999/xlink"><defs><symbol id="dds__redo" viewBox="0 0 32 32">
<title>dds__redo</title>
<path d="M2.2 21.18c0.078-4.811 3.997-8.681 8.819-8.681 0.043 0 0.085 0 0.128 0.001l-0.006-0h16.72l-9.24 8.98 1.54 1.52 11.84-11.5-11.84-11.5-1.54 1.5 9.12 8.86h-16.6c-0.042-0.001-0.092-0.001-0.141-0.001-6.012 0-10.898 4.823-10.998 10.811l-0 0.009c0.101 5.998 4.986 10.821 10.999 10.821 0.050 0 0.099-0 0.149-0.001l-0.008 0h14.86v-2.12h-14.86c-0.036 0.001-0.078 0.001-0.121 0.001-4.829 0-8.752-3.881-8.819-8.694l-0-0.006z"/>
</symbol></defs></svg>