<svg aria-hidden="true" style="position: absolute; width: 0; height: 0; overflow: hidden;" version="1.1" xmlns="http://www.w3.org/2000/svg" xmlns:xlink="http://www.w3.org/1999/xlink"><defs><symbol id="dds__cloud-document" viewBox="0 0 32 32">
<title>dds__cloud-document</title>
<path d="M26 10.7v-10.7h-16l-8 7.46v24.54h24v-5.76h-2v3.62h-19.84v-20.48h8v-7.24h11.84v7.18c0.774 0.355 1.436 0.818 2 1.38l-0-0zM10 7.26h-4.66l4.66-4.44zM26.4 16.98c-0.008-0.847-0.154-1.657-0.416-2.413l0.016 0.053c-0.355-1.187-1.057-2.18-1.986-2.89l-0.014-0.010c-0.817-0.551-1.823-0.88-2.907-0.88-0.005 0-0.009 0-0.014 0h0.001c-0.084-0.005-0.182-0.008-0.281-0.008-1.847 0-3.466 0.978-4.367 2.445l-0.013 0.022h-1c-0.127-0.015-0.274-0.023-0.424-0.023-1.839 0-3.376 1.292-3.752 3.018l-0.005 0.025c-1.668 0.507-2.86 2.031-2.86 3.834 0 0.016 0 0.032 0 0.048l-0-0.002c-0.004 0.066-0.007 0.144-0.007 0.222 0 2.088 1.692 3.78 3.78 3.78 0.044 0 0.089-0.001 0.133-0.002l-0.006 0h14.14s3.58-0.34 3.58-3.66-3.6-3.56-3.6-3.56zM26.4 21.96h-14c-0.043 0.004-0.094 0.006-0.145 0.006-0.906 0-1.64-0.734-1.64-1.64 0-0.044 0.002-0.089 0.005-0.132l-0 0.006c-0.001-0.018-0.001-0.039-0.001-0.061 0-0.824 0.541-1.521 1.288-1.756l0.013-0.004 1.22-0.38 0.2-1.38c0-0.5 0.48-1.3 2-1.3 0.108-0.009 0.233-0.014 0.36-0.014s0.252 0.005 0.376 0.015l-0.016-0.001 1.48 0.2 0.68-1.34c0.565-0.793 1.481-1.304 2.517-1.304 0.057 0 0.115 0.002 0.171 0.005l-0.008-0c0.069-0.006 0.149-0.009 0.229-0.009 1.346 0 2.485 0.886 2.865 2.108l0.006 0.021c0.228 0.591 0.36 1.275 0.36 1.99 0 0.004 0 0.007 0 0.011v-0.001 2l2 0.14c0.36 0 1.58 0.2 1.58 1.42-0.022 0.79-0.667 1.421-1.459 1.421-0.021 0-0.042-0-0.064-0.001l0.003 0z"/>
</symbol></defs></svg>