<svg aria-hidden="true" style="position: absolute; width: 0; height: 0; overflow: hidden;" version="1.1" xmlns="http://www.w3.org/2000/svg" xmlns:xlink="http://www.w3.org/1999/xlink"><defs><symbol id="dds__package-open" viewBox="0 0 32 32">
<title>dds__package-open</title>
<path d="M32 17l-5.6-4.8 5.6-4.6-10.2-6.6-5.8 4.8-5.4-4.8-10.6 6.8 6 4.6-6 4.6 6.2 3.6v4.2l9.8 6.6 10-6.6v-4.2zM21.8 20.6l-3.8-3 6.6-4 3.8 3zM16 16.4l-6.2-4 6.2-4 6.6 3.8zM22 3.8l6.4 4-3.8 3-6.6-3.8zM10.4 3.8l3.8 3.2-6.4 4-4-3zM7.8 13.8l6.4 4-3.8 2.8-6.6-3.8zM23.8 23.8l-7.8 5-7.8-5.2v-1.8l2.4 1.4 5.4-4.2 5.6 4.2 2.2-1.4z"/>
</symbol></defs></svg>