<svg aria-hidden="true" style="position: absolute; width: 0; height: 0; overflow: hidden;" version="1.1" xmlns="http://www.w3.org/2000/svg" xmlns:xlink="http://www.w3.org/1999/xlink"><defs><symbol id="dds__shipping" viewBox="0 0 32 32">
<title>dds__shipping</title>
<path d="M27.76 18l-6.4 4.3-15.24-21.42h-6.12v2.14h5.020l14.82 20.98c-1.465 0.478-2.513 1.81-2.56 3.395l-0 0.005c0.024 2.036 1.68 3.678 3.72 3.678 2.055 0 3.72-1.666 3.72-3.72 0-1.473-0.856-2.746-2.098-3.349l-0.022-0.010 6.34-4.2-1.18-1.8zM21 28.98c-0.006 0-0.013 0-0.020 0-0.873 0-1.58-0.707-1.58-1.58s0.707-1.58 1.58-1.58c0.873 0 1.58 0.707 1.58 1.58v0c0 0 0 0 0 0 0 0.866-0.696 1.569-1.559 1.58h-0.001zM32 12.34l-7.14-10-10.22 6.96 7.1 10 10.26-6.96zM24.34 5.2l4.66 6.6-6.74 4.56-4.62-6.52z"/>
</symbol></defs></svg>