<svg aria-hidden="true" style="position: absolute; width: 0; height: 0; overflow: hidden;" version="1.1" xmlns="http://www.w3.org/2000/svg" xmlns:xlink="http://www.w3.org/1999/xlink"><defs><symbol id="dds__brightness" viewBox="0 0 32 32">
<title>dds__brightness</title>
<path d="M4 26.56l5.48-5.5 1.52 1.52-5.56 5.42zM21.060 9.42l5.5-5.42 1.5 1.5-5.48 5.44zM0 14.94h7.76v2.12h-7.76zM24.24 14.94h7.76v2.12h-7.76zM4 5.44l1.44-1.44 5.5 5.42-1.52 1.52zM21.060 22.58l1.52-1.52 5.42 5.5-1.5 1.5zM14.94 0h2.12v7.76h-2.12zM14.94 24.24h2.12v7.76h-2.12zM16 9.3c-3.7 0-6.7 3-6.7 6.7s3 6.7 6.7 6.7c3.7 0 6.7-3 6.7-6.7v0c0-3.7-3-6.7-6.7-6.7v0zM16 20.56c-2.518 0-4.56-2.042-4.56-4.56s2.042-4.56 4.56-4.56c2.518 0 4.56 2.042 4.56 4.56v0c0 2.518-2.042 4.56-4.56 4.56v0z"/>
</symbol></defs></svg>