<svg aria-hidden="true" style="position: absolute; width: 0; height: 0; overflow: hidden;" version="1.1" xmlns="http://www.w3.org/2000/svg" xmlns:xlink="http://www.w3.org/1999/xlink"><defs><symbol id="dds__hand-touch" viewBox="0 0 32 32">
<title>dds__hand-touch</title>
<path d="M27 32v-1.020c0.8-2.84 2.42-5.56 3.040-8.52 0-1.4 0-5.36 0-5.52v0c-0.008-1.456-0.561-2.782-1.465-3.785l0.005 0.005c-0.498-0.431-1.152-0.694-1.867-0.694-0.195 0-0.386 0.020-0.571 0.057l0.018-0.003h-0.32c-0.12-0.089-0.225-0.188-0.318-0.297l-0.002-0.003c-0.694-0.674-1.643-1.090-2.688-1.090-0.471 0-0.922 0.084-1.339 0.238l0.027-0.009c-0.524-0.46-1.216-0.74-1.973-0.74-0.406 0-0.794 0.081-1.147 0.227l0.020-0.007v-7.16c0.020-2.44-1.14-3.68-3.44-3.68-0.030-0.001-0.066-0.001-0.101-0.001-1.987 0-3.604 1.583-3.659 3.556l-0 0.005 0.18 10v4.94l-2.72-2.3c-0.823-0.698-1.897-1.123-3.071-1.123-0.792 0-1.539 0.193-2.196 0.536l0.026-0.012c-0.88 0.452-1.471 1.353-1.471 2.392 0 0.144 0.011 0.285 0.033 0.423l-0.002-0.015c0.38 2.28 3.58 4.56 4.26 5.020 2.012 1.487 3.786 2.988 5.457 4.596l-0.017-0.016 2.88 4zM28 22.38c-0.221 1.355-0.64 2.572-1.231 3.684l0.031-0.064-0.12 0.3s-0.1 0.24-0.22 0.48c-0.7 1.48-1.12 2.46-1.36 3.12h-9.42l-2.32-3.32c-1.776-1.718-3.688-3.325-5.707-4.794l-0.153-0.106c-1.3-0.88-3.2-2.58-3.36-3.6 0 0 0-0.34 0.38-0.6 0.326-0.154 0.709-0.244 1.112-0.244 0.643 0 1.232 0.228 1.692 0.607l-0.005-0.004 2.86 2.44c0.37 0.307 0.85 0.493 1.373 0.493 0.223 0 0.439-0.034 0.642-0.097l-0.015 0.004c0.68-0.299 1.181-0.898 1.337-1.625l0.003-0.015v-0.12l-0.2-15.32c0.030-0.804 0.69-1.445 1.499-1.445 0.043 0 0.085 0.002 0.126 0.005l-0.005-0c1.020 0 1.34 0.22 1.36 1.56 0 1.72 0 8.32 0 8.32v0.6l0.52 0.32c0.314 0.215 0.702 0.343 1.12 0.343s0.806-0.128 1.127-0.347l-0.007 0.004c0.143-0.071 0.312-0.113 0.49-0.113s0.347 0.042 0.497 0.116l-0.007-0.003c0.399 0.428 0.966 0.695 1.596 0.695 0.343 0 0.668-0.079 0.957-0.221l-0.013 0.006c0.113-0.032 0.242-0.050 0.376-0.050 0.371 0 0.71 0.14 0.965 0.371l-0.001-0.001c0.465 0.598 1.185 0.979 1.994 0.979 0.222 0 0.438-0.029 0.644-0.083l-0.018 0.004c0.046-0.010 0.098-0.016 0.152-0.016 0.17 0 0.326 0.059 0.449 0.157l-0.001-0.001c0.493 0.584 0.809 1.331 0.86 2.15l0 0.010s0 4 0 5.42z"/>
</symbol></defs></svg>