<svg aria-hidden="true" style="position: absolute; width: 0; height: 0; overflow: hidden;" version="1.1" xmlns="http://www.w3.org/2000/svg" xmlns:xlink="http://www.w3.org/1999/xlink"><defs><symbol id="dds__deploy" viewBox="0 0 32 32">
<title>dds__deploy</title>
<path d="M32 9.38v-9.38h-9.34v2.14h5.72l-4.74 4.74c-2.065-1.729-4.75-2.78-7.68-2.78s-5.615 1.050-7.699 2.795l0.019-0.015-4.7-4.74h5.8v-2.14h-9.38v9.38h2.18v-5.62l4.58 4.62c-1.75 2.071-2.813 4.771-2.813 7.72s1.063 5.649 2.828 7.738l-0.015-0.018-4.6 4.64v-5.58h-2.16v9.12h9.34v-2.14h-5.58l4.52-4.52c2.063 1.724 4.744 2.771 7.67 2.771s5.607-1.047 7.689-2.787l-0.019 0.015 4.48 4.52h-5.48v2.14h9.38v-9.32h-2.18v5.88l-4.7-4.72c1.75-2.071 2.813-4.771 2.813-7.72s-1.063-5.649-2.828-7.738l0.015 0.018 4.72-4.74v5.72zM25.8 16.1c-0.004 2.355-0.842 4.513-2.233 6.196l0.013-0.016c-1.788 2.263-4.533 3.702-7.613 3.702-2.341 0-4.489-0.831-6.163-2.215l0.016 0.013c-0.558-0.456-1.050-0.954-1.485-1.5l-0.015-0.020c-1.365-1.658-2.192-3.804-2.192-6.142 0-2.327 0.82-4.463 2.186-6.135l-0.014 0.017c0.457-0.565 0.955-1.063 1.501-1.505l0.019-0.015c1.654-1.374 3.8-2.208 6.14-2.208s4.486 0.834 6.156 2.221l-0.016-0.013c0.566 0.45 1.064 0.942 1.506 1.483l0.014 0.017c1.336 1.664 2.153 3.794 2.18 6.114l0 0.006zM16 11.58c-0.012-0-0.026-0-0.040-0-2.496 0-4.52 2.024-4.52 4.52s2.024 4.52 4.52 4.52c2.496 0 4.52-2.024 4.52-4.52v0c0-0.006 0-0.013 0-0.020 0-2.478-2.003-4.489-4.479-4.5h-0.001zM16 18.48c-0.018 0-0.039 0.001-0.060 0.001-1.314 0-2.38-1.066-2.38-2.38s1.066-2.38 2.38-2.38c1.314 0 2.38 1.065 2.38 2.379v0c0 0 0 0 0 0.001 0 1.293-1.032 2.346-2.317 2.379l-0.003 0z"/>
</symbol></defs></svg>