<svg aria-hidden="true" style="position: absolute; width: 0; height: 0; overflow: hidden;" version="1.1" xmlns="http://www.w3.org/2000/svg" xmlns:xlink="http://www.w3.org/1999/xlink"><defs><symbol id="dds__app-window-search" viewBox="0 0 32 32">
<title>dds__app-window-search</title>
<path d="M13.76 24.66h-11.62v-14.66h23.54v1.5c0.809 0.498 1.506 1.074 2.114 1.733l0.006 0.007v-11.44h-27.8v24.98h16c-0.873-0.586-1.614-1.289-2.223-2.097l-0.017-0.023zM2.14 4h23.54v4h-23.54zM27.8 24.5l-1.1-1.1c0.495-0.67 0.874-1.459 1.090-2.314l0.010-0.046c0.127-0.499 0.2-1.072 0.2-1.662 0-0.020-0-0.041-0-0.061l0 0.003c-0.036-2.063-0.937-3.908-2.354-5.195l-0.006-0.005c-1.243-1.185-2.929-1.914-4.785-1.914-3.833 0-6.94 3.107-6.94 6.94 0 2.24 1.062 4.233 2.709 5.502l0.016 0.012c1.181 1.006 2.724 1.618 4.41 1.618 1.551 0 2.981-0.518 4.127-1.39l-0.017 0.012 5.3 5.3 1.5-1.52-4.2-4.18zM25.68 20.76c-0.633 1.986-2.462 3.4-4.621 3.4-2.673 0-4.84-2.167-4.84-4.84s2.167-4.84 4.84-4.84c2.159 0 3.988 1.414 4.611 3.366l0.009 0.034c0.152 0.429 0.24 0.924 0.24 1.44s-0.088 1.011-0.25 1.471l0.010-0.031z"/>
</symbol></defs></svg>