<svg aria-hidden="true" style="position: absolute; width: 0; height: 0; overflow: hidden;" version="1.1" xmlns="http://www.w3.org/2000/svg" xmlns:xlink="http://www.w3.org/1999/xlink"><defs><symbol id="dds__d-display" viewBox="0 0 32 32">
<title>dds__d-display</title>
<path d="M32 21.5v-18h-32v18h12.5v4.96h-5v2.12h17v-2.12h-5v-4.96zM17.36 26.42h-2.72v-4.92h2.72zM2.14 19.36v-13.8h27.72v13.8zM13.54 12.38c0.307-0.185 0.561-0.426 0.755-0.712l0.005-0.008c0.25-0.33 0.4-0.748 0.4-1.2v0c0.004-0.054 0.007-0.118 0.007-0.182 0-0.713-0.293-1.357-0.766-1.818l-0.001-0.001c-0.515-0.436-1.187-0.701-1.92-0.701-0.028 0-0.056 0-0.084 0.001l0.004-0c-0.015-0-0.032-0-0.049-0-0.75 0-1.434 0.281-1.954 0.743l0.003-0.003c-0.505 0.452-0.82 1.106-0.82 1.834 0 0.016 0 0.032 0 0.048l-0-0.002v0.16h1.46v-0.14c-0.002-0.024-0.002-0.051-0.002-0.079 0-0.36 0.146-0.685 0.382-0.921l0-0c0.267-0.236 0.62-0.381 1.006-0.381 0.019 0 0.038 0 0.056 0.001l-0.003-0c0.052-0.008 0.111-0.012 0.172-0.012 0.685 0 1.24 0.555 1.24 1.24 0 0.061-0.004 0.12-0.013 0.179l0.001-0.007c0.002 0.023 0.002 0.050 0.002 0.077 0 0.368-0.163 0.698-0.421 0.922l-0.002 0.001c-0.292 0.237-0.669 0.381-1.080 0.381-0.021 0-0.042-0-0.063-0.001l0.003 0h-1.18v1.24h1.020c0.037-0.003 0.080-0.004 0.123-0.004 0.432 0 0.829 0.153 1.14 0.407l-0.003-0.003c0.261 0.239 0.424 0.58 0.424 0.96 0 0.035-0.001 0.070-0.004 0.104l0-0.005c0.003 0.033 0.004 0.071 0.004 0.11 0 0.388-0.146 0.743-0.385 1.011l0.001-0.002c-0.28 0.238-0.646 0.383-1.046 0.383-0.033 0-0.066-0.001-0.099-0.003l0.005 0c-0.029 0.002-0.062 0.003-0.096 0.003-0.393 0-0.751-0.145-1.026-0.385l0.002 0.002c-0.248-0.234-0.403-0.565-0.403-0.932 0-0.031 0.001-0.061 0.003-0.092l-0 0.004v-0.16h-1.46v0.16c-0.004 0.051-0.006 0.111-0.006 0.171 0 0.731 0.327 1.386 0.843 1.826l0.003 0.003c0.544 0.45 1.249 0.722 2.018 0.722 0.043 0 0.086-0.001 0.128-0.003l-0.006 0c0.009 0 0.021 0 0.032 0 0.814 0 1.555-0.312 2.111-0.822l-0.002 0.002c0.518-0.474 0.842-1.152 0.842-1.906 0-0.033-0.001-0.066-0.002-0.098l0 0.005c0.001-0.023 0.001-0.051 0.001-0.078 0-0.505-0.166-0.971-0.446-1.348l0.004 0.006c-0.221-0.296-0.511-0.528-0.847-0.675l-0.014-0.005zM21.18 8.44c-0.549-0.282-1.199-0.448-1.887-0.448-0.089 0-0.178 0.003-0.265 0.008l0.012-0.001h-2.68v9.12h2.64c0.011 0 0.024 0 0.038 0 0.778 0 1.509-0.2 2.145-0.552l-0.023 0.012c0.63-0.354 1.13-0.873 1.451-1.5l0.009-0.020c0.328-0.661 0.52-1.439 0.52-2.262 0-0.006 0-0.013-0-0.019v0.001-0.58c-0.016-0.802-0.206-1.557-0.534-2.232l0.014 0.032c-0.328-0.642-0.821-1.16-1.423-1.511l-0.017-0.009zM21.7 12.98c-0.062 0.763-0.346 1.45-0.786 2.008l0.006-0.008c-0.455 0.496-1.106 0.806-1.83 0.806-0.060 0-0.119-0.002-0.178-0.006l0.008 0h-1.060v-6.6h1.2c0.076-0.009 0.164-0.014 0.254-0.014 0.699 0 1.325 0.315 1.744 0.811l0.003 0.003c0.438 0.62 0.705 1.387 0.72 2.216l0 0.004c-0.009 0.282-0.037 0.551-0.085 0.813l0.005-0.033z"/>
</symbol></defs></svg>