<svg aria-hidden="true" style="position: absolute; width: 0; height: 0; overflow: hidden;" version="1.1" xmlns="http://www.w3.org/2000/svg" xmlns:xlink="http://www.w3.org/1999/xlink"><defs><symbol id="dds__undo" viewBox="0 0 32 32">
<title>dds__undo</title>
<path d="M20.86 10.36h-16.6l9.12-8.86-1.54-1.5-11.84 11.5 11.84 11.5 1.54-1.52-9.24-8.98h16.72c0.036-0.001 0.079-0.001 0.121-0.001 4.822 0 8.741 3.87 8.819 8.673l0 0.007c-0.067 4.82-3.99 8.701-8.819 8.701-0.042 0-0.085-0-0.127-0.001l0.006 0h-14.86v2.12h14.94c0.018 0 0.040 0 0.061 0 6.012 0 10.897-4.823 10.998-10.811l0-0.009c-0.101-5.998-4.986-10.821-10.999-10.821-0.050 0-0.099 0-0.149 0.001l0.008-0z"/>
</symbol></defs></svg>