<svg aria-hidden="true" style="position: absolute; width: 0; height: 0; overflow: hidden;" version="1.1" xmlns="http://www.w3.org/2000/svg" xmlns:xlink="http://www.w3.org/1999/xlink"><defs><symbol id="dds__view-grid" viewBox="0 0 32 32">
<title>dds__view-grid</title>
<path d="M0 4.84h8.1v2.14h-8.1zM12 4.84h8v2.14h-8zM24 4.84h8v2.14h-8zM0 18.3h8.1v2.12h-8.1zM12 18.3h8v2.12h-8zM24 18.3h8v2.12h-8zM0 11.56h8.1v2.14h-8.1zM12 11.56h8v2.14h-8zM24 11.56h8v2.14h-8zM0 25.020h8.1v2.14h-8.1zM12 25.020h8v2.14h-8zM24 25.020h8v2.14h-8z"/>
</symbol></defs></svg>