<svg aria-hidden="true" style="position: absolute; width: 0; height: 0; overflow: hidden;" version="1.1" xmlns="http://www.w3.org/2000/svg" xmlns:xlink="http://www.w3.org/1999/xlink"><defs><symbol id="dds__heat" viewBox="0 0 32 32">
<title>dds__heat</title>
<path d="M15.44 15.060c2.36 2.54 4 4.4 0.18 9.24l1.66 1.32c5.060-6.26 2-9.46-0.28-12-0.34-0.36-0.68-0.72-1-1.1-2.22-2.52-3.18-4.2 0.76-9.4l-1.7-1.28c-4.4 5.78-3.72 8.5-0.68 12zM25.14 15.060c2.36 2.54 4 4.4 0.18 9.24l1.66 1.32c5.060-6.26 2-9.46-0.28-12-0.34-0.36-0.68-0.72-1-1.1-2.22-2.58-3.18-4.18 0.76-9.38l-1.7-1.3c-4.4 5.78-3.72 8.5-0.68 12zM5.74 15.060c2.36 2.54 4 4.4 0.18 9.24l1.66 1.32c5.060-6.26 2-9.46-0.28-12-0.34-0.36-0.68-0.72-1-1.1-2.3-2.52-3.2-4.2 0.76-9.4l-1.7-1.28c-4.4 5.78-3.72 8.5-0.68 12.16zM0 28h32v2.14h-32z"/>
</symbol></defs></svg>