<svg aria-hidden="true" style="position: absolute; width: 0; height: 0; overflow: hidden;" version="1.1" xmlns="http://www.w3.org/2000/svg" xmlns:xlink="http://www.w3.org/1999/xlink"><defs><symbol id="dds__missing-image" viewBox="0 0 32 32">
<title>dds__missing-image</title>
<path d="M29.86 29.86h-2.12v2.14h4.26v-4.26h-2.14zM18 29.86h5.86v2.14h-5.86zM8.18 29.86h5.82v2.14h-5.82zM2.14 27.74h-2.14v4.26h4.26v-2.14h-2.12zM0 18h2.14v5.86h-2.14zM0 8.18h2.14v5.82h-2.14zM0 4.26h2.14v-2.12h2.12v-2.14h-4.26zM18 0h5.86v2.14h-5.86zM8.18 0h5.82v2.14h-5.82zM27.74 0v2.14h2.12v2.12h2.14v-4.26zM29.86 8.18h2.14v5.82h-2.14zM29.86 18h2.14v5.86h-2.14z"/>
</symbol></defs></svg>