<svg aria-hidden="true" style="position: absolute; width: 0; height: 0; overflow: hidden;" version="1.1" xmlns="http://www.w3.org/2000/svg" xmlns:xlink="http://www.w3.org/1999/xlink"><defs><symbol id="dds__hand-touch-screen" viewBox="0 0 22 32">
<title>dds__hand-touch-screen</title>
<path d="M22 20.6c-0.005-1.163-0.461-2.219-1.202-3.002l0.002 0.002c-0.393-0.293-0.889-0.47-1.426-0.47-0.204 0-0.402 0.025-0.59 0.073l0.017-0.004h-0.2c-0.601-0.544-1.401-0.877-2.279-0.877-0.255 0-0.504 0.028-0.743 0.081l0.023-0.004c-0.438-0.297-0.978-0.474-1.559-0.474-0.227 0-0.448 0.027-0.66 0.078l0.019-0.004v-5c0-2.6-1.4-3-2.8-3-0.002 0-0.004 0-0.007 0-1.586 0-2.885 1.231-2.993 2.791l-0.001 0.009v10.4l-1.6-1.4c-0.631-0.556-1.464-0.896-2.377-0.896-0.672 0-1.302 0.184-1.84 0.505l0.017-0.009c-0.74 0.365-1.24 1.114-1.24 1.98 0 0.149 0.015 0.294 0.043 0.434l-0.002-0.014c0.2 1.8 2.8 3.4 3.2 3.8l4 3.2 2.4 3.2h9.6v-1c0.276-0.92 0.616-1.715 1.032-2.462l-0.032 0.062c0-0.2 0.2-0.4 0.2-0.6 0.488-0.928 0.839-2.007 0.994-3.149l0.006-0.051zM18.8 27.8l-1 2h-6.4l-1.8-2.2c-1.241-1.343-2.617-2.529-4.117-3.547l-0.083-0.053c-1.2-0.8-2.4-2-2.4-2.6h0.4c0.111-0.032 0.239-0.050 0.371-0.050 0.406 0 0.772 0.173 1.028 0.449l0.001 0.001 2.2 1.8c0.266 0.205 0.604 0.329 0.971 0.329 0.227 0 0.443-0.047 0.639-0.133l-0.010 0.004c0.582-0.271 1.018-0.773 1.196-1.384l0.004-0.016v-11.4c0-0.442 0.358-0.8 0.8-0.8v0 0c0.6 0 0.8 0 0.8 0.8v6.6l0.4 0.4c0.281 0.19 0.627 0.303 1 0.303s0.719-0.113 1.006-0.307l-0.006 0.004h0.4c0.332 0.376 0.814 0.612 1.352 0.612 0.31 0 0.602-0.079 0.857-0.217l-0.009 0.005h0.6c0.443 0.51 1.092 0.831 1.816 0.831 0.136 0 0.269-0.011 0.398-0.033l-0.014 0.002h0.2c0.244 0.4 0.392 0.882 0.4 1.398l0 0.002v3.8c-0.102 1.26-0.46 2.416-1.022 3.445l0.022-0.045zM10.6 2.2c4.639 0 8.4 3.761 8.4 8.4v0h2.2c0-5.854-4.746-10.6-10.6-10.6s-10.6 4.746-10.6 10.6v0h2.2c0-4.639 3.761-8.4 8.4-8.4v0zM10.6 4.2c-3.535 0-6.4 2.865-6.4 6.4v0h2c0-2.43 1.97-4.4 4.4-4.4s4.4 1.97 4.4 4.4v0h2c0-3.535-2.865-6.4-6.4-6.4v0z"/>
</symbol></defs></svg>