<svg aria-hidden="true" style="position: absolute; width: 0; height: 0; overflow: hidden;" version="1.1" xmlns="http://www.w3.org/2000/svg" xmlns:xlink="http://www.w3.org/1999/xlink"><defs><symbol id="dds__chain-link" viewBox="0 0 32 32">
<title>dds__chain-link</title>
<path d="M19.58 18.74l-0.74-0.56 0.76 0.56c0.727-0.981 1.163-2.214 1.163-3.55 0-1.904-0.887-3.601-2.271-4.7l-0.792-0.609c-0.974-0.748-2.21-1.199-3.551-1.199-1.899 0-3.588 0.904-4.658 2.304l-0.010 0.014-8.3 11c-0.727 0.981-1.163 2.214-1.163 3.55 0 1.904 0.887 3.601 2.271 4.701l0.792 0.609c0.96 0.748 2.183 1.2 3.512 1.2 0.010 0 0.019-0 0.029-0h-0.002c0 0 0 0 0 0 1.903 0 3.595-0.904 4.67-2.306l0.010-0.014 3.48-4.58-1.72-1.3-3.46 4.52c-0.694 0.893-1.769 1.463-2.977 1.463-0.845 0-1.625-0.279-2.253-0.75l0.010 0.007-0.78-0.6c-0.888-0.702-1.453-1.779-1.453-2.989 0-0.856 0.283-1.646 0.76-2.281l-0.007 0.010 8.28-10.92c0.694-0.899 1.769-1.473 2.979-1.48h0.001c0.006-0 0.013-0 0.021-0 0.84 0 1.613 0.286 2.227 0.766l-0.008-0.006 0.76 0.6c0.899 0.694 1.472 1.772 1.472 2.984 0 0.851-0.283 1.636-0.759 2.266l0.007-0.009zM17.84 23.32c-0 0-0 0-0 0-1.338 0-2.57-0.451-3.553-1.21l0.014 0.010-0.78-0.6c-1.401-1.109-2.291-2.809-2.291-4.717 0-0.824 0.166-1.608 0.466-2.323l-0.015 0.040c0.195-0.481 0.437-0.897 0.729-1.272l-0.009 0.012 1.72 1.3c-0.182 0.23-0.337 0.494-0.452 0.779l-0.008 0.021c-0.186 0.431-0.294 0.933-0.294 1.461 0 1.207 0.565 2.281 1.446 2.973l0.008 0.006 0.78 0.6c0.618 0.468 1.4 0.75 2.247 0.75 1.208 0 2.282-0.573 2.966-1.462l0.006-0.009 8.28-10.92c0.471-0.623 0.754-1.411 0.754-2.265 0-1.216-0.574-2.297-1.465-2.989l-0.009-0.006-0.76-0.6c-0.618-0.469-1.4-0.75-2.247-0.75-1.208 0-2.282 0.573-2.966 1.462l-0.006 0.009-3.46 4.58-1.7-1.32 3.46-4.56c1.081-1.415 2.769-2.319 4.669-2.319 1.341 0 2.577 0.451 3.565 1.209l-0.014-0.010 0.78 0.6c1.38 1.109 2.255 2.796 2.255 4.688 0 1.319-0.426 2.539-1.147 3.529l0.012-0.017-8.3 11c-1.081 1.416-2.77 2.32-4.67 2.32-0.004 0-0.007 0-0.011 0h0.001z"/>
</symbol></defs></svg>