<svg aria-hidden="true" style="position: absolute; width: 0; height: 0; overflow: hidden;" version="1.1" xmlns="http://www.w3.org/2000/svg" xmlns:xlink="http://www.w3.org/1999/xlink"><defs><symbol id="dds__graphics-card" viewBox="0 0 32 32">
<title>dds__graphics-card</title>
<path d="M32 5.4h-25.56v-4.14h-6.44v2.12h4.3v6h-2v5.56h2v3.18h-2v5.62h2v7h2.14v-3.080h25.56zM29.86 25.52h-23.42v-18h23.42zM18.16 23.84c0.006 0 0.013 0 0.020 0 4.043 0 7.32-3.277 7.32-7.32s-3.277-7.32-7.32-7.32c-4.043 0-7.32 3.277-7.32 7.32 0 0.007 0 0.014 0 0.021v-0.001c0.011 4.027 3.273 7.289 7.299 7.3h0.001zM17.16 21.6l3.56-3.6 1.56 1.58c-0.814 1.321-2.253 2.188-3.894 2.188-0.436 0-0.858-0.061-1.258-0.176l0.032 0.008zM19.16 16.54l-1.040 1.040-1.060-1.040 1.060-1.060zM23.16 17.54l-3.5-3.54 1.58-1.58c1.252 1.013 2.046 2.549 2.046 4.271 0 0.3-0.024 0.594-0.070 0.881l0.004-0.031zM18.16 11.36c0.355 0.003 0.701 0.039 1.035 0.106l-0.035-0.006-3.56 3.56-1.6-1.56c0.95-1.28 2.457-2.1 4.155-2.1 0.002 0 0.004 0 0.006 0h-0zM13.080 15.54l3.56 3.56-1.56 1.56c-1.222-0.953-2-2.425-2-4.079 0-0.014 0-0.029 0-0.043v0.002c-0.015-0.15-0.024-0.324-0.024-0.5s0.009-0.35 0.025-0.522l-0.002 0.022z"/>
</symbol></defs></svg>