<svg aria-hidden="true" style="position: absolute; width: 0; height: 0; overflow: hidden;" version="1.1" xmlns="http://www.w3.org/2000/svg" xmlns:xlink="http://www.w3.org/1999/xlink"><defs><symbol id="dds__fingerprint" viewBox="0 0 32 32">
<title>dds__fingerprint</title>
<path d="M6.96 4.66c2.612-1.454 5.702-2.376 8.991-2.538l0.049-0.002c3.341 0.172 6.436 1.077 9.174 2.557l-0.114-0.057 0.94 0.52 1.020-1.86-0.92-0.52c-2.924-1.591-6.378-2.593-10.049-2.758l-0.051-0.002c-3.692 0.178-7.11 1.194-10.119 2.86l0.119-0.060-0.92 0.52 0.92 1.86 0.94-0.52zM30.38 11.38c-3.27-4.502-8.47-7.43-14.36-7.56l-0.020-0c-5.928 0.111-11.142 3.071-14.343 7.565l-0.037 0.055-0.58 0.88 1.78 1.18 0.58-0.9c2.89-3.911 7.434-6.457 12.578-6.599l0.022-0c5.162 0.159 9.7 2.7 12.569 6.557l0.031 0.043 0.6 0.88 1.76-1.18-0.58-0.88zM16 7.4c-0.001 0-0.002 0-0.003 0-6.657 0-12.154 4.965-12.99 11.394l-0.007 0.066c-0.042 0.41-0.065 0.887-0.065 1.369 0 2.424 0.601 4.707 1.663 6.709l-0.038-0.078 0.54 0.92 1.82-1.060-0.52-0.92c-0.838-1.62-1.329-3.535-1.329-5.565 0-0.385 0.018-0.767 0.052-1.143l-0.004 0.048c0.672-5.446 5.27-9.62 10.842-9.62 0.013 0 0.026 0 0.040 0h-0.002c0.040-0.001 0.086-0.001 0.133-0.001 4.577 0 8.491 2.837 10.081 6.847l0.026 0.073c0.58 2 1.020 4.44-0.7 5.4-0.513 0.315-1.134 0.501-1.799 0.501-0.35 0-0.687-0.052-1.006-0.148l0.025 0.006c-0.499-0.114-0.916-0.401-1.196-0.794l-0.004-0.006c-0.11-0.282-0.22-0.636-0.307-0.998l-0.013-0.061c-0.218-1.928-1.259-3.576-2.758-4.606l-0.022-0.014c-0.747-0.466-1.654-0.742-2.626-0.742-1.72 0-3.238 0.865-4.143 2.184l-0.011 0.017c-1.36 2.24-0.52 6.9 1.74 9.6 1.968 2.133 4.415 3.795 7.172 4.818l0.128 0.042 1 0.36 0.72-2-1-0.36c-2.531-0.919-4.678-2.371-6.39-4.229l-0.010-0.011c-1.76-2-2.36-5.78-1.54-7.12 0.533-0.737 1.389-1.21 2.357-1.21 0.614 0 1.184 0.191 1.653 0.517l-0.010-0.006c1.080 0.58 1.44 2 1.72 3.24 0.108 0.58 0.274 1.097 0.497 1.581l-0.017-0.041c0.549 0.907 1.41 1.579 2.43 1.873l0.029 0.007c0.476 0.142 1.024 0.223 1.59 0.223 1.056 0 2.046-0.283 2.898-0.778l-0.028 0.015c3.42-1.9 2.14-6.38 1.7-7.86-1.855-4.968-6.561-8.442-12.077-8.442-0.085 0-0.17 0.001-0.255 0.002l0.013-0zM16.36 13.2c0 0 0.001 0 0.001 0 2.824 0 5.193 1.951 5.831 4.579l0.008 0.041 0.24 1.040 2-0.5-0.24-1.020c-0.888-3.618-4.103-6.26-7.936-6.26-0.023 0-0.045 0-0.068 0l0.003-0c-5.88 0-9.4 3.74-9.4 10 0 0.52 0.16 5.3 5.44 10.14l0.8 0.7 1.42-1.56-0.78-0.72c-2.568-2.082-4.32-5.083-4.753-8.495l-0.007-0.064c-0.024-0.218-0.037-0.471-0.037-0.727 0-3.954 3.206-7.16 7.16-7.16 0.111 0 0.222 0.003 0.333 0.008l-0.016-0.001zM25.58 26.54s-6.3 0.32-8.24-5.080l-0.34-1-2 0.72 0.34 1c1.553 3.842 5.253 6.504 9.575 6.504 0.1 0 0.2-0.001 0.3-0.004l-0.015 0h1.56l-0.12-2.12h-1.060z"/>
</symbol></defs></svg>