<svg aria-hidden="true" style="position: absolute; width: 0; height: 0; overflow: hidden;" version="1.1" xmlns="http://www.w3.org/2000/svg" xmlns:xlink="http://www.w3.org/1999/xlink"><defs><symbol id="dds__snapshot" viewBox="0 0 32 32">
<title>dds__snapshot</title>
<path d="M29.86 29.86h-5.32v2.14h7.46v-7.46h-2.14zM2.14 24.54h-2.14v7.46h7.46v-2.14h-5.32zM2.14 2.14h5.32v-2.14h-7.46v7.46h2.14zM24.54 0v2.14h5.32v5.32h2.14v-7.46zM24.7 17.060h4v-2.12h-4c-0.507-3.999-3.641-7.133-7.597-7.636l-0.043-0.005v-4h-2.12v4c-3.999 0.507-7.133 3.641-7.636 7.597l-0.005 0.043h-4v2.12h4c0.507 3.999 3.641 7.133 7.597 7.636l0.043 0.005v4h2.12v-4c3.999-0.507 7.133-3.641 7.636-7.597l0.005-0.043zM22.56 14.94h-5.5v-5.5c2.826 0.474 5.026 2.674 5.495 5.461l0.005 0.039zM14.94 9.44v5.5h-5.5c0.474-2.826 2.674-5.026 5.461-5.495l0.039-0.005zM9.44 17.060h5.5v5.5c-2.826-0.474-5.026-2.674-5.495-5.461l-0.005-0.039zM17.060 22.56v-5.5h5.5c-0.474 2.826-2.674 5.026-5.461 5.495l-0.039 0.005z"/>
</symbol></defs></svg>