<svg aria-hidden="true" style="position: absolute; width: 0; height: 0; overflow: hidden;" version="1.1" xmlns="http://www.w3.org/2000/svg" xmlns:xlink="http://www.w3.org/1999/xlink"><defs><symbol id="dds__search-arrow-right" viewBox="0 0 32 32">
<title>dds__search-arrow-right</title>
<path d="M20.2 15.74c0-0.030 0-0.065 0-0.1 0-5.578-4.522-10.1-10.1-10.1s-10.1 4.522-10.1 10.1c0 5.578 4.522 10.1 10.1 10.1 0.035 0 0.070-0 0.105-0.001l-0.005 0c2.418-0.010 4.633-0.877 6.356-2.313l-0.016 0.013 8.38 8.56 1.5-1.5-8.42-8.5c1.37-1.697 2.2-3.881 2.2-6.258 0-0.001 0-0.002 0-0.002v0zM10.2 23.74c-4.418 0-8-3.582-8-8s3.582-8 8-8c4.418 0 8 3.582 8 8v0c-0.022 4.401-3.595 7.961-8 7.961-0.035 0-0.070-0-0.105-0.001l0.005 0zM24 11.74l1.36 1.36 6.64-6.54-6.56-6.56-1.44 1.36 4.2 4.2h-9.040v2h9.18z"/>
</symbol></defs></svg>