<svg aria-hidden="true" style="position: absolute; width: 0; height: 0; overflow: hidden;" version="1.1" xmlns="http://www.w3.org/2000/svg" xmlns:xlink="http://www.w3.org/1999/xlink"><defs><symbol id="dds__keyboard-mouse" viewBox="0 0 32 32">
<title>dds__keyboard-mouse</title>
<path d="M16.82 6.76v-2.4h0.9c1.105 0 2-0.895 2-2v0-2.36h-2.18v2.22h-0.9c-1.105 0-2 0.895-2 2v0 2.54h-14.64v20.58h21.020v-2.14h-18.88v-16.3h27.72v6.44c0.827 0.321 1.537 0.768 2.145 1.325l-0.005-0.005v-9.9zM11.3 10.28h3.12v2.14h-3.12zM11.3 14h3.12v2.16h-3.12zM11.3 17.74h3.12v2.14h-3.12zM17.58 10.28h3.12v2.14h-3.12zM17.58 14h3.12v2.16h-3.12zM17.58 17.74h3.12v2.14h-3.12zM23.86 10.28h3.12v2.14h-3.12zM23.86 16c0.879-0.607 1.945-1.004 3.097-1.098l0.023-0.002v-0.9h-3.12zM9.84 21.5h11.18v2.14h-11.18zM5.020 10.28h3.12v2.14h-3.12zM5.020 14h3.12v2.16h-3.12zM5.020 17.74h3.12v2.14h-3.12zM27.58 17.040c-2.444 0.011-4.42 1.995-4.42 4.44 0 0 0 0 0 0v0 6c0 2.441 1.979 4.42 4.42 4.42s4.42-1.979 4.42-4.42v0-6c-0.011-2.441-1.981-4.417-4.418-4.44h-0.002zM29.86 27.58c0 1.259-1.021 2.28-2.28 2.28s-2.28-1.021-2.28-2.28v0-6c0-1.259 1.021-2.28 2.28-2.28s2.28 1.021 2.28 2.28v0z"/>
</symbol></defs></svg>