<svg aria-hidden="true" style="position: absolute; width: 0; height: 0; overflow: hidden;" version="1.1" xmlns="http://www.w3.org/2000/svg" xmlns:xlink="http://www.w3.org/1999/xlink"><defs><symbol id="dds__share" viewBox="0 0 32 32">
<title>dds__share</title>
<path d="M16.8 15.8c0.067-2.287 1.266-4.279 3.054-5.444l0.026-0.016c2.045-1.408 4.576-2.249 7.303-2.249 0.175 0 0.349 0.003 0.522 0.010l-0.025-0.001-4.52 4.54 1.68 1.68 7.16-7.16-7.16-7.16-1.68 1.68 4 4c-3.241 0.009-6.242 1.026-8.709 2.753l0.049-0.033c-2.416 1.611-3.989 4.32-4 7.398v0.002zM29.82 29.86h-27.64v-27.72h13.82v-2.14h-16v32h32v-16.12h-2.18z"/>
</symbol></defs></svg>