<svg aria-hidden="true" style="position: absolute; width: 0; height: 0; overflow: hidden;" version="1.1" xmlns="http://www.w3.org/2000/svg" xmlns:xlink="http://www.w3.org/1999/xlink"><defs><symbol id="dds__currency-coins-indian-rupees" viewBox="0 0 32 32">
<title>dds__currency-coins-indian-rupees</title>
<path d="M18.16 0c-3.115 0.018-5.988 1.035-8.319 2.748l0.040-0.028c1.081-0.294 2.323-0.462 3.604-0.462 0.090 0 0.18 0.001 0.269 0.002l-0.013-0c0.126-0.006 0.274-0.009 0.422-0.009 0.557 0 1.104 0.047 1.635 0.137l-0.057-0.008c0.615-0.16 1.32-0.252 2.048-0.252 0.159 0 0.317 0.004 0.474 0.013l-0.022-0.001c6.414 0.034 11.6 5.241 11.6 11.66 0 0 0 0 0 0v0c-0.015 0.888-0.094 1.745-0.234 2.581l0.014-0.101c0.081 0.485 0.127 1.045 0.127 1.615 0 0.135-0.003 0.27-0.008 0.404l0.001-0.019c-0.049 1.346-0.214 2.624-0.486 3.862l0.026-0.142c1.698-2.242 2.72-5.079 2.72-8.153 0-0.016-0-0.033-0-0.049v0.003c0-0.024 0-0.052 0-0.081 0-7.577-6.143-13.72-13.72-13.72-0.042 0-0.084 0-0.127 0.001l0.006-0zM19.3 11.2h-2.96c0.538 0.645 0.904 1.452 1.018 2.337l0.002 0.023h2.5l-0.56 2h-1.82c-0.022 1.345-0.681 2.531-1.689 3.272l-0.011 0.008c-1.046 0.712-2.337 1.137-3.728 1.137-0.166 0-0.331-0.006-0.494-0.018l0.022 0.001 6.12 7.020h-2.84l-6.58-7.54v-1.44h3.060c0.053 0.002 0.116 0.004 0.179 0.004 0.862 0 1.665-0.255 2.337-0.694l-0.016 0.010c0.618-0.42 1.069-1.047 1.255-1.779l0.005-0.021h-7.1l0.46-1.82h6.4c-0.37-1.412-1.635-2.436-3.139-2.436-0.17 0-0.337 0.013-0.499 0.038l0.018-0.002h-3.42l0.58-2 11.34-0.1zM13.8 6.54c6.44 0 11.66 5.22 11.66 11.66s-5.22 11.66-11.66 11.66c-6.44 0-11.66-5.22-11.66-11.66v0c0-6.44 5.22-11.66 11.66-11.66v0zM13.8 4.4c-7.622 0-13.8 6.178-13.8 13.8s6.178 13.8 13.8 13.8c7.622 0 13.8-6.178 13.8-13.8v0c0-7.622-6.178-13.8-13.8-13.8v0z"/>
</symbol></defs></svg>