<svg aria-hidden="true" style="position: absolute; width: 0; height: 0; overflow: hidden;" version="1.1" xmlns="http://www.w3.org/2000/svg" xmlns:xlink="http://www.w3.org/1999/xlink"><defs><symbol id="dds__award-certificate" viewBox="0 0 32 32">
<title>dds__award-certificate</title>
<path d="M2.14 4.24h23.42v1.18h0.18c0.711 0 1.4 0.095 2.055 0.273l-0.055-0.013v-3.58h-27.74v19.9h18.5v-2.18h-16.36v-15.58zM25.74 7.54c-3.449 0.011-6.24 2.81-6.24 6.26 0 0 0 0 0 0v0c0 0.003 0 0.006 0 0.010 0 1.339 0.427 2.578 1.153 3.589l-0.013-0.018v12.62l5.1-2.88 5.12 2.88v-12.62c0.713-0.992 1.14-2.231 1.14-3.57 0-0.004 0-0.007 0-0.011v0.001c0-3.457-2.803-6.26-6.26-6.26v0zM28.72 26.24l-2.98-1.68-2.96 1.68v-6.96c0.865 0.489 1.899 0.777 3 0.777s2.135-0.288 3.031-0.793l-0.031 0.016zM25.74 18c-2.255-0.012-4.079-1.843-4.079-4.1 0-2.264 1.836-4.1 4.1-4.1s4.1 1.836 4.1 4.1c0 0.035-0 0.070-0.001 0.105l0-0.005c-0.056 2.221-1.87 4-4.099 4-0.007 0-0.015-0-0.022-0h0.001z"/>
</symbol></defs></svg>