<svg aria-hidden="true" style="position: absolute; width: 0; height: 0; overflow: hidden;" version="1.1" xmlns="http://www.w3.org/2000/svg" xmlns:xlink="http://www.w3.org/1999/xlink"><defs><symbol id="dds__wrench-single" viewBox="0 0 32 32">
<title>dds__wrench-single</title>
<path d="M30.62 4.48l-4.22 4.24c-0.399 0.399-0.951 0.646-1.56 0.646-1.218 0-2.206-0.988-2.206-2.206 0-0.609 0.247-1.161 0.646-1.56l4.24-4.24-1.52-0.6c-1.11-0.483-2.402-0.764-3.76-0.764-5.324 0-9.64 4.316-9.64 9.64 0 1.118 0.19 2.192 0.541 3.191l-0.021-0.068-11.9 12c-0.734 0.749-1.194 1.768-1.22 2.895l-0 0.005c-0 0.009-0 0.020-0 0.030 0 1.19 0.481 2.268 1.26 3.050l-0-0c0.793 0.779 1.88 1.259 3.080 1.26h0c0.003 0 0.007 0 0.011 0 1.19 0 2.268-0.481 3.050-1.26l-0 0 12-11.9c0.931 0.33 2.005 0.52 3.124 0.52 5.324 0 9.64-4.316 9.64-9.64 0-1.358-0.281-2.651-0.788-3.823l0.024 0.062zM27.64 15.020c-1.356 1.351-3.227 2.186-5.293 2.186-1.050 0-2.049-0.216-2.956-0.605l0.049 0.019-0.66-0.28-12.78 12.88c-0.407 0.382-0.956 0.617-1.56 0.617s-1.153-0.235-1.561-0.618l0.001 0.001c-0.401-0.399-0.649-0.95-0.649-1.56s0.248-1.161 0.649-1.56l0-0 12.78-12.88-0.28-0.66c-0.368-0.856-0.582-1.853-0.582-2.9 0-4.147 3.356-7.51 7.501-7.52h0.001c0.003 0 0.007 0 0.011 0 0.456 0 0.901 0.044 1.333 0.127l-0.044-0.007-1.84 1.84c-0.777 0.79-1.257 1.874-1.257 3.070 0 2.417 1.96 4.377 4.377 4.377 1.221 0 2.325-0.5 3.119-1.307l1.841-1.841c0.064 0.368 0.101 0.791 0.101 1.223 0 2.12-0.882 4.033-2.298 5.394l-0.003 0.002z"/>
</symbol></defs></svg>