<svg aria-hidden="true" style="position: absolute; width: 0; height: 0; overflow: hidden;" version="1.1" xmlns="http://www.w3.org/2000/svg" xmlns:xlink="http://www.w3.org/1999/xlink"><defs><symbol id="dds__task-check-progress" viewBox="0 0 32 32">
<title>dds__task-check-progress</title>
<path d="M23.84 9.62l-10.62 10.52-5.22-5-1.5 1.54 6.66 6.44 12.1-12zM16 0c-0.035-0-0.077-0-0.119-0-0.72 0-1.428 0.051-2.121 0.15l0.079-0.009 0.28 2.12c0.59-0.089 1.272-0.14 1.965-0.14 7.666 0 13.88 6.214 13.88 13.88s-6.214 13.88-13.88 13.88c-0.030 0-0.059-0-0.089-0l0.005 0c-0.655-0.007-1.292-0.057-1.916-0.149l0.076 0.009-0.28 2.12c0.613 0.089 1.32 0.14 2.039 0.14 0.028 0 0.057-0 0.085-0l-0.004 0c8.837 0 16-7.163 16-16s-7.163-16-16-16v0zM2.9 11.26l-2-0.72c-0.456 1.172-0.776 2.53-0.896 3.945l-0.004 0.055 2.12 0.2c0.13-1.272 0.405-2.437 0.812-3.539l-0.032 0.099zM6.24 6.1l-1.5-1.52c-0.956 0.937-1.796 1.987-2.499 3.129l-0.041 0.071 1.8 1.1c0.641-1.058 1.376-1.971 2.215-2.775l0.005-0.005zM11.46 2.88l-0.68-2c-1.396 0.478-2.607 1.087-3.715 1.835l0.055-0.035 1.18 1.78c0.91-0.627 1.954-1.161 3.067-1.552l0.093-0.028zM2.14 17.36l-2.14 0.2c0.148 1.477 0.473 2.832 0.957 4.11l-0.037-0.11 2-0.74c-0.395-1.008-0.672-2.176-0.777-3.393l-0.003-0.047zM7.18 29.38c1.053 0.716 2.265 1.32 3.556 1.75l0.104 0.030 0.68-2c-1.212-0.4-2.265-0.922-3.226-1.569l0.046 0.029-1.16 1.78zM2.24 24.28c0.743 1.214 1.583 2.264 2.537 3.197l0.003 0.003 1.48-1.48c-0.855-0.823-1.603-1.749-2.225-2.759l-0.035-0.061z"/>
</symbol></defs></svg>