<svg aria-hidden="true" style="position: absolute; width: 0; height: 0; overflow: hidden;" version="1.1" xmlns="http://www.w3.org/2000/svg" xmlns:xlink="http://www.w3.org/1999/xlink"><defs><symbol id="dds__pie-chart" viewBox="0 0 32 32">
<title>dds__pie-chart</title>
<path d="M14.8 17.62l14.14 9.44c0.335-0.491 0.686-1.073 1.008-1.674l0.052-0.106c1.196-2.22 1.927-4.847 2-7.638l0-0.022zM28.24 24l-6.4-4.28h7.74c-0.256 1.601-0.724 3.040-1.38 4.369l0.040-0.089zM22.42 2c-2.233-1.196-4.873-1.928-7.678-2l-0.022-0v15.56h17.080c-0.695-5.935-4.277-10.902-9.284-13.514l-0.096-0.046zM16.84 2.42c1.719 0.26 3.268 0.778 4.681 1.519l-0.081-0.039c3.809 1.97 6.636 5.391 7.775 9.513l0.025 0.107h-12.4zM12.58 2.28c-7.121 1.236-12.467 7.369-12.467 14.751 0 8.262 6.698 14.96 14.96 14.96 4.146 0 7.897-1.686 10.607-4.41l0.001-0.001-13.18-8.64zM22.1 27.78c-1.982 1.314-4.416 2.097-7.033 2.097-7.091 0-12.84-5.749-12.84-12.84 0-5.427 3.367-10.067 8.126-11.947l0.087-0.030v15.040l11.74 7.68z"/>
</symbol></defs></svg>