<svg aria-hidden="true" style="position: absolute; width: 0; height: 0; overflow: hidden;" version="1.1" xmlns="http://www.w3.org/2000/svg" xmlns:xlink="http://www.w3.org/1999/xlink"><defs><symbol id="dds__user-unlock" viewBox="0 0 32 32">
<title>dds__user-unlock</title>
<path d="M12 13.44c3.694-0.023 6.68-3.023 6.68-6.72 0-3.711-3.009-6.72-6.72-6.72s-6.72 3.009-6.72 6.72v0c0.011 3.714 3.025 6.72 6.74 6.72 0.007 0 0.014 0 0.021-0h-0.001zM12 2.14c2.523 0.023 4.56 2.073 4.56 4.6 0 2.54-2.059 4.6-4.6 4.6s-4.6-2.059-4.6-4.6c0-0.007 0-0.014 0-0.021v0.001c0.011-2.532 2.066-4.58 4.6-4.58 0.014 0 0.028 0 0.042 0h-0.002zM6.22 14.94c1.613 1.099 3.605 1.754 5.75 1.754s4.137-0.656 5.786-1.777l-0.036 0.023c0.425 0.32 0.798 0.668 1.133 1.051l0.007 0.009c0.322-0.706 0.724-1.313 1.206-1.846l-0.006 0.006c-0.525-0.543-1.109-1.025-1.741-1.436l-0.039-0.024-0.64-0.44-0.62 0.5c-1.357 1.093-3.101 1.755-5 1.755s-3.643-0.662-5.015-1.767l0.015 0.012-0.6-0.5-0.66 0.44c-3.042 2.218-5.133 5.585-5.633 9.45l-0.007 0.070-0.12 1.18h16.24v-2.12h-13.78c0.557-2.551 1.894-4.729 3.745-6.328l0.015-0.012zM22.78 21.58v-2.62c0-1.458 1.182-2.64 2.64-2.64s2.64 1.182 2.64 2.64v0h2.12c-0.167-2.504-2.239-4.471-4.77-4.471s-4.603 1.967-4.769 4.456l-0.001 0.015v2.62h-2v10.42h13.36v-10.42zM29.86 29.86h-9.080v-6.16h9.080z"/>
</symbol></defs></svg>