<svg aria-hidden="true" style="position: absolute; width: 0; height: 0; overflow: hidden;" version="1.1" xmlns="http://www.w3.org/2000/svg" xmlns:xlink="http://www.w3.org/1999/xlink"><defs><symbol id="dds__debug" viewBox="0 0 32 32">
<title>dds__debug</title>
<path d="M10 8.32c0.636-0.353 1.378-0.672 2.153-0.916l0.087-0.024c0.489-1.696 2.027-2.915 3.85-2.915s3.361 1.219 3.843 2.887l0.007 0.028c0.873 0.286 1.613 0.605 2.32 0.979l-0.080-0.039c-0.114-1.923-1.117-3.589-2.6-4.607l-0.020-0.013 1.24-2.86-1.88-0.84-1.22 2.82c-0.506-0.151-1.089-0.245-1.692-0.26l-0.008-0c-0.604 0.016-1.181 0.11-1.727 0.272l0.047-0.012-1.22-2.82-1.88 0.86 1.24 2.84c-1.441 1.060-2.386 2.722-2.46 4.609l-0 0.011zM0.98 32h3.66l2.94-3.78c2.057 2.356 5.066 3.835 8.42 3.835s6.363-1.48 8.409-3.822l0.011-0.013 2.94 3.78h4v-2.16h-3l-2.66-3.42c0.809-1.325 1.363-2.891 1.555-4.567l0.005-0.053 1.8-1.64h2.36v-2.16h-3.16l-1 0.92c-0.159-1.545-0.607-2.955-1.289-4.22l0.029 0.060-1.84 1.24c0.706 1.29 1.127 2.825 1.14 4.456l0 0.004c0 0.14 0 0.26 0 0.4v0c-0.133 5.049-4.237 9.097-9.296 9.14l-0.004 0c-2.857-0.013-5.403-1.337-7.066-3.402l-0.014-0.018zM2.94 20.16l1.060 1.040 0.64-0.44 2.1-1.46c0.336-2.957 1.995-5.468 4.361-6.957l0.039-0.023c0.575-0.36 1.238-0.666 1.939-0.884l0.061-0.016c0.851-0.306 1.832-0.488 2.854-0.5l0.006-0c0.875 0.017 1.713 0.148 2.509 0.377l-0.069-0.017 2.14-1.46-0.58-0.26c-1.184-0.486-2.559-0.768-4-0.768s-2.816 0.282-4.072 0.794l0.072-0.026c-0.724 0.267-1.344 0.57-1.927 0.927l0.047-0.027c-0.879 0.547-1.639 1.162-2.317 1.857l-0.003 0.003-3.16-4.18h-4v2h3l2.92 3.86c-0.941 1.415-1.588 3.104-1.814 4.923l-0.006 0.057-1-0.98h-3.16v2.1zM4.16 26.72l27.84-19.2-1.16-1.74-30.84 21.26 1.16 1.74z"/>
</symbol></defs></svg>