<svg aria-hidden="true" style="position: absolute; width: 0; height: 0; overflow: hidden;" version="1.1" xmlns="http://www.w3.org/2000/svg" xmlns:xlink="http://www.w3.org/1999/xlink"><defs><symbol id="dds__location" viewBox="0 0 32 32">
<title>dds__location</title>
<path d="M16 2.14c0.004 0 0.008 0 0.013 0 4.705 0 8.52 3.815 8.52 8.52 0 1.577-0.428 3.053-1.175 4.32l0.022-0.040-7.38 12.8-7.38-12.8c-0.725-1.227-1.153-2.703-1.153-4.28 0-4.705 3.815-8.52 8.52-8.52 0.005 0 0.009 0 0.014 0h-0.001zM16 0c-5.887 0-10.66 4.773-10.66 10.66v0c0.003 1.965 0.53 3.806 1.448 5.392l-0.028-0.052 9.24 16 9.24-16c0.89-1.534 1.417-3.375 1.42-5.339v-0.001c0-5.887-4.773-10.66-10.66-10.66v0zM16 8.88c0.983 0 1.78 0.797 1.78 1.78s-0.797 1.78-1.78 1.78c-0.983 0-1.78-0.797-1.78-1.78v0c0-0.983 0.797-1.78 1.78-1.78v0zM16 6.76c-2.209 0-4 1.791-4 4s1.791 4 4 4c2.209 0 4-1.791 4-4v0c0-2.209-1.791-4-4-4v0z"/>
</symbol></defs></svg>