<svg aria-hidden="true" style="position: absolute; width: 0; height: 0; overflow: hidden;" version="1.1" xmlns="http://www.w3.org/2000/svg" xmlns:xlink="http://www.w3.org/1999/xlink"><defs><symbol id="dds__manage-info" viewBox="0 0 32 32">
<title>dds__manage-info</title>
<path d="M0 3.5v25h32v-25zM29.86 5.64v4h-27.72v-4zM2.14 26.36v-14.66h27.72v14.66zM4.82 23.68h8.74v-8.74h-8.74zM6.96 17.080h4.46v4.46h-4.46zM27.72 22.6c0 0.006 0 0.013 0 0.020 0 0.596-0.484 1.080-1.080 1.080s-1.080-0.484-1.080-1.080c0-0.596 0.484-1.080 1.080-1.080 0.007 0 0.014 0 0.021 0h-0.001c0.581 0.011 1.049 0.479 1.060 1.059v0.001z"/>
</symbol></defs></svg>