<svg aria-hidden="true" style="position: absolute; width: 0; height: 0; overflow: hidden;" version="1.1" xmlns="http://www.w3.org/2000/svg" xmlns:xlink="http://www.w3.org/1999/xlink"><defs><symbol id="dds__power-supply" viewBox="0 0 32 32">
<title>dds__power-supply</title>
<path d="M28.44 8v-1h-5.92v-7h-3.28v6.92h-6.46v-6.92h-3.28v6.92h-5.88v1c0 0.4-0.52 10 4 14.72 1.282 1.38 3.036 2.306 5.005 2.517l0.035 0.003v6.84h6.8v-6.84c2.014-0.215 3.776-1.148 5.055-2.535l0.005-0.006c2.66-2.18 3.86-7.24 3.92-14.62zM17.34 23.1v6.78h-2.66v-6.8h-1.080c-0.053 0.002-0.115 0.003-0.177 0.003-1.728 0-3.285-0.73-4.38-1.899l-0.003-0.003c-3.040-3.18-3.36-9.66-3.36-12.12h20.68c-0.26 9.7-2.98 14.32-9.020 14.040z"/>
</symbol></defs></svg>