<svg aria-hidden="true" style="position: absolute; width: 0; height: 0; overflow: hidden;" version="1.1" xmlns="http://www.w3.org/2000/svg" xmlns:xlink="http://www.w3.org/1999/xlink"><defs><symbol id="dds__wrench-tools" viewBox="0 0 32 32">
<title>dds__wrench-tools</title>
<path d="M12.86 22.16l-6.72 6.72c-0.362 0.365-0.865 0.592-1.42 0.592s-1.058-0.226-1.42-0.591l-0-0c-0.365-0.363-0.592-0.865-0.592-1.42s0.226-1.058 0.591-1.42l8.32-8.32-0.32-1.16-0.76-0.74-8.72 8.72c-0.741 0.727-1.2 1.738-1.2 2.857 0 0.022 0 0.044 0.001 0.066l-0-0.003c-0 0.013-0 0.028-0 0.043 0 1.119 0.459 2.13 1.2 2.856l0.001 0.001c0.727 0.741 1.738 1.2 2.857 1.2 0.015 0 0.030-0 0.045-0l-0.002 0c0.019 0 0.041 0 0.063 0 1.119 0 2.13-0.459 2.856-1.2l0.001-0.001 6.36-6.36-0.9-0.88-0.26-0.94zM15.88 12.16c-0.272-0.713-0.433-1.536-0.44-2.397l-0-0.003c0.012-3.989 3.249-7.219 7.24-7.219 0.324 0 0.644 0.021 0.957 0.063l-0.037-0.004-1.76 1.76c-0.741 0.727-1.2 1.738-1.2 2.857 0 0.015 0 0.030 0 0.045l-0-0.002c-0 0.019-0 0.041-0 0.063 0 1.119 0.459 2.13 1.2 2.856l0.001 0.001c0.756 0.72 1.781 1.164 2.91 1.164s2.154-0.443 2.912-1.165l-0.002 0.002 2-2c0.119 0.484 0.192 1.041 0.2 1.615l0 0.005c-0.014 3.278-2.209 6.039-5.209 6.907l-0.051 0.013 1.66 1.68c3.377-1.432 5.703-4.719 5.703-8.55 0-1.466-0.341-2.853-0.947-4.085l0.024 0.054-0.64-1.36-4.22 4.22c-0.363 0.365-0.865 0.592-1.42 0.592s-1.058-0.226-1.42-0.591l-0-0c-0.365-0.363-0.592-0.865-0.592-1.42s0.226-1.058 0.591-1.42l4.18-4.18-1.52-0.58c-0.988-0.409-2.134-0.65-3.336-0.66l-0.004-0c-5.115 0.011-9.264 4.132-9.32 9.235l-0 0.005 2.48 2.48zM24 18.98l-3-2.98-6.3-2-4.7-4.74-0.32-4.72-6.22-3.48-3.46 3.46 3.58 6.22h4.9l4.7 4.72 1.84 6.54 8.34 8.34c0.762 0.764 1.816 1.238 2.98 1.24h0c1.17-0.006 2.229-0.478 3-1.24l-0 0c0.768-0.767 1.244-1.828 1.244-3s-0.475-2.233-1.244-3l-0-0-5.34-5.36zM4.8 8.64l-2.16-3.78 1.18-1.18 3.82 2.14 0.16 2.84zM27.84 28.84c-0.381 0.389-0.913 0.63-1.5 0.63s-1.119-0.241-1.5-0.63l-8-8-1.16-4.32 4.18 1.36 8 8c0.366 0.381 0.592 0.899 0.592 1.47 0 0.581-0.234 1.107-0.612 1.49l0-0z"/>
</symbol></defs></svg>