<svg aria-hidden="true" style="position: absolute; width: 0; height: 0; overflow: hidden;" version="1.1" xmlns="http://www.w3.org/2000/svg" xmlns:xlink="http://www.w3.org/1999/xlink"><defs><symbol id="dds__user-about" viewBox="0 0 32 32">
<title>dds__user-about</title>
<path d="M21.86 8.48h10.14v2.14h-10.14zM21.86 12.36h10.14v2.14h-10.14zM12 17.74c3.722-0 6.74-3.018 6.74-6.74s-3.018-6.74-6.74-6.74c-3.722 0-6.74 3.018-6.74 6.74 0 0.007 0 0.014 0 0.021v-0.001c0.023 3.709 3.029 6.709 6.739 6.72h0.001zM12 6.4c2.532 0.011 4.58 2.066 4.58 4.6 0 2.54-2.059 4.6-4.6 4.6-2.533 0-4.589-2.048-4.6-4.579v-0.001c0-2.552 2.068-4.62 4.62-4.62v0zM18.34 17.020l-0.66-0.44-0.62 0.52c-1.374 1.102-3.139 1.769-5.060 1.769s-3.686-0.667-5.076-1.782l0.016 0.012-0.6-0.52-0.66 0.44c-3.001 2.24-5.059 5.601-5.553 9.45l-0.007 0.070-0.12 1.18h24l-0.12-1.18c-0.496-3.917-2.547-7.277-5.504-9.494l-0.036-0.026zM2.48 25.6c0.547-2.561 1.886-4.747 3.745-6.347l0.015-0.013c1.617 1.11 3.616 1.772 5.77 1.772s4.153-0.662 5.805-1.795l-0.035 0.023c1.863 1.621 3.2 3.803 3.746 6.283l0.014 0.077z"/>
</symbol></defs></svg>