<svg aria-hidden="true" style="position: absolute; width: 0; height: 0; overflow: hidden;" version="1.1" xmlns="http://www.w3.org/2000/svg" xmlns:xlink="http://www.w3.org/1999/xlink"><defs><symbol id="dds__calculator" viewBox="0 0 32 32">
<title>dds__calculator</title>
<path d="M4 0v32h24v-32zM25.86 2.14v6.66h-19.72v-6.66zM6.14 29.86v-18.92h19.72v18.92zM12.74 12.88h2.12v2.14h-2.12zM12.74 17.16h2.12v2.12h-2.12zM12.74 21.42h2.12v2.14h-2.12zM12.74 25.7h2.12v2.12h-2.12zM8.46 12.88h2.14v2.14h-2.14zM8.46 17.16h2.14v2.12h-2.14zM8.46 21.42h2.14v2.14h-2.14zM8.46 25.7h2.14v2.12h-2.14zM17 12.88h2.14v2.14h-2.14zM17 17.16h2.14v2.12h-2.14zM17 21.42h2.14v2.14h-2.14zM17 25.7h2.14v2.12h-2.14zM21.26 12.88h2.14v2.14h-2.14zM21.26 17.16h2.14v2.12h-2.14zM21.26 21.42h2.14v6.42h-2.14z"/>
</symbol></defs></svg>