<svg aria-hidden="true" style="position: absolute; width: 0; height: 0; overflow: hidden;" version="1.1" xmlns="http://www.w3.org/2000/svg" xmlns:xlink="http://www.w3.org/1999/xlink"><defs><symbol id="dds__currency-coins-pounds" viewBox="0 0 32 32">
<title>dds__currency-coins-pounds</title>
<path d="M18.16 0c-3.115 0.018-5.988 1.035-8.319 2.748l0.040-0.028c1.081-0.294 2.323-0.462 3.604-0.462 0.090 0 0.18 0.001 0.269 0.002l-0.013-0c0.126-0.006 0.274-0.009 0.422-0.009 0.557 0 1.104 0.047 1.635 0.137l-0.057-0.008c0.615-0.16 1.32-0.252 2.048-0.252 0.159 0 0.317 0.004 0.474 0.013l-0.022-0.001c6.414 0.034 11.6 5.241 11.6 11.66 0 0 0 0 0 0v0c-0.015 0.888-0.094 1.745-0.234 2.581l0.014-0.101c0.081 0.485 0.127 1.045 0.127 1.615 0 0.135-0.003 0.27-0.008 0.404l0.001-0.019c-0.049 1.346-0.214 2.624-0.486 3.862l0.026-0.142c1.698-2.242 2.72-5.079 2.72-8.153 0-0.016-0-0.033-0-0.049v0.003c0-0.024 0-0.052 0-0.081 0-7.577-6.143-13.72-13.72-13.72-0.042 0-0.084 0-0.127 0.001l0.006-0zM12 18.88v2.5c0.009 0.105 0.014 0.226 0.014 0.349 0 0.927-0.298 1.785-0.803 2.483l0.009-0.012h8.64v2h-12.14v-2h0.9c0.396-0.153 0.693-0.483 0.798-0.891l0.002-0.009c0.217-0.543 0.343-1.172 0.343-1.831 0-0.059-0.001-0.119-0.003-0.178l0 0.009v-0.12l-0.12-2.6h-2v-2h2l-0.1-2.9c-0.003-0.068-0.005-0.147-0.005-0.227 0-1.355 0.561-2.579 1.464-3.451l0.001-0.001c0.948-0.916 2.242-1.481 3.667-1.481 0.033 0 0.066 0 0.098 0.001l-0.005-0c0.044-0.001 0.097-0.002 0.149-0.002 1.283 0 2.457 0.47 3.357 1.248l-0.007-0.006c0.851 0.819 1.379 1.968 1.38 3.24v0h-2.16c0.004-0.053 0.006-0.116 0.006-0.179 0-0.721-0.31-1.37-0.805-1.82l-0.002-0.002c-0.579-0.485-1.331-0.78-2.152-0.78-0.003 0-0.005 0-0.008 0h0c-0.79 0.024-1.496 0.365-1.999 0.899l-0.001 0.001c-0.501 0.588-0.805 1.357-0.805 2.197 0 0.064 0.002 0.129 0.005 0.192l-0-0.009 0.080 3h3.74v2h-3.54zM13.8 6.54c6.44 0 11.66 5.22 11.66 11.66s-5.22 11.66-11.66 11.66c-6.44 0-11.66-5.22-11.66-11.66v0c0-6.44 5.22-11.66 11.66-11.66v0zM13.8 4.4c-7.622 0-13.8 6.178-13.8 13.8s6.178 13.8 13.8 13.8c7.622 0 13.8-6.178 13.8-13.8v0c0-7.622-6.178-13.8-13.8-13.8v0z"/>
</symbol></defs></svg>