<svg aria-hidden="true" style="position: absolute; width: 0; height: 0; overflow: hidden;" version="1.1" xmlns="http://www.w3.org/2000/svg" xmlns:xlink="http://www.w3.org/1999/xlink"><defs><symbol id="dds__view-list" viewBox="0 0 32 32">
<title>dds__view-list</title>
<path d="M5.38 4.78h26.62v2.14h-26.62zM3.2 5.84c0 0.884-0.716 1.6-1.6 1.6v0c-0.884 0-1.6-0.716-1.6-1.6s0.716-1.6 1.6-1.6c0.884 0 1.6 0.716 1.6 1.6v0zM5.38 11.5h26.62v2.14h-26.62zM3.2 12.58c-0.011 0.875-0.723 1.58-1.6 1.58-0.884 0-1.6-0.716-1.6-1.6s0.716-1.6 1.6-1.6v0c0 0 0 0 0 0 0.884 0 1.6 0.716 1.6 1.6 0 0.007-0 0.014-0 0.021v-0.001zM5.38 18.32h26.62v2.14h-26.62zM3.2 19.38c0 0.884-0.716 1.6-1.6 1.6s-1.6-0.716-1.6-1.6c0-0.884 0.716-1.6 1.6-1.6v0c0.884 0 1.6 0.716 1.6 1.6v0zM5.38 25.080h26.62v2.14h-26.62zM3.2 26.16c0 0.884-0.716 1.6-1.6 1.6s-1.6-0.716-1.6-1.6c0-0.884 0.716-1.6 1.6-1.6v0c0.884 0 1.6 0.716 1.6 1.6v0z"/>
</symbol></defs></svg>