<svg aria-hidden="true" style="position: absolute; width: 0; height: 0; overflow: hidden;" version="1.1" xmlns="http://www.w3.org/2000/svg" xmlns:xlink="http://www.w3.org/1999/xlink"><defs><symbol id="dds__wrench-double" viewBox="0 0 32 32">
<title>dds__wrench-double</title>
<path d="M30.84 3.020l-3.32 3.34c-0.247 0.225-0.578 0.362-0.94 0.362s-0.693-0.138-0.941-0.364l0.001 0.001c-0.238-0.242-0.385-0.574-0.385-0.94s0.147-0.698 0.385-0.94l-0 0 3.32-3.34-1.4-0.58c-0.82-0.351-1.775-0.555-2.777-0.555-3.988 0-7.22 3.232-7.22 7.22 0 0.755 0.116 1.483 0.331 2.167l-0.014-0.051-8.54 8.54c-0.633-0.201-1.361-0.317-2.115-0.317-3.987 0-7.22 3.232-7.22 7.22 0 1.002 0.204 1.957 0.573 2.824l-0.018-0.047 0.6 1.4 3.32-3.32c0.244-0.233 0.575-0.377 0.94-0.377s0.696 0.144 0.941 0.378l-0-0c0.238 0.242 0.385 0.574 0.385 0.94s-0.147 0.698-0.385 0.94l-3.32 3.32 1.4 0.6c0.843 0.373 1.826 0.59 2.859 0.59 2.011 0 3.831-0.823 5.14-2.149l0.001-0.001c1.3-1.302 2.104-3.1 2.104-5.086 0-0.762-0.118-1.496-0.338-2.185l0.014 0.051 8.54-8.54c0.633 0.201 1.361 0.317 2.115 0.317 3.988 0 7.22-3.232 7.22-7.22 0-1.002-0.204-1.957-0.573-2.824l0.018 0.047zM28.44 10.88c-0.932 0.939-2.223 1.521-3.65 1.521-0.718 0-1.403-0.147-2.024-0.414l0.033 0.013-0.64-0.26-10.44 10.42 0.28 0.64c0.257 0.591 0.407 1.28 0.407 2.004 0 1.42-0.576 2.706-1.507 3.636l-0 0c-0.946 0.933-2.246 1.51-3.68 1.51-0.113 0-0.224-0.004-0.335-0.011l0.015 0.001 0.96-0.96c0.612-0.612 0.99-1.457 0.99-2.39s-0.378-1.778-0.99-2.39v0c-0.62-0.593-1.462-0.958-2.39-0.958s-1.77 0.365-2.391 0.959l0.001-0.001-1.080 0.96c-0.007-0.1-0.011-0.217-0.011-0.335 0-1.43 0.577-2.725 1.511-3.665l-0 0c0.936-0.967 2.245-1.567 3.695-1.567 0.724 0 1.413 0.15 2.038 0.42l-0.033-0.013 0.64 0.26 10.44-10.44-0.28-0.62c-0.271-0.606-0.428-1.314-0.428-2.058 0-2.85 2.31-5.16 5.16-5.16 0.151 0 0.3 0.006 0.447 0.019l-0.019-0.001-0.96 0.96c-0.624 0.617-1.011 1.473-1.011 2.42 0 1.878 1.523 3.401 3.401 3.401 0.932 0 1.776-0.375 2.39-0.982l-0 0 1.020-0.96c0.006 0.095 0.010 0.205 0.010 0.317 0 1.459-0.601 2.778-1.569 3.722l-0.001 0.001z"/>
</symbol></defs></svg>