<svg aria-hidden="true" style="position: absolute; width: 0; height: 0; overflow: hidden;" version="1.1" xmlns="http://www.w3.org/2000/svg" xmlns:xlink="http://www.w3.org/1999/xlink"><defs><symbol id="dds__eye-view-off" viewBox="0 0 32 32">
<title>dds__eye-view-off</title>
<path d="M3.68 20.46l1.84-1.24c-1.143-0.934-2.132-1.994-2.967-3.17l-0.033-0.050c2.245-3.147 5.544-5.416 9.373-6.299l0.107-0.021c-2.092 1.331-3.46 3.638-3.46 6.264 0 0.020 0 0.039 0 0.059l-0-0.003c0.014 0.402 0.050 0.782 0.107 1.154l-0.007-0.054 2-1.38c0.153-2.826 2.482-5.060 5.333-5.060 0.010 0 0.019 0 0.029 0h-0.001c0.619 0.004 1.21 0.121 1.754 0.332l-0.034-0.011 4.28-2.98c-1.795-0.621-3.865-0.98-6.018-0.98-0.036 0-0.072 0-0.108 0l0.006-0c-0.090-0.002-0.196-0.003-0.302-0.003-6.62 0-12.406 3.574-15.532 8.898l-0.046 0.085c1.002 1.715 2.226 3.175 3.657 4.401l0.023 0.019zM28.2 11.62l-1.82 1.24c1.16 0.917 2.167 1.949 3.029 3.097l0.031 0.043c-2.291 3.061-5.554 5.283-9.326 6.216l-0.114 0.024c2.080-1.332 3.443-3.625 3.46-6.238v-0.002c-0.014-0.402-0.050-0.782-0.107-1.154l0.007 0.054-2 1.38c-0.153 2.826-2.482 5.060-5.333 5.060-0.010 0-0.019-0-0.029-0h0.001c-0.621-0.015-1.21-0.131-1.758-0.332l0.038 0.012-2 1.34h-0.060l-2.22 1.64c1.762 0.584 3.791 0.92 5.898 0.92 0.036 0 0.072-0 0.108-0l-0.006 0c0.038 0 0.083 0 0.128 0 6.69 0 12.554-3.536 15.826-8.84l0.046-0.080c-1.056-1.707-2.316-3.165-3.773-4.398l-0.027-0.022zM12.4 19.66l19.6-13.22-1.16-1.7-30.84 20.82 1.16 1.7 9.52-6.44z"/>
</symbol></defs></svg>