<svg aria-hidden="true" style="position: absolute; width: 0; height: 0; overflow: hidden;" version="1.1" xmlns="http://www.w3.org/2000/svg" xmlns:xlink="http://www.w3.org/1999/xlink"><defs><symbol id="dds__server-rack-support" viewBox="0 0 32 32">
<title>dds__server-rack-support</title>
<path d="M16.64 7.24h-14.16v-5.1h20.18v2.14c0.354-0.065 0.768-0.109 1.189-0.12l0.011-0c0.32 0 0.62 0 0.92 0v-4.16h-24.44v9.38h14.76c0.452-0.813 0.963-1.515 1.547-2.147l-0.007 0.008zM11.34 18.56h-8.86v-5.1h11.52c0.059-0.779 0.194-1.502 0.399-2.194l-0.019 0.074h-14v9.34h8.82l2.14-2.12zM22.24 24l-0.68 0.68h1.1v5.1h-6.2l-2.14 2.22h10.46v-7.86c-0.138 0.010-0.298 0.016-0.46 0.016s-0.322-0.006-0.481-0.017l0.021 0.001c-0.584-0.015-1.142-0.073-1.687-0.17l0.067 0.010zM0.34 22.62v9.38h4.54c-0.41-0.611-0.716-1.329-0.873-2.101l-0.007-0.039h-1.52v-5.1h2.7c0.079-0.112 0.164-0.211 0.259-0.299l0.001-0.001 1.82-1.84zM31.040 11.1l-0.6-1.46-3.58 3.58c-0.28 0.269-0.661 0.434-1.080 0.434s-0.8-0.166-1.081-0.435l0.001 0.001c-0.278-0.276-0.45-0.658-0.45-1.080s0.172-0.804 0.45-1.080l3.58-3.58-1.46-0.6c-0.898-0.388-1.943-0.614-3.042-0.614-4.33 0-7.84 3.51-7.84 7.84 0 0.841 0.132 1.65 0.377 2.41l-0.015-0.055-9.32 9.32c-0.66 0.66-1.069 1.572-1.069 2.58 0 2.015 1.634 3.649 3.649 3.649 1.008 0 1.92-0.408 2.58-1.069v0l9.3-9.32c0.71 0.234 1.528 0.369 2.377 0.369 4.33 0 7.84-3.51 7.84-7.84 0-1.101-0.227-2.149-0.637-3.1l0.020 0.051zM27.84 18.2c-1.034 1.031-2.462 1.669-4.038 1.669-0.802 0-1.566-0.165-2.259-0.463l0.037 0.014-0.66-0.26-10.28 10.28c-0.284 0.26-0.663 0.419-1.080 0.419s-0.796-0.159-1.081-0.421l0.001 0.001c-0.284-0.275-0.465-0.655-0.48-1.077l-0-0.003c-0-0.003-0-0.007-0-0.010 0-0.417 0.168-0.795 0.44-1.070l-0 0 10.32-10.28-0.26-0.66c-0.293-0.666-0.464-1.443-0.464-2.26 0-3.164 2.561-5.731 5.723-5.74h0.581l-1.14 1.14c-0.658 0.662-1.064 1.573-1.064 2.58s0.406 1.918 1.064 2.58l-0-0c0.67 0.639 1.579 1.032 2.58 1.032s1.91-0.393 2.581-1.034l-0.001 0.001 1.14-1.14c0.081 0.321 0.127 0.691 0.127 1.070 0 1.473-0.696 2.784-1.776 3.622l-0.010 0.008z"/>
</symbol></defs></svg>