<svg aria-hidden="true" style="position: absolute; width: 0; height: 0; overflow: hidden;" version="1.1" xmlns="http://www.w3.org/2000/svg" xmlns:xlink="http://www.w3.org/1999/xlink"><defs><symbol id="dds__lcd" viewBox="0 0 32 32">
<title>dds__lcd</title>
<path d="M32 21.5v-18h-32v18h12.5v4.96h-5v2.12h17v-2.12h-5v-4.96zM17.36 21.5v4.94h-2.72v-4.94zM2.14 5.5h27.72v13.8h-27.72zM6.88 7.84h-1.5v9.22h5.72v-1.28h-4.22zM17.080 14c-0.036 0.564-0.274 1.066-0.64 1.44l0-0c-0.343 0.253-0.773 0.405-1.239 0.405-0.050 0-0.099-0.002-0.147-0.005l0.007 0c-0.022 0.001-0.049 0.002-0.075 0.002-0.62 0-1.168-0.306-1.501-0.776l-0.004-0.006c-0.355-0.571-0.566-1.264-0.566-2.007 0-0.075 0.002-0.15 0.006-0.224l-0 0.010v-0.84c-0.005-0.072-0.008-0.156-0.008-0.24 0-0.752 0.227-1.452 0.616-2.033l-0.008 0.013c0.369-0.477 0.942-0.781 1.585-0.781 0.019 0 0.038 0 0.057 0.001l-0.003-0c0.036-0.003 0.079-0.004 0.121-0.004 0.459 0 0.879 0.168 1.201 0.446l-0.002-0.002c0.337 0.387 0.557 0.884 0.599 1.431l0.001 0.008v0.14h1.52v-0.14c-0.055-0.897-0.442-1.695-1.039-2.279l-0.001-0.001c-0.59-0.524-1.371-0.843-2.226-0.843-0.054 0-0.108 0.001-0.161 0.004l0.008-0c-0.024-0.001-0.052-0.001-0.080-0.001-0.71 0-1.374 0.201-1.936 0.55l0.016-0.009c-0.57 0.363-1.016 0.874-1.291 1.479l-0.009 0.021c-0.292 0.617-0.462 1.34-0.462 2.103 0 0.048 0.001 0.096 0.002 0.144l-0-0.007v0.86c-0.005 0.077-0.007 0.167-0.007 0.258 0 1.091 0.372 2.095 0.995 2.892l-0.008-0.010c0.613 0.725 1.523 1.182 2.54 1.182 0.035 0 0.071-0.001 0.106-0.002l-0.005 0c0.059 0.004 0.129 0.006 0.199 0.006 0.854 0 1.637-0.304 2.247-0.81l-0.006 0.005c0.623-0.575 1.032-1.374 1.099-2.268l0.001-0.011v-0.1h-1.48zM24.66 8.38c-0.576-0.34-1.269-0.542-2.010-0.542-0.039 0-0.077 0.001-0.116 0.002l0.006-0h-2.68v9.22h2.62c0.032 0.001 0.069 0.001 0.107 0.001 0.762 0 1.476-0.201 2.094-0.552l-0.021 0.011c0.63-0.354 1.13-0.873 1.451-1.5l0.009-0.020c0.316-0.644 0.501-1.402 0.501-2.203 0-0.027-0-0.054-0.001-0.081l0 0.004v-0.56c-0.005-0.789-0.197-1.531-0.533-2.188l0.013 0.028c-0.306-0.686-0.803-1.241-1.424-1.611l-0.016-0.009zM25.14 12.18v0.52c0.005 0.066 0.007 0.143 0.007 0.22 0 0.783-0.274 1.502-0.732 2.066l0.005-0.006c-0.455 0.496-1.106 0.806-1.83 0.806-0.060 0-0.119-0.002-0.178-0.006l0.008 0h-1.080v-6.66h1.2c0.061-0.005 0.132-0.009 0.203-0.009 0.714 0 1.355 0.312 1.794 0.806l0.002 0.002c0.386 0.535 0.617 1.204 0.617 1.927 0 0.117-0.006 0.233-0.018 0.347l0.001-0.014z"/>
</symbol></defs></svg>