<svg aria-hidden="true" style="position: absolute; width: 0; height: 0; overflow: hidden;" version="1.1" xmlns="http://www.w3.org/2000/svg" xmlns:xlink="http://www.w3.org/1999/xlink"><defs><symbol id="dds__pie-chart-solid" viewBox="0 0 32 32">
<title>dds__pie-chart-solid</title>
<path d="M16 0c-8.837 0-16 7.163-16 16s7.163 16 16 16c8.837 0 16-7.163 16-16v0c0-8.837-7.163-16-16-16v0zM29.86 16c0 0.002 0 0.005 0 0.007 0 3.465-1.28 6.63-3.394 9.049l0.014-0.016-0.38-0.36-8.44-8.44 11.040-5.78c0.733 1.631 1.16 3.534 1.16 5.538 0 0.001 0 0.001 0 0.002v-0zM2.24 17.6v0c-0.010-0.164-0.015-0.357-0.015-0.55s0.006-0.386 0.017-0.576l-0.001 0.026c0-0.16 0-0.32 0-0.5 0-0.004 0-0.008 0-0.013 0-1.877 0.375-3.667 1.054-5.298l-0.034 0.091 0.74 0.42v11.6c-0.975-1.473-1.611-3.249-1.758-5.163l-0.002-0.037zM23.040 24.7l1.88 1.88c-0.551 0.45-1.165 0.88-1.811 1.262l-0.069 0.038zM21.040 22.7v6.12c-0.633 0.25-1.397 0.477-2.183 0.643l-0.097 0.017v-9.040zM6 12.2l2.28 1.16v14c-0.851-0.61-1.597-1.267-2.272-1.991l-0.008-0.009v-13.16zM10.24 14.36l2.28 1.16v13.8c-0.875-0.223-1.634-0.504-2.354-0.852l0.074 0.032zM14.5 16.52l0.72 0.36 1.56 1.58v11.26h-0.74c-0.23 0.015-0.499 0.023-0.77 0.023s-0.54-0.008-0.807-0.025l0.037 0.002zM16.92 2.2c4.528 0.33 8.425 2.767 10.747 6.326l0.033 0.054-10.78 5.66zM14.78 2.2v12l-0.28-0.14-10.34-5.24c2.281-3.661 6.118-6.167 10.563-6.596l0.057-0.004z"/>
</symbol></defs></svg>