<svg aria-hidden="true" style="position: absolute; width: 0; height: 0; overflow: hidden;" version="1.1" xmlns="http://www.w3.org/2000/svg" xmlns:xlink="http://www.w3.org/1999/xlink"><defs><symbol id="dds__audio-speaker-mute" viewBox="0 0 32 32">
<title>dds__audio-speaker-mute</title>
<path d="M6.78 19.020h-4.14v-6h4.24l6.68-7.36 1.16-0.22v8l2-1.4v-9.040l-4.22 0.8-6.5 7.18h-5.38v10h3.38zM14.72 26.56l-1.16-0.22-3.020-3.3-1.68 1.16 3.66 4 4.22 0.8v-10.28l-2 1.4zM27.24 4.8c-1.32-1.595-2.889-2.929-4.658-3.956l-0.082-0.044-1 1.78c1.55 0.927 2.87 2.050 3.981 3.358l0.019 0.022 1.7-1.18zM28.36 10.8c0.609 1.584 0.962 3.417 0.962 5.332 0 5.656-3.077 10.593-7.648 13.229l-0.074 0.039 1.020 1.78c5.271-3.057 8.759-8.672 8.759-15.103 0-2.341-0.462-4.574-1.301-6.613l0.042 0.116-1.76 1.22zM22 8.4c-0.586-0.594-1.242-1.116-1.955-1.554l-0.045-0.026-1.1 1.74c0.488 0.318 0.913 0.661 1.301 1.041l-0.001-0.001 1.8-1.2zM25.040 16c0-0.021 0-0.045 0-0.070 0-0.934-0.117-1.84-0.337-2.706l0.016 0.076-1.84 1.28c0.066 0.419 0.11 0.91 0.12 1.409l0 0.011c0 0.027 0 0.059 0 0.092 0 3.034-1.525 5.712-3.85 7.309l-0.030 0.020 1.1 1.74c2.925-1.989 4.82-5.302 4.82-9.058 0-0.036-0-0.072-0.001-0.108l0 0.005zM0 25.56l30.84-20.82 1.16 1.7-30.84 20.82z"/>
</symbol></defs></svg>