<svg aria-hidden="true" style="position: absolute; width: 0; height: 0; overflow: hidden;" version="1.1" xmlns="http://www.w3.org/2000/svg" xmlns:xlink="http://www.w3.org/1999/xlink"><defs><symbol id="dds__user-add" viewBox="0 0 32 32">
<title>dds__user-add</title>
<path d="M2.34 21.34c0.575-2.58 1.94-4.778 3.824-6.387l0.016-0.013c1.637 1.137 3.666 1.816 5.854 1.816 1.593 0 3.101-0.36 4.449-1.003l-0.062 0.027c0.917-0.841 1.972-1.551 3.124-2.088l0.076-0.032c-0.42-0.22-0.84-0.64-1.28-0.86l-0.64-0.42-0.64 0.42c-1.398 1.095-3.182 1.757-5.12 1.757s-3.722-0.661-5.138-1.77l0.018 0.014-0.42-0.42-0.86 0.42c-4.68 2.98-5.32 9.2-5.54 9.38v1.28h13.020c-0.005-0.105-0.008-0.228-0.008-0.351 0-0.628 0.076-1.237 0.219-1.821l-0.011 0.052zM23.46 14.94c-4.716 0-8.54 3.824-8.54 8.54s3.823 8.54 8.54 8.54c4.716 0 8.54-3.823 8.54-8.54 0-0.007 0-0.014-0-0.021v0.001c-0.023-4.703-3.835-8.509-8.539-8.52h-0.001zM23.46 29.86c-3.535 0-6.4-2.865-6.4-6.4s2.865-6.4 6.4-6.4c3.535 0 6.4 2.865 6.4 6.4v0c0.001 0.042 0.002 0.092 0.002 0.142 0 3.457-2.803 6.26-6.26 6.26-0.050 0-0.099-0.001-0.149-0.002l0.007 0zM24.54 18.98h-2.14v3.42h-3.42v2.14h3.42v3.46h2.14v-3.4h3.46v-2.2h-3.4zM12 13.48c3.714-0.011 6.72-3.025 6.72-6.74 0-3.722-3.018-6.74-6.74-6.74s-6.74 3.018-6.74 6.74v0c0.023 3.72 3.038 6.729 6.759 6.74h0.001zM12 2.14c2.532 0.011 4.58 2.066 4.58 4.6 0 2.54-2.059 4.6-4.6 4.6s-4.6-2.059-4.6-4.6v0c0.011-2.543 2.075-4.6 4.62-4.6 0 0 0 0 0 0v0z"/>
</symbol></defs></svg>