<svg aria-hidden="true" style="position: absolute; width: 0; height: 0; overflow: hidden;" version="1.1" xmlns="http://www.w3.org/2000/svg" xmlns:xlink="http://www.w3.org/1999/xlink"><defs><symbol id="dds__volume" viewBox="0 0 32 32">
<title>dds__volume</title>
<path d="M29 16v-9.1c0-3.88-5.72-6.9-13-6.9s-13 3.020-13 6.9v9.1c0 4.66 0 9.36 0 9.46 0.36 3.74 5.94 6.54 13 6.54s12.58-2.78 12.98-6.46c0 0 0-4.84 0-9.5v-0.040zM26.86 16c0 2.24-4.48 4.74-10.86 4.74s-10.84-2.48-10.86-4.74v-5.28c2.811 1.94 6.291 3.099 10.042 3.099 0.288 0 0.574-0.007 0.858-0.020l-0.040 0.002c0.244 0.012 0.53 0.019 0.818 0.019 3.751 0 7.231-1.159 10.102-3.138l-0.060 0.039v5.28zM16 2.14c6.4 0 10.86 2.5 10.86 4.76s-4.46 4.76-10.86 4.76-10.86-2.52-10.86-4.76 4.46-4.76 10.86-4.76zM16 29.86c-6.24 0-10.66-2.36-10.86-4.52v-5.5c2.805 1.929 6.275 3.080 10.014 3.080 0.297 0 0.593-0.007 0.887-0.022l-0.041 0.002c0.249 0.012 0.541 0.020 0.834 0.020 3.743 0 7.217-1.151 10.087-3.119l-0.061 0.039c0 2.96 0 5.32 0 5.46-0.24 2.2-4.66 4.56-10.86 4.56z"/>
</symbol></defs></svg>