<svg aria-hidden="true" style="position: absolute; width: 0; height: 0; overflow: hidden;" version="1.1" xmlns="http://www.w3.org/2000/svg" xmlns:xlink="http://www.w3.org/1999/xlink"><defs><symbol id="dds__user-group-disable" viewBox="0 0 32 32">
<title>dds__user-group-disable</title>
<path d="M10.32 16c3.048-0 5.52-2.471 5.52-5.52s-2.471-5.52-5.52-5.52-5.52 2.471-5.52 5.52c0 0.021 0 0.042 0 0.063l-0-0.003c0 0.003 0 0.006 0 0.009 0 1.19 0.382 2.292 1.031 3.187l-0.011-0.016c1.023 1.389 2.652 2.28 4.489 2.28 0.004 0 0.007 0 0.011 0h-0.001zM10.32 7.040c1.911 0 3.46 1.549 3.46 3.46s-1.549 3.46-3.46 3.46c-1.897 0-3.437-1.526-3.46-3.418l-0-0.002c0.011-1.902 1.556-3.44 3.46-3.44 0 0 0 0 0 0v0zM26 15.78c1.416 1.311 2.474 2.989 3.021 4.884l0.019 0.076h-7.94c0.207 0.524 0.419 1.192 0.593 1.874l0.027 0.126h9.62l-0.12-1.14c-0.392-2.785-1.712-5.208-3.633-6.993l-0.007-0.007zM18.42 12.4l1.88-1.26c-1.239-0.528-2.094-1.734-2.1-3.139v-0.001c-0-0.015-0-0.032-0-0.050 0-1.911 1.549-3.46 3.46-3.46 1.894 0 3.432 1.521 3.46 3.408l0 0.003 1.88-1.26c-0.631-2.393-2.776-4.13-5.327-4.13-2.389 0-4.422 1.523-5.182 3.651l-0.012 0.038c0.911 1.195 1.476 2.697 1.52 4.33l0 0.010c-0.005 0.47-0.056 0.925-0.148 1.366l0.008-0.046zM18.78 20.6l-1.74 1.16c0.2 0.431 0.391 0.949 0.542 1.484l0.018 0.076h-2.84l-3.040 2h8.28l-0.12-1.14c-0.192-1.357-0.578-2.583-1.132-3.712l0.032 0.072zM17.46 18.52v0l14.54-9.82-1.16-1.7-30.84 20.82 1.16 1.7 14.68-10zM5.76 18.72c0.575 0.376 1.239 0.689 1.944 0.905l0.056 0.015 2.24-1.64h0.12c-1.412-0.026-2.7-0.535-3.71-1.368l0.010 0.008-0.58-0.48-0.64 0.42c-2.412 1.798-4.060 4.506-4.435 7.607l-0.005 0.053v0.1l2.5-1.68c0.47-1.601 1.354-2.958 2.531-3.992l0.009-0.008z"/>
</symbol></defs></svg>