<svg aria-hidden="true" style="position: absolute; width: 0; height: 0; overflow: hidden;" version="1.1" xmlns="http://www.w3.org/2000/svg" xmlns:xlink="http://www.w3.org/1999/xlink"><defs><symbol id="dds__disc-software" viewBox="0 0 32 32">
<title>dds__disc-software</title>
<path d="M16 0c-8.837 0-16 7.163-16 16s7.163 16 16 16c8.837 0 16-7.163 16-16v0c0-8.837-7.163-16-16-16v0zM16 29.86c-7.655 0-13.86-6.205-13.86-13.86s6.205-13.86 13.86-13.86c7.655 0 13.86 6.205 13.86 13.86v0c-0.011 7.65-6.21 13.849-13.859 13.86h-0.001zM16 11.080c-2.717 0-4.92 2.203-4.92 4.92s2.203 4.92 4.92 4.92c2.717 0 4.92-2.203 4.92-4.92v0c0-2.717-2.203-4.92-4.92-4.92v0zM16 18.78c-1.535 0-2.78-1.245-2.78-2.78s1.245-2.78 2.78-2.78c1.535 0 2.78 1.245 2.78 2.78v0c0 1.535-1.245 2.78-2.78 2.78v0z"/>
</symbol></defs></svg>