<svg aria-hidden="true" style="position: absolute; width: 0; height: 0; overflow: hidden;" version="1.1" xmlns="http://www.w3.org/2000/svg" xmlns:xlink="http://www.w3.org/1999/xlink"><defs><symbol id="dds__disc-system" viewBox="0 0 32 32">
<title>dds__disc-system</title>
<path d="M17.38 0c-8.063 0-14.6 6.537-14.6 14.6v0c0.007 0.838 0.079 1.655 0.213 2.45l-0.013-0.090h2.16c-0.153-0.703-0.24-1.511-0.24-2.339 0-0.007 0-0.015 0-0.022v0.001c-0-0.009-0-0.021-0-0.032 0-6.893 5.588-12.48 12.48-12.48s12.48 5.588 12.48 12.48c0 6.597-5.119 11.998-11.601 12.45l-0.039 0.002v2.12c7.719-0.415 13.821-6.775 13.821-14.56 0-8.052-6.528-14.58-14.58-14.58-0.028 0-0.057 0-0.085 0l0.004-0zM6 19.86l-0.58-0.78h-5.42v12.92h16.1v-11.4h-9.46l-0.64-0.74zM14 22.72v7.16h-11.86v-8.66h2.3l1.14 1.5zM21.88 14.6c0-2.485-2.015-4.5-4.5-4.5s-4.5 2.015-4.5 4.5v0c0.003 1.648 0.903 3.085 2.238 3.849l0.022 0.011c0.632 0.389 1.399 0.62 2.219 0.62 0.007 0 0.015-0 0.022-0h-0.001c0.126 0.015 0.272 0.024 0.42 0.024s0.294-0.009 0.437-0.025l-0.017 0.002c2.095-0.401 3.658-2.218 3.66-4.4v-0zM15.020 14.6c-0-0.006-0-0.013-0-0.020 0-1.314 1.066-2.38 2.38-2.38s2.38 1.066 2.38 2.38c0 1.314-1.066 2.38-2.38 2.38-0.007 0-0.014-0-0.021-0h0.001c-1.303 0-2.36-1.057-2.36-2.36v0z"/>
</symbol></defs></svg>