<svg aria-hidden="true" style="position: absolute; width: 0; height: 0; overflow: hidden;" version="1.1" xmlns="http://www.w3.org/2000/svg" xmlns:xlink="http://www.w3.org/1999/xlink"><defs><symbol id="dds__network-vert-disable" viewBox="0 0 32 32">
<title>dds__network-vert-disable</title>
<path d="M11.080 26.96h-5.080l-3.040 2h10.18v-6.96l-2 1.38zM2.64 19.84v0.88l1.36-0.88zM25.14 14.98h-1.48l-3.060 2h2.48v2.8h-4.22v9.18h10.5v-9.12h-4.22v-4.86zM27.3 22v5.060h-6.38v-5.060zM6.86 14.98v2.9l4.3-2.9zM15 12.38l0.32-0.22 3.060-2h-5.58v-5.12h6.4v4.5l2-1.38v-5.18h-10.46v9.18h4.26zM32 6.36l-1.16-1.7-30.84 20.82 1.16 1.72 18-12.22z"/>
</symbol></defs></svg>