<svg aria-hidden="true" style="position: absolute; width: 0; height: 0; overflow: hidden;" version="1.1" xmlns="http://www.w3.org/2000/svg" xmlns:xlink="http://www.w3.org/1999/xlink"><defs><symbol id="dds__keyboard" viewBox="0 0 32 32">
<title>dds__keyboard</title>
<path d="M16.82 9.38v-2.4h0.9c1.105 0 2-0.895 2-2v0-2.98h-2.18v2.84h-0.9c-1.105 0-2 0.895-2 2v0 2.54h-14.64v20.62h32v-20.62zM29.86 27.82h-27.72v-16.3h27.72zM5.020 12.9h3.12v2.14h-3.12zM5.020 16.66h3.12v2.12h-3.12zM5.020 20.36h3.12v2.14h-3.12zM11.3 12.9h3.12v2.14h-3.12zM11.3 16.66h3.12v2.12h-3.12zM11.3 20.36h3.12v2.14h-3.12zM17.58 12.9h3.12v2.14h-3.12zM17.58 16.66h3.12v2.12h-3.12zM17.58 20.36h3.12v2.14h-3.12zM23.86 12.9h3.12v2.14h-3.12zM23.86 16.66h3.12v2.12h-3.12zM23.86 20.36h3.12v2.14h-3.12zM9.82 24.1h12.34v2.14h-12.34z"/>
</symbol></defs></svg>