<svg aria-hidden="true" style="position: absolute; width: 0; height: 0; overflow: hidden;" version="1.1" xmlns="http://www.w3.org/2000/svg" xmlns:xlink="http://www.w3.org/1999/xlink"><defs><symbol id="dds__user-groups-disable" viewBox="0 0 32 32">
<title>dds__user-groups-disable</title>
<path d="M28 14.58l-0.62-0.42-0.58 0.48c-0.695 0.552-1.585 0.886-2.553 0.886-0.387 0-0.761-0.053-1.116-0.153l0.029 0.007-0.78 0.62c0.478 0.491 0.907 1.034 1.276 1.619l0.024 0.041c0.187 0.021 0.404 0.033 0.624 0.033 1.152 0 2.228-0.325 3.142-0.887l-0.026 0.015c0.745 0.711 1.306 1.608 1.609 2.618l0.011 0.042h-4.46c0.225 0.566 0.419 1.237 0.549 1.93l0.011 0.070h6.32l-0.12-1.14c-0.269-2.377-1.513-4.419-3.317-5.744l-0.023-0.016zM25.54 5.34c-0.403-0.162-0.87-0.257-1.359-0.26h-0.001c-1.459 0.008-2.744 0.745-3.511 1.865l-0.009 0.015c0.295 0.329 0.56 0.696 0.784 1.089l0.016 0.031 4-2.74zM4.74 19.38h-1.78c0.304-1.055 0.867-1.954 1.617-2.657l0.003-0.003c0.816 0.503 1.799 0.812 2.852 0.84l0.008 0 1.74-1.18c0.497-0.576 1.048-1.083 1.652-1.521l0.028-0.019-0.22-0.36-0.2 0.16c-0.708 0.57-1.619 0.915-2.61 0.915s-1.902-0.345-2.618-0.921l0.008 0.006-0.6-0.48-0.62 0.42c-1.818 1.333-3.060 3.359-3.336 5.681l-0.004 0.039-0.12 1.14h1.16zM7.82 13.6c0.807-0.002 1.56-0.233 2.198-0.63l-0.018 0.010c-0.167-0.53-0.269-1.141-0.28-1.774l-0-0.006c-0.009-0.135-0.015-0.292-0.015-0.45s0.005-0.315 0.016-0.471l-0.001 0.021c-0.378 0.658-1.078 1.095-1.879 1.095-1.193 0-2.16-0.967-2.16-2.16s0.967-2.16 2.16-2.16c1.193 0 2.16 0.967 2.16 2.16 0 0.023-0 0.046-0.001 0.069l0-0.003c0.296-0.906 0.755-1.687 1.345-2.346l-0.005 0.006c-0.776-1.141-2.068-1.88-3.533-1.88-2.353 0-4.26 1.907-4.26 4.26s1.907 4.26 4.26 4.26c0.005 0 0.009 0 0.014-0h-0.001zM12.8 14l1.7-1.16c-0.423-0.399-0.687-0.963-0.687-1.588 0-1.204 0.976-2.18 2.18-2.18 0.896 0 1.666 0.541 2.001 1.314l0.005 0.014 1.7-1.14c-0.7-1.367-2.089-2.293-3.696-2.32l-0.004-0c-2.348 0.011-4.249 1.912-4.26 4.259v0.001c0.003 0.943 0.318 1.813 0.848 2.51l-0.008-0.010c0.072 0.113 0.144 0.211 0.223 0.304l-0.003-0.004zM20.64 17.080l-3.28 2.22c0.752-0.13 1.424-0.381 2.028-0.735l-0.028 0.015c0.745 0.711 1.306 1.608 1.609 2.618l0.011 0.042h-6.48l-3.060 2h11.86l-0.12-1.14c-0.279-2.004-1.198-3.755-2.539-5.079l-0.001-0.001zM30.84 4.74l-30.84 20.82 1.16 1.7 30.84-20.82z"/>
</symbol></defs></svg>