<svg aria-hidden="true" style="position: absolute; width: 0; height: 0; overflow: hidden;" version="1.1" xmlns="http://www.w3.org/2000/svg" xmlns:xlink="http://www.w3.org/1999/xlink"><defs><symbol id="dds__user-directory" viewBox="0 0 32 32">
<title>dds__user-directory</title>
<path d="M20 14.54h7.38v2.14h-7.38zM20 18.42h7.38v2.14h-7.38zM16.68 22.96h-9.68c0.347-1.078 0.956-1.991 1.754-2.694l0.007-0.006c-0.684-0.364-1.27-0.803-1.779-1.319l-0.001-0.001c-1.268 1.343-2.128 3.083-2.375 5.015l-0.005 0.045-0.12 1.18h14.72l-0.12-1.18c-0.252-1.977-1.112-3.717-2.384-5.064l0.004 0.004c-0.503 0.528-1.091 0.97-1.744 1.303l-0.036 0.017c0.817 0.699 1.43 1.615 1.749 2.66l0.011 0.040zM7.54 14.28c-0 0.012-0 0.026-0 0.040 0 2.386 1.934 4.32 4.32 4.32s4.32-1.934 4.32-4.32c0-2.386-1.934-4.32-4.32-4.32-0.007 0-0.014 0-0.021 0h0.001c0 0-0 0-0 0-2.368 0-4.289 1.914-4.3 4.279v0.001zM14 14.28c0 0.006 0 0.013 0 0.020 0 1.204-0.976 2.18-2.18 2.18s-2.18-0.976-2.18-2.18c0-1.204 0.976-2.18 2.18-2.18 0.007 0 0.014 0 0.021 0h-0.001c1.188 0.011 2.149 0.972 2.16 2.159v0.001zM20.6 5.56v-3.12h-9.28v3.12h-11.32v24h32v-24zM13.46 4.58h5v0.98h-5zM29.86 27.42h-27.74v-19.74h27.74z"/>
</symbol></defs></svg>