<svg aria-hidden="true" style="position: absolute; width: 0; height: 0; overflow: hidden;" version="1.1" xmlns="http://www.w3.org/2000/svg" xmlns:xlink="http://www.w3.org/1999/xlink"><defs><symbol id="dds__gear-wrench" viewBox="0 0 32 32">
<title>dds__gear-wrench</title>
<path d="M18.3 25.62l-0.58 0.24-1.16 3.74h-1.8l-1.26-3.6-3.14-1.42-3.6 1.86-1.22-1.18 1.78-3.64-1.32-3.2-3.8-1.2v-1.68l3.68-1.28 1.56-3.1-2-3.64 1.2-1.16 3.7 1.84 3.16-1.24 1.16-3.7h0.6c0.443-0.806 0.947-1.502 1.526-2.127l-0.006 0.007h-3.7l-1.32 4.2-1.32 0.52-4.22-2.1-3.4 3.38 2.16 4-0.68 1.34-4.3 1.52v4.8l4.38 1.36 0.58 1.32-2 4.14 3.4 3.36 4-2.12 1.36 0.62 1.46 4.24h4.96l0.48-1.6c-0.203-0.558-0.327-1.203-0.34-1.874l-0-0.006v-2.62zM15.3 12.96v0c-0.349-0.575-0.648-1.237-0.863-1.937l-0.017-0.063c-2.691 0.42-4.726 2.721-4.726 5.497 0 3.071 2.489 5.56 5.56 5.56 1.1 0 2.125-0.319 2.988-0.87l-0.022 0.013v-3.020c-0.608 1.047-1.724 1.74-3.002 1.74-1.911 0-3.46-1.549-3.46-3.46s1.549-3.46 3.46-3.46c0.001 0 0.002 0 0.002 0h-0zM27.1 0.7l-1.48-0.6v5.080c-0 0.743-0.541 1.36-1.251 1.479l-0.009 0.001h-0.5c-0.736-0.102-1.297-0.725-1.3-1.48v-5.080l-1.48 0.6c-1.847 0.797-3.307 2.199-4.159 3.951l-0.021 0.048c-0.452 0.969-0.717 2.103-0.72 3.299v0.001c0.024 3.018 1.716 5.636 4.198 6.979l0.042 0.021v13.24c0.146 1.912 1.733 3.409 3.67 3.409s3.524-1.497 3.669-3.396l0.001-0.012v-13.24c0.768-0.388 1.427-0.862 2.002-1.422l-0.002 0.002c1.42-1.425 2.298-3.391 2.298-5.562 0-3.299-2.028-6.125-4.905-7.299l-0.053-0.019zM27.32 12.7c-0.3 0.213-0.642 0.407-1.003 0.565l-0.037 0.015-0.66 0.28v14.62c-0.091 0.772-0.741 1.365-1.53 1.365s-1.439-0.593-1.529-1.358l-0.001-0.007v-14.58l-0.56-0.26c-2.162-0.854-3.666-2.92-3.68-5.338v-0.002c-0.010-0.111-0.015-0.24-0.015-0.37s0.006-0.259 0.017-0.387l-0.001 0.017c0.112-0.887 0.41-1.686 0.854-2.383l-0.014 0.023c0.339-0.519 0.729-0.966 1.172-1.353l0.008-0.006v1.62c-0.005 0.084-0.008 0.181-0.008 0.28s0.003 0.196 0.009 0.293l-0.001-0.013c0.137 0.793 0.517 1.48 1.059 1.999l0.001 0.001c0.652 0.655 1.554 1.060 2.551 1.060 0.003 0 0.006 0 0.009 0h-0c0.12 0.015 0.259 0.023 0.4 0.023s0.28-0.008 0.417-0.025l-0.017 0.002c1.115-0.266 2.019-1 2.51-1.978l0.010-0.022c0.205-0.453 0.329-0.98 0.34-1.536l0-0.004v-1.68c1.285 1.061 2.098 2.654 2.098 4.436 0 1.976-0.998 3.718-2.518 4.751l-0.020 0.013z"/>
</symbol></defs></svg>