<svg aria-hidden="true" style="position: absolute; width: 0; height: 0; overflow: hidden;" version="1.1" xmlns="http://www.w3.org/2000/svg" xmlns:xlink="http://www.w3.org/1999/xlink"><defs><symbol id="dds__user-contact" viewBox="0 0 32 32">
<title>dds__user-contact</title>
<path d="M21.38 20.64h-8c0.292-0.796 0.758-1.468 1.355-1.995l0.005-0.005c-0.671-0.351-1.246-0.785-1.738-1.298l-0.002-0.002c-1.056 1.165-1.776 2.653-1.996 4.299l-0.004 0.041-0.12 1.16h13.12l-0.12-1.16c-0.232-1.685-0.95-3.172-2.007-4.347l0.007 0.007c-0.497 0.511-1.071 0.944-1.703 1.282l-0.037 0.018c0.554 0.542 0.98 1.214 1.23 1.965l0.010 0.035zM17.34 17.080c2.154 0 3.9-1.746 3.9-3.9s-1.746-3.9-3.9-3.9c-2.154 0-3.9 1.746-3.9 3.9v0c0.054 2.132 1.768 3.846 3.895 3.9l0.005 0zM17.34 11.42c0.972 0 1.76 0.788 1.76 1.76s-0.788 1.76-1.76 1.76c-0.972 0-1.76-0.788-1.76-1.76v0c0-0.972 0.788-1.76 1.76-1.76v0zM13.24 0h-7.9v10.68h-2.68v2.14h2.68v2.12h-2.68v2.12h2.68v2.12h-2.68v2.14h2.68v10.68h24v-32zM27.24 29.86h-19.76v-8.54h2v-2.14h-2v-2.12h2v-2.12h-2v-2.12h2v-2.14h-2v-8.54h19.74v27.74z"/>
</symbol></defs></svg>