<svg aria-hidden="true" style="position: absolute; width: 0; height: 0; overflow: hidden;" version="1.1" xmlns="http://www.w3.org/2000/svg" xmlns:xlink="http://www.w3.org/1999/xlink"><defs><symbol id="dds__clipboard-search" viewBox="0 0 32 32">
<title>dds__clipboard-search</title>
<path d="M24.42 14c0.836 0.653 1.54 1.427 2.098 2.303l0.022 0.037v-12.56h-3.82v2.22h1.7v8zM4 29.84v-23.84h1.7v-2.22h-3.86v28.22h24.16l-2.14-2.14zM20.7 2.58h-3.020c-0.483-1.495-1.862-2.558-3.49-2.558s-3.007 1.062-3.483 2.532l-0.007 0.026h-3.020v6.58h13.020zM18.56 7.040h-8.74v-2.34h2.86v-1.060c0.090-0.761 0.732-1.346 1.51-1.346s1.42 0.585 1.509 1.339l0.001 0.007v1.060h2.88v2.34zM26.54 26.88l-1.76-1.78c0.841-1.146 1.35-2.583 1.36-4.138v-0.002c0-0.006 0-0.013 0-0.020 0-3.899-3.161-7.060-7.060-7.060s-7.060 3.161-7.060 7.060c0 3.899 3.161 7.060 7.060 7.060v0c1.58-0.006 3.033-0.539 4.196-1.432l-0.016 0.012 5.4 5.4 1.5-1.5-3.62-3.62zM19.080 25.88c-0.006 0-0.013 0-0.020 0-2.728 0-4.94-2.212-4.94-4.94s2.212-4.94 4.94-4.94c2.728 0 4.94 2.212 4.94 4.94 0 0.007 0 0.014-0 0.021v-0.001c0 2.717-2.203 4.92-4.92 4.92v0z"/>
</symbol></defs></svg>