<svg aria-hidden="true" style="position: absolute; width: 0; height: 0; overflow: hidden;" version="1.1" xmlns="http://www.w3.org/2000/svg" xmlns:xlink="http://www.w3.org/1999/xlink"><defs><symbol id="dds__music-note" viewBox="0 0 32 32">
<title>dds__music-note</title>
<path d="M28.16 0l-15.46 5.5v18c-0.898-0.564-1.989-0.899-3.159-0.899-0.297 0-0.588 0.021-0.873 0.063l0.032-0.004c-2.719 0.224-4.841 2.486-4.841 5.243 0 0.034 0 0.068 0.001 0.102l-0-0.005c0.152 1.179 0.774 2.189 1.669 2.852l0.011 0.008c0.934 0.712 2.118 1.141 3.402 1.141 0.042 0 0.083-0 0.125-0.001l-0.006 0h0.94c2.621-0.195 4.703-2.263 4.919-4.861l0.001-0.019v-14.48l11.22-4v10.12c-0.892-0.554-1.974-0.883-3.133-0.883-0.306 0-0.606 0.023-0.9 0.067l0.033-0.004c-2.743 0.172-4.903 2.439-4.903 5.21 0 0.060 0.001 0.119 0.003 0.178l-0-0.009c0.149 1.182 0.763 2.197 1.65 2.872l0.010 0.008c0.944 0.724 2.141 1.161 3.441 1.161 0.028 0 0.056-0 0.084-0.001l-0.004 0h0.86c2.642-0.201 4.732-2.311 4.899-4.945l0.001-0.015v-22.4zM9.62 29.82c-0.179 0.031-0.385 0.049-0.595 0.049-0.814 0-1.567-0.266-2.175-0.716l0.010 0.007c-0.461-0.336-0.779-0.845-0.859-1.429l-0.001-0.011c-0.18-1.42 1.2-2.76 3.060-3 0.087-0.010 0.188-0.015 0.29-0.015s0.203 0.006 0.302 0.017l-0.012-0.001c0.010-0 0.022-0 0.034-0 0.807 0 1.553 0.263 2.156 0.707l-0.010-0.007c0.461 0.34 0.782 0.846 0.878 1.427l0.002 0.013c0.16 1.36-1.22 2.72-3.080 2.96zM14.82 10.38v-3.36l11.22-4v3.38zM26 22.16c0.16 1.42-1.2 2.76-3.060 3.020-0.163 0.025-0.352 0.039-0.543 0.039-0.839 0-1.616-0.269-2.248-0.726l0.011 0.008c-0.454-0.335-0.769-0.834-0.858-1.408l-0.002-0.012c-0.16-1.42 1.2-2.78 3.060-3.020h0.58c0.027-0.001 0.059-0.001 0.092-0.001 0.795 0 1.528 0.263 2.117 0.708l-0.009-0.006c0.454 0.342 0.77 0.848 0.858 1.428l0.002 0.012z"/>
</symbol></defs></svg>