<svg aria-hidden="true" style="position: absolute; width: 0; height: 0; overflow: hidden;" version="1.1" xmlns="http://www.w3.org/2000/svg" xmlns:xlink="http://www.w3.org/1999/xlink"><defs><symbol id="dds__suspend" viewBox="0 0 32 32">
<title>dds__suspend</title>
<path d="M16 0c-8.837 0-16 7.163-16 16s7.163 16 16 16c8.837 0 16-7.163 16-16v0c0-8.837-7.163-16-16-16v0zM16 2.14c7.267 0.010 13.223 5.611 13.797 12.731l0.003 0.049h-27.6c0.577-7.17 6.533-12.77 13.799-12.78h0.001zM16 29.86c-7.267-0.010-13.223-5.611-13.797-12.731l-0.003-0.049h27.6c-0.577 7.169-6.533 12.77-13.799 12.78h-0.001z"/>
</symbol></defs></svg>