<svg aria-hidden="true" style="position: absolute; width: 0; height: 0; overflow: hidden;" version="1.1" xmlns="http://www.w3.org/2000/svg" xmlns:xlink="http://www.w3.org/1999/xlink"><defs><symbol id="dds__microchip" viewBox="0 0 32 32">
<title>dds__microchip</title>
<path d="M0 0v32h32v-32zM29.86 6.6h-4.88l-4.98 3.7h-2.94v-8.16h12.8zM21.72 17.060h8.14v6.28h-4.18l-4-2.9v-3.38zM21.72 14.94v-3.32l4-2.88h4.18v6.2zM12.42 19.58v-7.16h7.16v7.16zM14.92 2.14v8.16h-2.92l-5.14-3.74h-4.72v-4.42zM10.28 17.060v3.22l-4.12 3.020h-4v-6.24zM2.14 14.94v-6.24h4l4.12 3v3.24zM2.14 25.42h4.72l5.14-3.72h2.94v8.16h-12.8v-4.44zM17.060 29.86v-8.16h2.78l5.14 3.76h4.88v4.4z"/>
</symbol></defs></svg>