<svg aria-hidden="true" style="position: absolute; width: 0; height: 0; overflow: hidden;" version="1.1" xmlns="http://www.w3.org/2000/svg" xmlns:xlink="http://www.w3.org/1999/xlink"><defs><symbol id="dds__projector" viewBox="0 0 32 32">
<title>dds__projector</title>
<path d="M21.26 18.14c0.467 0.24 1.020 0.38 1.605 0.38 1.977 0 3.58-1.603 3.58-3.58 0-1.972-1.594-3.571-3.564-3.58h-0.001c-0.004-0-0.010-0-0.015-0-1.977 0-3.58 1.603-3.58 3.58 0 1.392 0.794 2.598 1.955 3.191l0.020 0.009zM21.58 14.3c0.241-0.478 0.728-0.8 1.29-0.8 0.004 0 0.007 0 0.011 0h-0.001c0.007-0 0.016-0 0.025-0 0.233 0 0.452 0.059 0.642 0.164l-0.007-0.004c0.472 0.245 0.789 0.731 0.789 1.29 0 0.8-0.649 1.449-1.449 1.449-0.241 0-0.468-0.059-0.668-0.163l0.008 0.004c-0.338-0.178-0.594-0.473-0.717-0.83l-0.003-0.010c-0.040-0.133-0.063-0.285-0.063-0.443 0-0.238 0.053-0.464 0.147-0.667l-0.004 0.010zM4.46 11.82h2.14v6.18h-2.14zM8.72 11.82h2.12v6.18h-2.12zM12.94 11.82h2.14v6.18h-2.14zM0 7.26v15.34h5.5v2.14h4.38v-2.14h12.22v2.12h4.4v-2.1h5.5v-15.34zM29.84 20.5h-27.7v-11.12h27.72v11.1z"/>
</symbol></defs></svg>