<svg aria-hidden="true" style="position: absolute; width: 0; height: 0; overflow: hidden;" version="1.1" xmlns="http://www.w3.org/2000/svg" xmlns:xlink="http://www.w3.org/1999/xlink"><defs><symbol id="dds__eye-view-on" viewBox="0 0 32 32">
<title>dds__eye-view-on</title>
<path d="M16 13.86c-1.182 0-2.14 0.958-2.14 2.14s0.958 2.14 2.14 2.14c1.182 0 2.14-0.958 2.14-2.14v0c0-1.182-0.958-2.14-2.14-2.14v0zM15.88 7.1c-0.103-0.002-0.225-0.003-0.348-0.003-6.588 0-12.35 3.539-15.487 8.82l-0.046 0.083c3.188 5.342 8.937 8.864 15.509 8.864 0.13 0 0.261-0.001 0.39-0.004l-0.019 0c0.091 0.002 0.198 0.003 0.306 0.003 6.66 0 12.499-3.511 15.768-8.783l0.046-0.079c-3.371-5.378-9.265-8.9-15.983-8.9-0.048 0-0.097 0-0.145 0.001l0.007-0zM16 21.34c-2.949 0-5.34-2.391-5.34-5.34s2.391-5.34 5.34-5.34c2.949 0 5.34 2.391 5.34 5.34v0c-0.011 2.945-2.395 5.329-5.339 5.34h-0.001zM2.5 16c2.258-3.141 5.561-5.408 9.392-6.299l0.108-0.021c-2.124 1.335-3.514 3.665-3.514 6.32s1.391 4.985 3.483 6.302l0.031 0.018c-3.943-0.901-7.25-3.171-9.467-6.272l-0.033-0.048zM20.1 22.22c2.034-1.354 3.357-3.638 3.357-6.23s-1.322-4.876-3.329-6.213l-0.027-0.017c3.849 0.989 7.078 3.204 9.329 6.197l0.031 0.043c-2.296 3.064-5.566 5.287-9.346 6.216l-0.114 0.024z"/>
</symbol></defs></svg>