<svg aria-hidden="true" style="position: absolute; width: 0; height: 0; overflow: hidden;" version="1.1" xmlns="http://www.w3.org/2000/svg" xmlns:xlink="http://www.w3.org/1999/xlink"><defs><symbol id="dds__protractor" viewBox="0 0 32 32">
<title>dds__protractor</title>
<path d="M31.58 20h-8l-4.060-9.78c0.56-0.723 0.899-1.642 0.9-2.64v-0c-0.015-2.052-1.426-3.77-3.329-4.253l-0.031-0.007v-3.32h-2.14v3.32c-1.926 0.497-3.328 2.213-3.34 4.259v0.001c0 0.002 0 0.005 0 0.008 0 0.996 0.339 1.913 0.907 2.642l-0.007-0.010-4.14 9.78h-8v2.14h7l-3.76 9.020 2 0.84 4.2-9.88h5.14v3.2h2.14v-3.2h5.2l4.2 9.88 2-0.84-3.84-9.040h7v-2.12zM16 5.32c0.064-0.006 0.138-0.010 0.213-0.010 1.259 0 2.28 1.021 2.28 2.28s-1.021 2.28-2.28 2.28c-0.075 0-0.149-0.004-0.223-0.011l0.009 0.001c-0.008 0-0.019 0-0.029 0-0.605 0-1.154-0.245-1.552-0.64l0 0c-0.427-0.417-0.694-0.997-0.7-1.639v-0.001c0.011-1.251 1.028-2.26 2.28-2.26 0 0 0 0 0 0v0zM17.060 20v-3.22h-2.14v3.22h-4.26l3.56-8.4c0.521 0.251 1.133 0.399 1.78 0.4h0.001c0.645-0 1.257-0.14 1.807-0.391l-0.027 0.011 3.56 8.38h-4.28z"/>
</symbol></defs></svg>