<svg aria-hidden="true" style="position: absolute; width: 0; height: 0; overflow: hidden;" version="1.1" xmlns="http://www.w3.org/2000/svg" xmlns:xlink="http://www.w3.org/1999/xlink"><defs><symbol id="dds__user-search" viewBox="0 0 32 32">
<title>dds__user-search</title>
<path d="M12 13.48c3.722 0 6.74-3.018 6.74-6.74s-3.018-6.74-6.74-6.74c-3.722 0-6.74 3.018-6.74 6.74v0c0 3.722 3.018 6.74 6.74 6.74v0zM12 2.14c2.54 0 4.6 2.060 4.6 4.6s-2.059 4.6-4.6 4.6c-2.54 0-4.6-2.059-4.6-4.6v0c0.011-2.536 2.064-4.589 4.599-4.6h0.001zM13.68 21.34h-11.2c0.56-2.556 1.897-4.739 3.746-6.348l0.014-0.012c1.62 1.1 3.619 1.756 5.771 1.756 1.927 0 3.731-0.526 5.277-1.443l-0.048 0.026c0.787-0.577 1.707-1.030 2.701-1.306l0.059-0.014c-0.488-0.471-1.025-0.899-1.598-1.274l-0.042-0.026-0.66-0.42-0.6 0.5c-1.381 1.102-3.153 1.769-5.080 1.769s-3.699-0.666-5.096-1.781l0.016 0.013-0.6-0.52-0.66 0.44c-3.018 2.257-5.081 5.65-5.553 9.533l-0.007 0.067-0.12 1.18h13.72c-0.067-0.361-0.11-0.781-0.12-1.21l-0-0.010c0-0.26 0.060-0.62 0.080-0.92zM27.32 25.8c0.725-1.012 1.159-2.275 1.16-3.64v-0c0-0.017 0-0.038 0-0.058 0-3.546-2.874-6.42-6.42-6.42s-6.42 2.874-6.42 6.42c0 3.546 2.874 6.42 6.42 6.42 1.404 0 2.702-0.45 3.759-1.215l-0.019 0.013 4.68 4.68 1.52-1.52-4.68-4.68zM22.12 26.38c-2.331 0-4.22-1.889-4.22-4.22s1.889-4.22 4.22-4.22c2.331 0 4.22 1.889 4.22 4.22v0c-0.011 2.326-1.894 4.209-4.219 4.22h-0.001z"/>
</symbol></defs></svg>