<svg aria-hidden="true" style="position: absolute; width: 0; height: 0; overflow: hidden;" version="1.1" xmlns="http://www.w3.org/2000/svg" xmlns:xlink="http://www.w3.org/1999/xlink"><defs><symbol id="dds__doc-support" viewBox="0 0 32 32">
<title>dds__doc-support</title>
<path d="M22.26 24v6h-6.14l-2.12 2h10.38v-8c-0.22 0-0.44 0-0.68 0-0.513-0.006-1.010-0.057-1.493-0.148l0.053 0.008zM2.54 29.84v-20.46h8v-7.26h11.72v2c0.43-0.076 0.925-0.12 1.43-0.12 0.003 0 0.007 0 0.011 0h-0.001c0.24 0 0.46 0 0.68 0v-4h-16l-7.96 7.44v24.56h4.54c-0.494-0.594-0.873-1.303-1.091-2.080l-0.010-0.040zM8.42 2.8v4.44h-4.7zM30.36 9.58l-3.58 3.58c-0.283 0.27-0.667 0.436-1.090 0.436s-0.807-0.166-1.091-0.437l0.001 0.001c-0.273-0.275-0.443-0.654-0.443-1.072 0-0.031 0.001-0.062 0.003-0.092l-0 0.004c0.004-0.42 0.171-0.8 0.441-1.081l-0 0.001 3.6-3.58-1.46-0.62c-0.905-0.393-1.96-0.622-3.068-0.622-4.352 0-7.88 3.528-7.88 7.88 0 0.873 0.142 1.713 0.404 2.497l-0.016-0.056-9.34 9.34c-0.655 0.655-1.060 1.56-1.060 2.559 0 0.007 0 0.014 0 0.022v-0.001c-0 0.012-0 0.026-0 0.040 0 1.999 1.621 3.62 3.62 3.62 0.014 0 0.028-0 0.042-0l-0.002 0c0.999-0.005 1.903-0.408 2.56-1.060l9.34-9.34c0.714 0.237 1.535 0.374 2.388 0.374 2.201 0 4.189-0.909 5.61-2.372l0.002-0.002c1.416-1.442 2.29-3.421 2.29-5.604 0-1.087-0.217-2.124-0.61-3.069l0.020 0.053zM27.76 18.16c-1.035 1.035-2.465 1.675-4.044 1.675-0.808 0-1.576-0.167-2.273-0.469l0.037 0.014-0.66-0.26-10.3 10.3c-0.283 0.27-0.667 0.436-1.090 0.436s-0.807-0.166-1.091-0.437l0.001 0.001c-0.214-0.26-0.344-0.597-0.344-0.964 0-0.041 0.002-0.082 0.005-0.122l-0 0.005c0.004-0.42 0.171-0.8 0.441-1.081l-0.001 0.001 10.22-10.32-0.28-0.66c-0.293-0.666-0.464-1.443-0.464-2.26 0-3.17 2.57-5.74 5.74-5.74 0.008 0 0.017 0 0.025 0h0.579l-1.16 1.16c-0.67 0.65-1.089 1.555-1.1 2.558l-0 0.002c0 1.012 0.405 1.93 1.061 2.601l-0.001-0.001c0.675 0.636 1.587 1.027 2.59 1.027s1.915-0.391 2.592-1.029l-0.002 0.002 1.14-1.16c0.007 0.117 0.012 0.253 0.012 0.39 0 1.662-0.618 3.181-1.638 4.337l0.006-0.007z"/>
</symbol></defs></svg>