<svg aria-hidden="true" style="position: absolute; width: 0; height: 0; overflow: hidden;" version="1.1" xmlns="http://www.w3.org/2000/svg" xmlns:xlink="http://www.w3.org/1999/xlink"><defs><symbol id="dds__password" viewBox="0 0 32 32">
<title>dds__password</title>
<path d="M0 10v12h32v-12zM29.86 19.88h-27.72v-7.76h27.72zM27.54 16c0 0.884-0.716 1.6-1.6 1.6s-1.6-0.716-1.6-1.6c0-0.884 0.716-1.6 1.6-1.6v0c0.884 0 1.6 0.716 1.6 1.6v0zM20.92 16c0 0.884-0.716 1.6-1.6 1.6s-1.6-0.716-1.6-1.6c0-0.884 0.716-1.6 1.6-1.6v0c0.884 0 1.6 0.716 1.6 1.6v0zM14.28 16c0 0.884-0.716 1.6-1.6 1.6s-1.6-0.716-1.6-1.6c0-0.884 0.716-1.6 1.6-1.6v0c0.884 0 1.6 0.716 1.6 1.6v0zM7.66 16c-0.001 0.883-0.717 1.599-1.6 1.599s-1.6-0.716-1.6-1.6c0-0.863 0.683-1.566 1.537-1.599l0.003-0c0.018-0.001 0.039-0.001 0.060-0.001 0.884 0 1.6 0.716 1.6 1.6 0 0 0 0.001 0 0.001v-0z"/>
</symbol></defs></svg>