<svg aria-hidden="true" style="position: absolute; width: 0; height: 0; overflow: hidden;" version="1.1" xmlns="http://www.w3.org/2000/svg" xmlns:xlink="http://www.w3.org/1999/xlink"><defs><symbol id="dds__hard-drive" viewBox="0 0 32 32">
<title>dds__hard-drive</title>
<path d="M3.5 0v32h25v-32zM26.36 29.86h-20.7v-27.72h20.7zM18.92 15.16c0.001-0.024 0.001-0.052 0.001-0.080 0-1.613-1.307-2.92-2.92-2.92s-2.92 1.307-2.92 2.92c0 1.612 1.307 2.919 2.919 2.92h0c0 0 0.001 0 0.001 0 1.585 0 2.874-1.262 2.919-2.836l0-0.004zM15.22 15.16c0-0 0-0 0-0 0-0.435 0.347-0.789 0.779-0.8l0.001-0c0.453 0 0.82 0.367 0.82 0.82s-0.367 0.82-0.82 0.82v0c-0.434-0.011-0.781-0.365-0.781-0.8 0-0.014 0-0.028 0.001-0.042l-0 0.002zM8.56 25.8c0.023 1.296 1.080 2.339 2.38 2.339 1.071 0 1.978-0.708 2.276-1.682l0.004-0.017c0.005-0.054 0.008-0.117 0.008-0.18s-0.003-0.126-0.008-0.188l0.001 0.008 1.040-7.040-5.040 5.12c-0.407 0.425-0.659 1.003-0.66 1.64v0zM10.36 25.28l1.64-1.66-0.32 2.24v0.16c-0.097 0.313-0.382 0.537-0.72 0.54h-0c-0 0-0 0-0 0-0.424 0-0.769-0.338-0.78-0.759l-0-0.001c0.002-0.2 0.078-0.382 0.201-0.521l-0.001 0.001zM11.080 19.44c-1.005-1.135-1.618-2.636-1.62-4.28v-0c-0-0.006-0-0.013-0-0.020 0-3.612 2.928-6.54 6.54-6.54s6.54 2.928 6.54 6.54c0 3.612-2.928 6.54-6.54 6.54v0 2.14c4.774-0.012 8.64-3.884 8.64-8.66 0-4.783-3.877-8.66-8.66-8.66s-8.66 3.877-8.66 8.66c0 2.187 0.811 4.185 2.149 5.71l-0.008-0.010z"/>
</symbol></defs></svg>