<svg aria-hidden="true" style="position: absolute; width: 0; height: 0; overflow: hidden;" version="1.1" xmlns="http://www.w3.org/2000/svg" xmlns:xlink="http://www.w3.org/1999/xlink"><defs><symbol id="dds__microphone-on" viewBox="0 0 32 32">
<title>dds__microphone-on</title>
<path d="M22 13.34v3.5c0.017 0.168 0.026 0.363 0.026 0.56 0 3.314-2.686 6-6 6-0.009 0-0.018-0-0.028-0h0.001c-0.008 0-0.017 0-0.026 0-3.314 0-6-2.686-6-6 0-0.197 0.009-0.392 0.028-0.584l-0.002 0.024v-3.5h-2v3.5c-0.013 0.17-0.020 0.368-0.020 0.569 0 4.108 3.097 7.493 7.083 7.948l0.037 0.003v4h-4.86v2h11.52v-2h-4.74v-4c4.023-0.458 7.12-3.843 7.12-7.951 0-0.2-0.007-0.398-0.022-0.595l0.002 0.026v-3.5zM16 21.74c0.048 0.002 0.105 0.003 0.163 0.003 2.375 0 4.3-1.925 4.3-4.3 0-0.213-0.015-0.422-0.045-0.626l0.003 0.023v-11.6c0.012-0.121 0.019-0.262 0.019-0.404 0-2.353-1.907-4.26-4.26-4.26-0.063 0-0.126 0.001-0.188 0.004l0.009-0c-0.060-0.003-0.131-0.005-0.201-0.005-2.342 0-4.24 1.898-4.24 4.24 0 0.15 0.008 0.297 0.023 0.443l-0.002-0.018v11.6c-0.027 0.181-0.043 0.39-0.043 0.603 0 2.375 1.925 4.3 4.3 4.3 0.057 0 0.114-0.001 0.171-0.003l-0.008 0zM13.64 5.24c0-1.72 0.82-2.6 2.36-2.6 2 0 2.36 1.42 2.36 2.6v11.6c0 2.84-1.72 2.84-2.36 2.84s-2.36 0-2.36-2.84z"/>
</symbol></defs></svg>