<svg aria-hidden="true" style="position: absolute; width: 0; height: 0; overflow: hidden;" version="1.1" xmlns="http://www.w3.org/2000/svg" xmlns:xlink="http://www.w3.org/1999/xlink"><defs><symbol id="dds__brand-dell-gaming" viewBox="0 0 32 32">
<title>dds__brand-dell-gaming</title>
<path d="M21.207 17.413h-0.367l-0.040-0.040-0.207-0.527-0.080-0.040h-1.020l-0.080 0.040-0.207 0.527-0.040 0.040h-0.367l-0.040-0.040v-0.407l0.94-2.36 0.040-0.040h0.527l0.040 0.040 0.94 2.36v0.407l-0.040 0.040zM20 15.293v0l-0.367 0.98 0.047 0.040h0.667l0.047-0.040z"/>
<path d="M24.667 17.413h-0.487l-0.040-0.040v-1.587h-0.047l-0.667 1.587-0.040 0.040h-0.453l-0.040-0.040-0.667-1.587h-0.047v1.587l-0.040 0.040h-0.487l-0.040-0.040v-2.767l0.040-0.040h0.613l0.040 0.040 0.813 2h0.040l0.813-2 0.040-0.040h0.653l0.040 0.040v2.767l-0.040 0.040z"/>
<path d="M25.887 17.413h-0.487l-0.067-0.040v-2.767l0.040-0.040h0.487l0.040 0.040v2.767z"/>
<path d="M26.62 14.567h0.573l0.080 0.040 1.1 1.873h0.040v-1.873l0.040-0.040h0.493l0.040 0.040v2.767l-0.040 0.040h-0.573l-0.080-0.040-1.1-1.873h-0.040v1.873l-0.040 0.040h-0.493l-0.040-0.040v-2.767l0.040-0.040z"/>
<path d="M31.96 17.413h-0.367l-0.040-0.040-0.040-0.2h-0.040c-0.175 0.174-0.416 0.281-0.682 0.281-0.018 0-0.036-0-0.054-0.002l0.003 0c-0.002 0-0.004 0-0.007 0-0.736 0-1.333-0.597-1.333-1.333 0-0.047 0.002-0.093 0.007-0.139l-0 0.006c-0.004-0.040-0.007-0.087-0.007-0.135 0-0.736 0.597-1.333 1.333-1.333 0.021 0 0.042 0.001 0.063 0.001l-0.003-0c0.039-0.005 0.085-0.008 0.131-0.008 0.525 0 0.965 0.368 1.074 0.861l0.001 0.007-0.040 0.040h-0.493l-0.040-0.040c-0.091-0.223-0.306-0.377-0.557-0.377-0.039 0-0.077 0.004-0.113 0.011l0.004-0.001c-0.533 0-0.82 0.407-0.82 0.973s0.287 0.98 0.82 0.98 0.667-0.247 0.667-0.573l-0.040-0.040h-0.72v-0.487h1.267l0.040 0.040v1.467l-0.040 0.040z"/>
<path d="M18.313 17.413h-0.367l-0.040-0.040-0.040-0.2h-0.040c-0.175 0.174-0.416 0.281-0.682 0.281-0.018 0-0.036-0-0.054-0.002l0.003 0c-0.002 0-0.004 0-0.007 0-0.736 0-1.333-0.597-1.333-1.333 0-0.047 0.002-0.093 0.007-0.139l-0 0.006c-0.004-0.040-0.007-0.087-0.007-0.135 0-0.736 0.597-1.333 1.333-1.333 0.021 0 0.042 0.001 0.063 0.001l-0.003-0c0.043-0.006 0.093-0.010 0.144-0.010 0.526 0 0.966 0.369 1.074 0.862l0.001 0.007-0.040 0.040h-0.493l-0.040-0.040c-0.091-0.223-0.306-0.377-0.557-0.377-0.039 0-0.077 0.004-0.113 0.011l0.004-0.001c-0.533 0-0.82 0.407-0.82 0.973s0.287 0.98 0.82 0.98 0.667-0.247 0.667-0.573l-0.040-0.040h-0.667l-0.040-0.040v-0.407l0.040-0.040h1.267l0.040 0.040v1.467l-0.040 0.040z"/>
<path d="M6.46 9.54c-3.568 0-6.46 2.892-6.46 6.46s2.892 6.46 6.46 6.46c3.568 0 6.46-2.892 6.46-6.46v0c0-3.568-2.892-6.46-6.46-6.46v0zM6.46 21.813c-3.211 0-5.813-2.603-5.813-5.813s2.603-5.813 5.813-5.813c3.211 0 5.813 2.603 5.813 5.813v0c0 0.002 0 0.004 0 0.007 0 3.207-2.6 5.807-5.807 5.807-0.002 0-0.005 0-0.007 0h0zM11.5 16.86v0.56h-1.833v-2.84h0.667v2.28zM3.013 17.42c0.002 0 0.004 0 0.006 0 0.656 0 1.209-0.445 1.371-1.050l0.002-0.010 1.607 1.253 1.607-1.253v1.060h1.84v-0.56h-1.193v-2.28h-0.667v1.060l-1.52 1.207-0.347-0.267 0.74-0.58 0.807-0.627-0.46-0.36-1.547 1.207-0.34-0.273 1.54-1.2-0.46-0.36-1.607 1.253c-0.165-0.615-0.717-1.060-1.374-1.060-0.002 0-0.005 0-0.007 0h-1.153v2.84zM2.507 16.86v-1.72h0.507c0.43 0.055 0.759 0.419 0.759 0.86s-0.329 0.805-0.755 0.86l-0.004 0z"/>
</symbol></defs></svg>