<svg aria-hidden="true" style="position: absolute; width: 0; height: 0; overflow: hidden;" version="1.1" xmlns="http://www.w3.org/2000/svg" xmlns:xlink="http://www.w3.org/1999/xlink"><defs><symbol id="dds__disc-arrow-down" viewBox="0 0 32 32">
<title>dds__disc-arrow-down</title>
<path d="M26.78 14.58c0.199 0.84 0.315 1.805 0.32 2.797v0.003c0 6.893-5.587 12.48-12.48 12.48s-12.48-5.587-12.48-12.48c0-6.893 5.588-12.48 12.48-12.48v0c0.85 0.002 1.679 0.082 2.484 0.233l-0.084-0.013 1.76-1.76c-1.245-0.376-2.676-0.595-4.157-0.6h-0.002c-8.074 0-14.62 6.546-14.62 14.62s6.546 14.62 14.62 14.62c8.074 0 14.62-6.546 14.62-14.62v0c0-0.004 0-0.008 0-0.012 0-1.62-0.271-3.177-0.77-4.627l0.030 0.1zM14.62 12.88c-2.485 0-4.5 2.015-4.5 4.5s2.015 4.5 4.5 4.5c2.485 0 4.5-2.015 4.5-4.5v0c0-2.485-2.015-4.5-4.5-4.5v0zM14.62 19.74c-1.303 0-2.36-1.057-2.36-2.36s1.057-2.36 2.36-2.36c1.303 0 2.36 1.057 2.36 2.36v0c0 1.303-1.057 2.36-2.36 2.36v0zM26 12.32l6-6-1.38-1.38-4.26 4.3v-9.24h-2v9.18l-4.16-4.22-1.36 1.36 6.58 6.6z"/>
</symbol></defs></svg>