<svg aria-hidden="true" style="position: absolute; width: 0; height: 0; overflow: hidden;" version="1.1" xmlns="http://www.w3.org/2000/svg" xmlns:xlink="http://www.w3.org/1999/xlink"><defs><symbol id="dds__pin" viewBox="0 0 32 32">
<title>dds__pin</title>
<path d="M19.82 0l-3.6 3.54 0.72 3.54-4.8 4.74-4.94-2.7c-0.312-0.178-0.686-0.283-1.085-0.283-0.041 0-0.081 0.001-0.121 0.003l0.006-0c-0.006-0-0.012-0-0.019-0-0.631 0-1.203 0.252-1.621 0.661l0-0-3.18 3.22 8.14 8-9 9.16-0.32 2.12 2.12-0.36 9-9.1 8 7.86 3.26-3.22c0.426-0.408 0.69-0.982 0.69-1.617 0-0.405-0.108-0.786-0.296-1.114l0.006 0.011-2.78-4.88 4.82-4.74 3.58 0.72 3.6-3.56-12.18-12zM27.7 13.24l-3.58-0.7-6.78 6.68 3.52 6.26c0.019 0.028 0.030 0.063 0.030 0.1s-0.011 0.072-0.031 0.101l0-0.001-1.74 1.7-14.88-14.66 1.76-1.7s0 0 0 0v0l6.52 3.44 6.78-6.68-0.24-1.12-0.48-2.42 1.24-1.22 9.12 8.98-1.24 1.22z"/>
</symbol></defs></svg>