<svg aria-hidden="true" style="position: absolute; width: 0; height: 0; overflow: hidden;" version="1.1" xmlns="http://www.w3.org/2000/svg" xmlns:xlink="http://www.w3.org/1999/xlink"><defs><symbol id="dds__globe-location" viewBox="0 0 32 32">
<title>dds__globe-location</title>
<path d="M13.060 25.32c1.54 0.707 3.339 1.125 5.235 1.14l0.005 0c0.009 0 0.020 0 0.031 0 0.939 0 1.853-0.109 2.729-0.316l-0.080 0.016c6.047-1.298 10.514-6.597 10.514-12.94s-4.467-11.642-10.427-12.924l-0.087-0.016c-0.767-0.178-1.648-0.28-2.553-0.28-0.009 0-0.019 0-0.028 0h0.001c-0.024-0-0.053-0-0.082-0-6.563 0-12.007 4.79-13.028 11.064l-0.010 0.076c0.432-0.087 0.929-0.138 1.438-0.14h0.402c0.207-1.127 0.554-2.133 1.029-3.063l-0.029 0.063h3.62c-0.298 1.261-0.486 2.719-0.52 4.216l-0 0.024c0.828 0.475 1.534 1.054 2.132 1.731l0.008 0.009h4.26v4.4h-2.68c0.011 0.167 0.017 0.363 0.017 0.56s-0.006 0.393-0.018 0.587l0.001-0.027v0.64h2.46v4.26c-1.091-0.591-1.94-1.511-2.426-2.625l-0.014-0.035c-0.219 0.761-0.512 1.425-0.881 2.038l0.021-0.038zM9.18 6.4c1.228-1.657 2.857-2.951 4.745-3.752l0.075-0.028c-0.785 1.070-1.419 2.313-1.836 3.651l-0.024 0.089zM17.44 12.4h-4.46c0.046-1.584 0.247-3.095 0.59-4.553l-0.030 0.153h4zM17.44 6.4h-3.34c0.493-1.837 1.685-3.336 3.266-4.222l0.034-0.018zM29.74 12.4h-4.26c-0.039-1.58-0.234-3.093-0.57-4.552l0.029 0.152v0.16h3.66c0.601 1.212 1.002 2.627 1.118 4.121l0.002 0.039zM27.46 6.4h-3.060c-0.473-1.448-1.154-2.703-2.020-3.806l0.020 0.026c2.007 0.801 3.677 2.085 4.92 3.712l0.020 0.028zM19.2 2.14c0.728 0.311 1.33 0.797 1.772 1.408l0.008 0.012c0.625 0.796 1.139 1.716 1.498 2.711l0.022 0.069h-3.3zM19.2 8.14h3.86c0.326 1.253 0.541 2.707 0.599 4.201l0.001 0.039h-4.46zM19.2 14.14h4.46c-0.047 1.534-0.263 2.996-0.63 4.396l0.030-0.136h-3.86zM19.2 24.44v-4.3h3.34c-0.38 1.103-0.91 2.058-1.576 2.9l0.016-0.020c-0.453 0.613-1.055 1.093-1.752 1.39l-0.028 0.010zM22.5 23.92c0.792-1.052 1.432-2.274 1.856-3.593l0.024-0.087h3.060c-1.247 1.644-2.896 2.92-4.804 3.693l-0.076 0.027zM24.9 18.38c0.305-1.269 0.486-2.73 0.5-4.231l0-0.009h4.28c-0.118 1.574-0.549 3.023-1.229 4.321l0.029-0.061h-3.58zM6.72 17.060c-1.37 0-2.48 1.11-2.48 2.48s1.11 2.48 2.48 2.48c1.37 0 2.48-1.11 2.48-2.48v0c0-1.37-1.11-2.48-2.48-2.48v0zM6.72 20.26c-0.4-0.011-0.72-0.338-0.72-0.74 0-0 0-0 0-0v0c0-0.398 0.322-0.72 0.72-0.72s0.72 0.322 0.72 0.72v0c-0.010 0.398-0.324 0.719-0.718 0.74l-0.002 0zM6.72 13.22c-3.449 0.011-6.24 2.81-6.24 6.26 0 0 0 0 0 0v0c-0 0.008-0 0.016-0 0.025 0 1.141 0.312 2.209 0.856 3.123l-0.016-0.028 5.4 9.4 5.42-9.38c0.531-0.9 0.844-1.983 0.844-3.14 0-3.457-2.803-6.26-6.26-6.26-0.002 0-0.003 0-0.005 0h0zM6.72 28.52l-4-6.78c-0.402-0.643-0.645-1.422-0.66-2.256l-0-0.004c0-2.496 2.024-4.52 4.52-4.52s4.52 2.024 4.52 4.52v0 0 0.2c-0.008 0.734-0.2 1.422-0.531 2.022l0.011-0.022z"/>
</symbol></defs></svg>