<svg aria-hidden="true" style="position: absolute; width: 0; height: 0; overflow: hidden;" version="1.1" xmlns="http://www.w3.org/2000/svg" xmlns:xlink="http://www.w3.org/1999/xlink"><defs><symbol id="dds__phone" viewBox="0 0 32 32">
<title>dds__phone</title>
<path d="M32 22.72v-0.54l-8.64-4.4-3.36 3.080-8.86-8.86 3.080-3.22-4.4-8.64-0.54-0.14c-0.285-0.034-0.615-0.053-0.95-0.053-3.614 0-6.701 2.255-7.931 5.435l-0.020 0.058c-2.5 6 8 16 9.080 17.040s9.060 9.52 15.060 9.52c0.005 0 0.011 0 0.018 0 0.714 0 1.395-0.14 2.018-0.393l-0.036 0.013c3.258-1.232 5.533-4.326 5.533-7.952 0-0.334-0.019-0.664-0.057-0.988l0.004 0.039zM25.8 29.64c-4 1.66-12-5.66-14.76-8.66s-10.32-10.76-8.68-14.72c0.906-2.425 3.204-4.121 5.897-4.121 0.036 0 0.072 0 0.108 0.001l-0.005-0 3.26 6.24-3.48 3.62 12 12 3.54-3.48 6.24 3.18c0 0.006 0 0.014 0 0.021 0 2.715-1.724 5.028-4.136 5.905l-0.044 0.014z"/>
</symbol></defs></svg>