<svg aria-hidden="true" style="position: absolute; width: 0; height: 0; overflow: hidden;" version="1.1" xmlns="http://www.w3.org/2000/svg" xmlns:xlink="http://www.w3.org/1999/xlink"><defs><symbol id="dds__objects" viewBox="0 0 32 32">
<title>dds__objects</title>
<path d="M9.42 6.3l2.7 5.48c0.563-0.3 1.225-0.578 1.914-0.796l0.086-0.024-4.7-9.5-9.42 19.14h6.3c0.067-0.79 0.208-1.518 0.42-2.215l-0.020 0.076h-3.26l6-12.16zM16 4.66v6c0.378-0.066 0.82-0.11 1.27-0.12l0.010-0c0.28 0 0.56 0 0.86 0v-3.76h11.66v11.68h-1.8c0.192 0.622 0.333 1.35 0.397 2.101l0.003 0.039h3.6v-16zM17.3 12.56c-0.006 0-0.013-0-0.020-0-4.971 0-9 4.029-9 9s4.029 9 9 9c4.971 0 9-4.029 9-9v0c0 0 0-0 0-0 0-4.964-4.018-8.989-8.979-9h-0.001zM17.3 28.42c-0.006 0-0.013 0-0.020 0-3.789 0-6.86-3.071-6.86-6.86s3.071-6.86 6.86-6.86c3.789 0 6.86 3.071 6.86 6.86v0c0 0 0 0 0 0 0 3.782-3.060 6.849-6.839 6.86h-0.001z"/>
</symbol></defs></svg>