<svg aria-hidden="true" style="position: absolute; width: 0; height: 0; overflow: hidden;" version="1.1" xmlns="http://www.w3.org/2000/svg" xmlns:xlink="http://www.w3.org/1999/xlink"><defs><symbol id="dds__cloud-restore" viewBox="0 0 32 32">
<title>dds__cloud-restore</title>
<path d="M26.7 11.78c0-5.16-3.16-9.1-8-9.1-0.063-0.002-0.137-0.003-0.211-0.003-2.734 0-5.131 1.444-6.47 3.61l-0.019 0.033c-0.433-0.058-0.939-0.094-1.452-0.1l-0.008-0c-0.201-0.025-0.434-0.039-0.67-0.039-2.774 0-5.088 1.967-5.623 4.582l-0.006 0.037c-2.475 0.777-4.24 3.050-4.24 5.736 0 0.001 0 0.003 0 0.004v-0c-0.002 0.054-0.003 0.118-0.003 0.182 0 3.082 2.498 5.58 5.58 5.58 0.057 0 0.114-0.001 0.171-0.003l-0.008 0v-2.12c-0.037 0.001-0.080 0.002-0.124 0.002-1.922 0-3.48-1.558-3.48-3.48 0-0.057 0.001-0.114 0.004-0.17l-0 0.008c-0-0.008-0-0.017-0-0.026 0-1.699 1.104-3.14 2.633-3.646l0.027-0.008 1.3-0.4 0.24-1.34c0-0.46 0.66-2.76 4.1-2.76 0.18-0.013 0.389-0.021 0.6-0.021s0.421 0.008 0.628 0.023l-0.028-0.002 1.48 0.2 0.68-1.34c1.011-1.473 2.685-2.427 4.583-2.427 0.098 0 0.195 0.003 0.291 0.008l-0.014-0.001c4 0 5.9 3.52 5.9 6.98v2l2 0.16c0.54 0 3.32 0.42 3.32 3.14-0.034 1.741-1.453 3.14-3.199 3.14-0.007 0-0.014-0-0.022-0h-0.659v2.14h0.68s5.32-0.36 5.32-5.32-5.3-5.26-5.3-5.26zM19.14 12.18l-1.38 1.62 1.74 1.5h-11.040v5.78h2.14v-3.64h8.84l-1.62 1.38 1.18 1.36 0.22 0.26 0.3-0.26 4.48-3.84zM21.26 22.3v1.8h-8.86l1.6-1.42-0.32-0.38-1.080-1.24-4.72 4.1 4.84 4.16 1.38-1.62-1.72-1.48h11.020v-6h-2.14z"/>
</symbol></defs></svg>