<svg aria-hidden="true" style="position: absolute; width: 0; height: 0; overflow: hidden;" version="1.1" xmlns="http://www.w3.org/2000/svg" xmlns:xlink="http://www.w3.org/1999/xlink"><defs><symbol id="dds__flame" viewBox="0 0 32 32">
<title>dds__flame</title>
<path d="M11.74 16.88s1.080-2 1.58-2.92c0.869-1.806 1.562-3.904 1.975-6.101l0.025-0.159c0.088 0.936 0.139 2.025 0.139 3.125 0 1.72-0.123 3.41-0.361 5.064l0.022-0.189v0.3c-0.108 0.53-0.17 1.139-0.17 1.762 0 0.897 0.128 1.763 0.366 2.583l-0.016-0.065c0.4 1.417 1.665 2.444 3.176 2.48l0.004 0c1.811-0.151 3.32-1.3 3.988-2.889l0.012-0.031c1.12 3.14 1.22 5.66 0.26 7.3-1.28 2.26-4.74 2.72-7.5 2.72-2 0-4.76-0.34-6-2-0.463-0.787-0.737-1.734-0.737-2.745 0-0.569 0.087-1.118 0.248-1.634l-0.010 0.039c0.854-2.549 1.869-4.743 3.089-6.802l-0.089 0.162zM13.5 0c0.153 0.981 0.24 2.112 0.24 3.263 0 3.543-0.827 6.893-2.299 9.867l0.058-0.13c-1.767 2.838-3.335 6.109-4.534 9.552l-0.106 0.348s-3.060 9.1 8.38 9.1 12.76-7.48 7.1-17.68c-0.474 1.792-1.075 3.348-1.823 4.816l0.063-0.136c-0.341 0.848-1.083 1.47-1.984 1.637l-0.016 0.003c-0.46 0-0.9-0.28-1.16-1.040-0.153-0.594-0.24-1.277-0.24-1.98 0-0.573 0.058-1.133 0.169-1.674l-0.009 0.053c0.66-6 0.92-12.8-3.84-16z"/>
</symbol></defs></svg>