<svg aria-hidden="true" style="position: absolute; width: 0; height: 0; overflow: hidden;" version="1.1" xmlns="http://www.w3.org/2000/svg" xmlns:xlink="http://www.w3.org/1999/xlink"><defs><symbol id="dds__paint-brush" viewBox="0 0 32 32">
<title>dds__paint-brush</title>
<path d="M32 4l-5.22-4-13.9 18.6c-3.26 0.66-4.88 2.24-7.5 7.28-0.956 1.607-2.135 2.97-3.513 4.098l-0.027 0.022-1.84 1.6 2.42 0.26c1.58 0.14 3.58 0.14 5.88 0.14 1.34 0 2.44 0 3.040 0 2.215-0.165 4.153-1.23 5.469-2.827l0.011-0.013c0.953-1.379 1.521-3.087 1.521-4.928 0-0.592-0.059-1.17-0.171-1.728l0.009 0.056 13.82-18.56zM11.24 29.8c-1.080 0-4.12 0-6.2 0 0.86-0.841 1.598-1.802 2.188-2.857l0.032-0.063c2.4-4.62 3.56-5.66 5.86-6.16l3 2.3c0.070 0.357 0.109 0.768 0.109 1.188 0 1.33-0.399 2.566-1.084 3.596l0.015-0.024c-0.938 1.163-2.332 1.927-3.905 2.019l-0.015 0.001zM16.8 20.82l-1.86-1.42 12.24-16.4 1.86 1.42z"/>
</symbol></defs></svg>