<svg aria-hidden="true" style="position: absolute; width: 0; height: 0; overflow: hidden;" version="1.1" xmlns="http://www.w3.org/2000/svg" xmlns:xlink="http://www.w3.org/1999/xlink"><defs><symbol id="dds__brand-delltechnologiesvert" viewBox="0 0 32 32">
<title>dds__brand-delltechnologiesvert</title>
<path d="M32 15.053v1.877h-6.093v-9.447h2.147v7.57zM3.83 16.93c2.186-0.001 4.025-1.487 4.563-3.504l0.007-0.033 5.333 4.177 5.333-4.173v3.533h6.11v-1.877h-3.947v-7.57h-2.147v3.533l-5.123 4-1.143-0.893 5.117-4.003-1.523-1.19-5.123 4-1.143-0.893 5.12-4-1.523-1.19-5.333 4.173c-0.546-2.048-2.385-3.533-4.57-3.533h-3.837v9.443zM2.163 15.053v-5.693h1.683c1.423 0 2.577 1.273 2.577 2.847s-1.153 2.847-2.577 2.847z"/>
<path d="M32 23.023c0-0.563-0.313-0.817-0.943-0.94s-1-0.19-1-0.63c0-0.313 0.253-0.5 0.69-0.5 0.567 0 0.753 0.25 0.753 0.563l0.063 0.063h0.25l0.063-0.063c0-0.627-0.5-0.877-1.13-0.877-0.69 0-1.067 0.377-1.067 0.813 0 0.503 0.377 0.753 1 0.88s0.94 0.187 0.94 0.69c0 0.313-0.187 0.563-0.817 0.563-0.563 0-0.813-0.313-0.813-0.69l-0.063-0.060h-0.26l-0.060 0.060c0 0.567 0.437 1 1.19 1 0.817 0 1.193-0.377 1.193-0.88zM29.293 22.39l0.060-0.063v-0.19c0-0.877-0.5-1.503-1.38-1.503s-1.38 0.627-1.38 1.503v0.127c0 0.88 0.44 1.633 1.443 1.633 0.036 0.004 0.077 0.006 0.119 0.006 0.566 0 1.036-0.406 1.137-0.942l0.001-0.007-0.063-0.063h-0.23l-0.060 0.063c-0.096 0.365-0.422 0.63-0.811 0.63-0.024 0-0.049-0.001-0.072-0.003l0.003 0c-0.592-0.013-1.067-0.496-1.067-1.090 0-0.013 0-0.026 0.001-0.039l-0 0.002 0.063-0.063zM28.917 22.077h-1.873l-0.063-0.063c0-0.552 0.448-1 1-1s1 0.448 1 1v0zM26.153 23.77v-3l-0.063-0.063h-0.25l-0.063 0.063v3l0.063 0.063h0.25zM26.153 20.13v-0.37l-0.063-0.063h-0.25l-0.063 0.063v0.377l0.063 0.063h0.25zM23.78 23.587c-0.627 0-1-0.437-1-1.333s0.377-1.333 1-1.333 1 0.437 1 1.333-0.377 1.333-1 1.333zM24.78 23.4c0 0.817-0.187 1.443-0.94 1.443-0.567 0-0.753-0.25-0.817-0.563l-0.063-0.063h-0.25l-0.063 0.063c0.063 0.5 0.44 0.877 1.193 0.877 0.813 0 1.333-0.503 1.333-1.757v-2.637l-0.063-0.063h-0.187l-0.063 0.063-0.063 0.377h-0.063c-0.187-0.305-0.518-0.505-0.896-0.505-0.037 0-0.073 0.002-0.109 0.006l0.004-0c-0.88 0-1.333 0.69-1.333 1.63s0.437 1.633 1.333 1.633c0.031 0.003 0.066 0.005 0.102 0.005 0.379 0 0.711-0.202 0.895-0.504l0.003-0.005zM20.703 20.953c0.63 0 1.067 0.5 1.067 1.333s-0.437 1.333-1.067 1.333-1.067-0.5-1.067-1.333 0.44-1.333 1.067-1.333zM20.703 23.903c0.817 0 1.443-0.567 1.443-1.633s-0.627-1.63-1.443-1.63-1.443 0.563-1.443 1.63 0.63 1.633 1.443 1.633zM18.823 23.777v-4.267l-0.063-0.063h-0.25l-0.063 0.063v4.267l0.063 0.063h0.25zM16.563 20.953c0.627 0 1.067 0.5 1.067 1.333s-0.44 1.333-1.067 1.333-1.067-0.5-1.067-1.333 0.44-1.333 1.067-1.333zM16.563 23.903c0.817 0 1.443-0.567 1.443-1.633s-0.627-1.63-1.443-1.63-1.443 0.563-1.443 1.63 0.627 1.633 1.443 1.633zM14.743 23.777v-1.883c0-0.817-0.44-1.253-1.13-1.253-0.017-0.001-0.037-0.001-0.057-0.001-0.391 0-0.736 0.197-0.94 0.497l-0.003 0.004h-0.063l-0.063-0.377-0.060-0.063h-0.193l-0.063 0.063v3l0.063 0.063h0.25l0.063-0.063v-1.68c0-0.693 0.313-1.13 1-1.13 0.503 0 0.817 0.313 0.817 0.94v1.883l0.063 0.063h0.24zM11.543 23.777v-1.883c0-0.817-0.44-1.253-1.13-1.253-0.017-0.001-0.037-0.001-0.057-0.001-0.391 0-0.736 0.197-0.94 0.497l-0.003 0.004h-0.080v-1.63l-0.063-0.063h-0.237l-0.063 0.063v4.267l0.063 0.063h0.25l0.063-0.063v-1.693c0-0.693 0.313-1.13 1-1.13 0.503 0 0.817 0.313 0.817 0.94v1.883l0.063 0.063h0.25zM6.147 22.27c0-0.88 0.44-1.333 1.067-1.333 0.026-0.003 0.056-0.004 0.086-0.004 0.439 0 0.801 0.329 0.853 0.753l0 0.004 0.063 0.060h0.253l0.060-0.060c-0.060-0.63-0.563-1.067-1.317-1.067-0.817 0-1.443 0.5-1.443 1.63s0.627 1.633 1.443 1.633c0.753 0 1.257-0.44 1.317-1.067l-0.060-0.063h-0.253l-0.063 0.063c-0.054 0.427-0.416 0.754-0.854 0.754-0.030 0-0.061-0.002-0.090-0.005l0.004 0c-0.627 0-1.067-0.437-1.067-1.333zM5.457 22.363l0.063-0.063v-0.19c0-0.877-0.503-1.503-1.383-1.503s-1.38 0.66-1.38 1.537v0.127c0 0.88 0.44 1.633 1.443 1.633 0.036 0.004 0.077 0.006 0.119 0.006 0.566 0 1.036-0.406 1.137-0.942l0.001-0.007-0.063-0.063h-0.25l-0.063 0.063c-0.096 0.365-0.422 0.63-0.811 0.63-0.024 0-0.049-0.001-0.072-0.003l0.003 0c-0.592-0.013-1.067-0.496-1.067-1.090 0-0.013 0-0.026 0.001-0.039l-0 0.002 0.063-0.063zM5.080 22.050h-1.883l-0.063-0.063c0-0.552 0.448-1 1-1s1 0.448 1 1v0zM3.39 19.663v-0.187l-0.057-0.030h-3.27l-0.063 0.063v0.187l0.063 0.063h1.38l0.063 0.063v3.953l0.063 0.063h0.25l0.063-0.063v-3.953l0.063-0.063h1.387z"/>
</symbol></defs></svg>