<svg aria-hidden="true" style="position: absolute; width: 0; height: 0; overflow: hidden;" version="1.1" xmlns="http://www.w3.org/2000/svg" xmlns:xlink="http://www.w3.org/1999/xlink"><defs><symbol id="dds__calendar-search" viewBox="0 0 32 32">
<title>dds__calendar-search</title>
<path d="M2.14 25.72v-16.8h23.5v4.34c0.813 0.477 1.511 1.041 2.114 1.694l0.006 0.006v-12.86h-7.76v-2.1h-2v2.1h-8.26v-2.1h-2.12v2.1h-7.62v25.76h15.060c-0.671-0.617-1.248-1.321-1.716-2.097l-0.024-0.043zM2.14 4.24h5.48v1.36h2.12v-1.36h8.26v1.36h2v-1.36h5.58v2.54h-23.46v-2.54zM27.76 26.24l-1.040-1.060c0.447-0.617 0.803-1.336 1.028-2.111l0.012-0.049c0.19-0.591 0.3-1.271 0.3-1.977 0-0.008 0-0.017-0-0.025v0.001c-0.008-0.674-0.117-1.319-0.313-1.926l0.013 0.046c-0.392-1.343-1.13-2.483-2.113-3.354l-0.007-0.006c-1.208-1.044-2.793-1.68-4.528-1.68-3.833 0-6.94 3.107-6.94 6.94 0 3.246 2.229 5.972 5.24 6.73l0.048 0.010c0.488 0.127 1.051 0.206 1.631 0.22l0.009 0c0.581-0.013 1.138-0.092 1.67-0.231l-0.050 0.011c0.954-0.234 1.791-0.634 2.519-1.173l-0.019 0.013 5.28 5.38 1.5-1.52zM25.64 22.7c-0.527 1.456-1.691 2.567-3.146 3.011l-0.034 0.009c-0.404 0.128-0.871 0.207-1.353 0.22l-0.007 0c-0.482-0.012-0.942-0.092-1.375-0.23l0.035 0.010c-2.032-0.597-3.491-2.445-3.491-4.633 0-2.662 2.158-4.82 4.82-4.82 2.094 0 3.875 1.335 4.541 3.2l0.010 0.034c0.177 0.476 0.28 1.026 0.28 1.6v0c-0.011 0.576-0.112 1.124-0.291 1.637l0.011-0.037z"/>
</symbol></defs></svg>