<svg aria-hidden="true" style="position: absolute; width: 0; height: 0; overflow: hidden;" version="1.1" xmlns="http://www.w3.org/2000/svg" xmlns:xlink="http://www.w3.org/1999/xlink"><defs><symbol id="dds__clipboard-notes" viewBox="0 0 32 32">
<title>dds__clipboard-notes</title>
<path d="M22.62 6.92l2.14-2.14v-1h-3.84v2.22h1.7zM22.62 29.86h-7.22l-0.78 0.78-3.5 1.36h13.64v-11.5l-2.14 2.14zM2.16 6h1.7v-2.22h-3.86v28.22h3.2l0.5-1.3 0.2-0.46 0.1-0.38h-1.84zM18.9 2.58h-3.020c-0.483-1.495-1.862-2.558-3.49-2.558s-3.007 1.062-3.483 2.532l-0.007 0.026h-3.020v6.6h13.020v-6.6zM16.78 7.040h-8.78v-2.32h2.88v-1.080c0-0.862 0.698-1.56 1.56-1.56s1.56 0.698 1.56 1.56v0 1.080h2.78v2.32zM32 10.26l-4.86-4.84-18.56 18.58-2.74 7.020-0.3 0.84 1.28-0.46 6.62-2.6zM27.16 8.44l1.82 1.82-0.98 1-1.84-1.82zM24.62 10.96l1.84 1.8-12.98 12.98-1.84-1.74zM9.24 28.16l1.020-2.6 1.58 1.58z"/>
</symbol></defs></svg>