<svg aria-hidden="true" style="position: absolute; width: 0; height: 0; overflow: hidden;" version="1.1" xmlns="http://www.w3.org/2000/svg" xmlns:xlink="http://www.w3.org/1999/xlink"><defs><symbol id="dds__ink-toner" viewBox="0 0 32 32">
<title>dds__ink-toner</title>
<path d="M12 14.28c-0.352 0.619-0.56 1.359-0.56 2.148 0 0.004 0 0.008 0 0.012v-0.001c0.011 2.518 2.044 4.557 4.558 4.58h0.002c2.525-0.011 4.569-2.055 4.58-4.579v-0.001c-0.004-0.795-0.219-1.54-0.591-2.181l0.011 0.021-4-6.28zM16 12l2 3.080 0.1 0.18c0.189 0.333 0.3 0.732 0.3 1.157 0 0.001 0 0.002 0 0.003v-0c0 1.348-1.092 2.44-2.44 2.44s-2.44-1.092-2.44-2.44v0c-0-0.005-0-0.012-0-0.018 0-0.379 0.089-0.737 0.246-1.056l-0.006 0.014zM0 4v6.9h2v17.1h14l4.22-3.76h9.66v-13.34h2.12v-6.9zM29.86 8.8h-2.14v13.34h-8.34l-4.2 3.76h-11v-17.12h-2v-2.66h27.68v2.66z"/>
</symbol></defs></svg>