<svg aria-hidden="true" style="position: absolute; width: 0; height: 0; overflow: hidden;" version="1.1" xmlns="http://www.w3.org/2000/svg" xmlns:xlink="http://www.w3.org/1999/xlink"><defs><symbol id="dds__currency-coins-euros" viewBox="0 0 32 32">
<title>dds__currency-coins-euros</title>
<path d="M18.16 0c-3.115 0.018-5.988 1.035-8.319 2.748l0.040-0.028c1.081-0.294 2.323-0.462 3.604-0.462 0.090 0 0.18 0.001 0.269 0.002l-0.013-0c0.126-0.006 0.274-0.009 0.422-0.009 0.557 0 1.104 0.047 1.635 0.137l-0.057-0.008c0.615-0.16 1.32-0.252 2.048-0.252 0.159 0 0.317 0.004 0.474 0.013l-0.022-0.001c6.414 0.034 11.6 5.241 11.6 11.66 0 0 0 0 0 0v0c-0.015 0.888-0.094 1.745-0.234 2.581l0.014-0.101c0.081 0.485 0.127 1.045 0.127 1.615 0 0.135-0.003 0.27-0.008 0.404l0.001-0.019c-0.049 1.346-0.214 2.624-0.486 3.862l0.026-0.142c1.698-2.242 2.72-5.079 2.72-8.153 0-0.016-0-0.033-0-0.049v0.003c0-0.024 0-0.052 0-0.081 0-7.577-6.143-13.72-13.72-13.72-0.042 0-0.084 0-0.127 0.001l0.006-0zM16.34 20.36h-4.66c-0.002 0.055-0.003 0.119-0.003 0.183 0 1.302 0.429 2.504 1.154 3.472l-0.011-0.015c0.711 0.767 1.724 1.246 2.849 1.246 0.074 0 0.148-0.002 0.221-0.006l-0.010 0c0.052 0.001 0.113 0.002 0.174 0.002 0.88 0 1.721-0.17 2.491-0.478l-0.045 0.016 0.22 2c-0.829 0.216-1.781 0.34-2.762 0.34-0.027 0-0.055-0-0.082-0l0.004 0c-0.1 0.006-0.216 0.009-0.334 0.009-1.668 0-3.185-0.651-4.309-1.712l0.003 0.003c-1.131-1.279-1.821-2.971-1.821-4.824 0-0.048 0-0.095 0.001-0.143l-0 0.007h-2.16v-1.58h2.16v-1.58h-2.16v-1.46h2.16c-0-0.015-0-0.032-0-0.049 0-1.855 0.69-3.549 1.827-4.839l-0.007 0.008c1.13-1.046 2.648-1.688 4.316-1.688 0.114 0 0.227 0.003 0.34 0.009l-0.016-0.001c1.011 0.008 1.989 0.131 2.928 0.358l-0.088-0.018-0.22 1.8c-0.773-0.245-1.667-0.409-2.593-0.459l-0.027-0.001c-0.043-0.002-0.093-0.003-0.143-0.003-1.149 0-2.185 0.485-2.915 1.261l-0.002 0.002c-0.714 0.878-1.146 2.010-1.146 3.243 0 0.090 0.002 0.18 0.007 0.27l-0.001-0.012h4.54v1.46h-4.64v1.6h4.64v1.58zM13.8 6.54c6.44 0 11.66 5.22 11.66 11.66s-5.22 11.66-11.66 11.66c-6.44 0-11.66-5.22-11.66-11.66v0c0-6.44 5.22-11.66 11.66-11.66v0zM13.8 4.4c-7.622 0-13.8 6.178-13.8 13.8s6.178 13.8 13.8 13.8c7.622 0 13.8-6.178 13.8-13.8v0c0-7.622-6.178-13.8-13.8-13.8v0z"/>
</symbol></defs></svg>